<svg width="47" height="47" viewBox="0 0 47 47" fill="none" xmlns="http://www.w3.org/2000/svg">
<path fill-rule="evenodd" clip-rule="evenodd" d="M23.1719 0C27.7878 0 32.0882 1.34959 35.7003 3.67589L32.3474 7.02874C29.6413 5.48707 26.5096 4.60571 23.1719 4.60571C12.918 4.60571 4.60571 12.9181 4.60571 23.1723C4.60571 26.5097 5.48678 29.6414 7.02844 32.3479L3.68873 35.6875C3.15582 34.8669 2.73074 34.1064 2.40192 33.4563C0.864407 30.3579 0 26.8661 0 23.1723C0 10.3749 10.3744 0 23.1719 0ZM20.5318 27.727C20.5005 27.727 20.4768 27.7507 20.4768 27.7817C20.4768 27.8127 20.5005 27.837 20.5318 27.837C20.5628 27.837 20.5868 27.8127 20.5868 27.7817C20.5868 27.7507 20.5628 27.727 20.5318 27.727ZM41.8084 9.40113C41.8526 9.46085 41.8964 9.52101 41.9402 9.5811L41.9411 9.58258L41.9615 9.61063C42.0023 9.66732 42.0431 9.72402 42.0831 9.78071L42.1633 9.89439L42.212 9.96393C44.8169 13.711 46.3442 18.2631 46.3442 23.1723C46.3442 35.9698 35.9698 46.3442 23.1719 46.3442C18.0144 46.3442 13.251 44.6586 9.40113 41.8088L9.38991 41.8197C8.01681 40.7959 6.85041 39.6783 5.87037 38.5659L9.12416 35.3122L13.4362 31.0004C13.2427 31.497 13.0518 31.9997 12.8991 32.4839C12.2936 34.402 12.7832 36.1391 14.3694 36.8402L12.7026 38.5069C15.6831 40.5459 19.2881 41.7388 23.1719 41.7388C33.4261 41.7388 41.7384 33.4262 41.7384 23.1723C41.7384 19.2885 40.5456 15.6836 38.5069 12.7031L29.1738 22.0361C29.037 21.6922 28.9013 21.3479 28.7671 21.0032C28.5577 20.4643 28.3503 19.9227 28.1587 19.3773C28.0834 19.1638 27.9753 18.8791 27.922 18.6481V16.5146L35.3117 9.12446L38.5747 5.86211L38.5927 5.8435C39.8849 7.01062 40.9485 8.23742 41.8084 9.40113Z" fill="#E63534"/>
<path fill-rule="evenodd" clip-rule="evenodd" d="M19.5034 12.9136C19.5034 14.961 19.5034 17.7364 19.5034 18.7599C19.5034 19.7838 14.6561 32.2656 14.4343 32.9686C14.2124 33.6716 13.7683 35.5587 16.0995 35.5587C18.7633 35.5587 30.1968 35.5587 30.1968 35.5587C31.122 35.5217 32.6387 35.0038 31.8991 32.9686C31.159 30.9337 26.3117 19.7343 26.3117 18.7599C26.3117 17.7855 26.3117 14.8623 26.3117 12.9136C26.3117 12.9136 27.7547 13.0387 27.7547 11.8916C27.7547 10.9944 27.0518 10.7861 26.6077 10.7861C26.1636 10.7861 19.633 10.7861 19.2078 10.7861C18.7823 10.7861 18.1714 10.9759 18.1714 11.8916C18.1714 12.5391 18.681 12.8524 19.5034 12.9136ZM20.5314 26.117C21.4513 26.117 22.1966 26.8623 22.1966 27.7819C22.1966 28.7015 21.4513 29.4473 20.5314 29.4473C19.6118 29.4473 18.8665 28.7015 18.8665 27.7819C18.8665 26.8623 19.6118 26.117 20.5314 26.117ZM23.0107 30.8646C23.5561 30.8646 23.9984 31.3067 23.9984 31.8521C23.9984 32.3975 23.5561 32.8397 23.0107 32.8397C22.4649 32.8397 22.0228 32.3975 22.0228 31.8521C22.0228 31.3067 22.4649 30.8646 23.0107 30.8646ZM24.916 25.4141C25.2841 25.4141 25.5819 25.7123 25.5819 26.0801C25.5819 26.4478 25.2841 26.7459 24.916 26.7459C24.5482 26.7459 24.2501 26.4478 24.2501 26.0801C24.2501 25.7123 24.5482 25.4141 24.916 25.4141Z" fill="#E63534"/>
</svg>
