<svg width="46" height="46" viewBox="0 0 46 46" fill="none" xmlns="http://www.w3.org/2000/svg">
<path fill-rule="evenodd" clip-rule="evenodd" d="M28.3691 16.3443C28.3691 16.9078 28.427 17.9849 28.8569 18.3362C28.9163 18.3849 29.1303 18.473 29.2201 18.5026C30.4777 18.9181 31.7622 18.7375 32.9033 18.1583C33.5035 17.8538 34.1729 17.309 34.5665 16.7639C34.6032 16.7127 34.622 16.6911 34.6576 16.6384C35.5859 15.2645 36.0005 12.7518 36.0005 11.0241C35.8917 11.0216 35.9049 11 35.784 11C34.2731 11 31.9595 11.461 30.6755 12.2711C30.4994 12.3823 30.3721 12.4712 30.2092 12.5992C30.0413 12.7313 29.8374 12.9172 29.707 13.0842C29.4665 13.3918 29.3513 13.4995 29.1165 13.8899C28.7678 14.4695 28.3691 15.4239 28.3691 16.3443Z" fill="#E63534"/>
<path fill-rule="evenodd" clip-rule="evenodd" d="M13.9238 33.75C13.9238 34.0839 14.0665 34.3195 14.1961 34.537L14.5317 34.9956C14.8414 35.3429 14.7609 35.2469 15.0732 35.5375C15.1385 35.5982 15.1572 35.6145 15.2305 35.6691C15.8944 36.1631 16.6691 36.5204 17.5149 36.6107C19.4263 36.8148 21.8057 36.0345 23.1738 34.8149C23.8462 34.2154 24.0529 33.9464 24.5406 33.2204C24.5812 33.1599 24.6172 33.1116 24.6368 33.0277C24.0812 32.7338 23.9944 32.6327 23.2922 32.3499C21.285 31.542 18.7315 30.9917 16.4814 31.4689C16.0128 31.5682 15.5348 31.7206 15.1502 31.9432C15.1065 31.9684 15.0718 31.9833 15.0262 32.0116C14.4074 32.3971 13.9238 32.9686 13.9238 33.75Z" fill="#E63534"/>
<path fill-rule="evenodd" clip-rule="evenodd" d="M10 28.0445C10 28.8572 9.99432 29.3073 10.2555 30.1002C10.3998 30.5386 10.5909 30.9186 10.8138 31.2752C10.8707 31.3661 10.921 31.4312 10.9835 31.5146C11.0466 31.5985 11.1011 31.6821 11.1736 31.758C11.2535 31.8415 11.2931 31.9023 11.3781 31.9866C11.6962 32.3018 12.2557 32.8112 12.7204 32.8112C13.3095 32.8112 13.658 32.6821 14.0854 32.3225C14.3197 32.1256 14.6524 31.6629 14.7702 31.3701C14.9767 30.8566 15.0408 30.7482 15.1657 30.1286C15.5042 28.4483 15.2243 26.476 14.7879 24.9899C14.5566 24.2017 14.3026 23.4743 13.9244 22.7479C13.7713 22.4539 13.6846 22.3518 13.5149 22.0981C13.3884 22.1651 13.2788 22.2399 13.1585 22.3196L12.645 22.6968C12.051 23.1699 11.5215 23.7779 11.13 24.432C10.5662 25.3744 10 26.9173 10 28.0445Z" fill="#E63534"/>
<path fill-rule="evenodd" clip-rule="evenodd" d="M19.1973 28.7182C19.1973 28.8929 19.3631 29.1599 19.4377 29.2721C19.8768 29.9338 20.449 30.3888 21.1632 30.7485C21.7023 31.0203 22.5073 31.2218 23.1212 31.2218C24.1168 31.2218 24.7854 31.1472 25.7364 30.8277C26.3078 30.6357 26.5259 30.5268 27.0451 30.2587C27.7275 29.9063 28.2832 29.4419 28.8207 28.9047C28.8781 28.8473 28.9253 28.8079 28.9748 28.7459C29.1882 28.4785 29.8221 27.7406 29.8861 27.4662C29.7891 27.415 29.7103 27.3565 29.6215 27.2977C29.325 27.1007 29.0901 26.9975 28.7788 26.8403C28.3907 26.6444 27.9387 26.5023 27.4998 26.3618C26.9865 26.1978 25.8873 25.9685 25.2879 25.9497L23.7464 25.9248C23.4438 25.9338 22.8768 26.015 22.6135 26.0678C22.0539 26.1803 21.5851 26.3825 21.1312 26.6077C20.4245 26.958 19.1973 27.9353 19.1973 28.7182Z" fill="#E63534"/>
<path fill-rule="evenodd" clip-rule="evenodd" d="M15.4648 23.1574C15.4648 24.3366 15.7471 25.1837 16.3599 26.09C16.419 26.1773 16.4867 26.2501 16.5512 26.332C16.6818 26.4973 16.8255 26.6246 16.9751 26.7749C17.163 26.9636 17.7461 27.3945 18.0888 27.3945C18.5952 27.3945 19.2153 26.7916 19.5258 26.424L19.9263 25.8614C19.9914 25.7523 20.0354 25.6643 20.101 25.5545C20.308 25.2089 20.5231 24.5293 20.6169 24.1448C21.0685 22.2955 20.6874 19.6022 19.8623 17.9654C19.7593 17.761 19.6729 17.5925 19.5657 17.3954L19.2205 16.8501C18.8001 17.0725 17.785 17.8285 17.473 18.2325L16.7838 19.1078C16.7335 19.1823 16.7048 19.2386 16.6541 19.3152C16.5374 19.4922 16.2939 19.9315 16.2145 20.1274C16.0633 20.5004 16.002 20.595 15.859 21.0238C15.646 21.6635 15.4648 22.3151 15.4648 23.1574Z" fill="#E63534"/>
<path fill-rule="evenodd" clip-rule="evenodd" d="M23.1444 21.8814C23.8721 21.8814 24.3179 21.6676 24.8303 21.2799C25.0211 21.1354 25.141 20.978 25.2569 20.864C25.5859 20.5404 25.8755 19.9774 26.0657 19.5544C26.4792 18.6347 26.8044 16.2435 26.8037 15.2369C26.8035 14.9403 26.8433 14.704 26.828 14.4182C26.804 13.9758 26.7974 13.2013 26.7417 12.8193L26.6594 12.0352C25.7146 12.0352 24.361 12.7427 23.6315 13.3405L23.0659 13.8341C22.7528 14.145 22.353 14.659 22.1345 15.0213C21.0914 16.7502 20.9514 19.1348 21.9987 20.8843C22.1185 21.0844 22.2944 21.3335 22.4524 21.4902C22.6493 21.6853 22.7641 21.8814 23.1444 21.8814Z" fill="#E63534"/>
<path fill-rule="evenodd" clip-rule="evenodd" d="M28.4659 25.4682C29.1802 25.4682 29.4013 25.4768 30.1366 25.3093C31.0142 25.1092 31.6542 24.7146 32.3315 24.1822L33.0086 23.5352C33.1176 23.405 33.2047 23.2971 33.3122 23.1647C33.4192 23.033 33.4857 22.9229 33.5867 22.7893C33.9861 22.2607 34.5323 21.0441 34.5323 20.3887C34.5323 20.1855 32.8846 20.0867 32.6789 20.0755C32.3396 20.0573 31.3235 20.0801 30.9453 20.0997C30.3842 20.1286 29.5009 20.2458 28.9612 20.3544C28.6655 20.4141 28.4339 20.4695 28.1574 20.5379L27.3995 20.7668C26.4222 21.1525 25.7142 21.5307 25.1535 22.4691C25.0983 22.5614 25.0385 22.7049 25.0021 22.7991C24.9567 22.9171 24.9234 23.0586 24.8959 23.1984C24.7674 23.8523 25.0023 24.0972 25.5113 24.4746C25.86 24.7332 26.0699 24.8294 26.4435 25.0108C26.9457 25.255 27.8232 25.4682 28.4659 25.4682Z" fill="#E63534"/>
<path d="M46 23C46 35.7025 35.7025 46 23 46C10.2975 46 0 35.7025 0 23C0 10.2975 10.2975 0 23 0C35.7025 0 46 10.2975 46 23ZM4.23471 23C4.23471 33.3638 12.6362 41.7653 23 41.7653C33.3638 41.7653 41.7653 33.3638 41.7653 23C41.7653 12.6362 33.3638 4.23471 23 4.23471C12.6362 4.23471 4.23471 12.6362 4.23471 23Z" fill="#E63534"/>
</svg>
