<svg width="46" height="46" viewBox="0 0 46 46" fill="none" xmlns="http://www.w3.org/2000/svg">
<path d="M46 23C46 35.7025 35.7025 46 23 46C10.2975 46 0 35.7025 0 23C0 10.2975 10.2975 0 23 0C35.7025 0 46 10.2975 46 23ZM4.23471 23C4.23471 33.3638 12.6362 41.7653 23 41.7653C33.3638 41.7653 41.7653 33.3638 41.7653 23C41.7653 12.6362 33.3638 4.23471 23 4.23471C12.6362 4.23471 4.23471 12.6362 4.23471 23Z" fill="#E63534"/>
<path fill-rule="evenodd" clip-rule="evenodd" d="M25.4153 18.312C25.4153 18.516 25.778 19.8373 25.778 20.8961C25.778 22.6326 25.721 23.1441 24.6639 24.4969C23.5593 25.9105 21.0121 26.7943 19.4254 27.3281C19.2005 27.4037 19.0015 27.4532 18.7681 27.5321C18.4314 27.6458 18.207 27.6388 18.207 27.8323C18.207 28.0559 18.5645 27.9683 19.1591 27.9683C21.2914 27.9683 23.4996 27.8955 24.7233 26.1882C24.9286 25.9017 25.0993 25.5641 25.2647 25.2337C25.3522 25.0588 25.4072 24.9129 25.4907 24.7344C25.5976 24.5056 26.0483 23.2691 26.1407 23.1629L26.2764 25.2486C26.4172 26.0643 26.7994 27.515 27.8181 27.515H38.1091V25.9736C37.5364 25.9736 37.4822 25.9956 36.9686 25.6181C35.2585 24.361 32.6495 21.0555 30.5059 22.8585C30.2844 23.0447 30.0662 23.3738 29.9221 23.6349C29.8526 23.7611 29.8303 23.8601 29.7674 23.9788L30.8101 23.9335C32.1055 23.9335 33.189 24.6174 34.1381 25.2751C34.3501 25.4219 34.9133 25.8049 35.0263 25.9736L28.2241 25.9756C27.5086 25.9705 27.3589 25.4522 27.1833 24.7497C26.9107 23.6601 26.614 20.2693 26.3607 18.7719C26.3072 18.4556 26.2623 18.134 26.2053 17.7939C26.1569 17.5041 26.0558 17.0771 26.0499 16.8159C25.8691 16.9485 25.4153 18.1691 25.4153 18.312Z" fill="#E63534"/>
<path fill-rule="evenodd" clip-rule="evenodd" d="M15.3516 18.2214C15.8855 18.3458 15.781 18.575 15.9473 19.575C16.0402 20.1337 16.1383 20.7048 16.2209 21.2963C16.4147 22.685 16.8304 25.2528 16.8178 26.558C16.8051 27.8826 13.9783 28.4217 12.7675 28.4217C11.906 28.4217 11.2345 28.3246 10.6095 27.9503C8.44669 26.6552 10.7809 23.1995 10.8634 22.8456C10.7309 22.8147 10.6535 22.7664 10.5461 22.7095C10.2042 23.3556 9.86387 23.9618 9.57473 24.6848C9.13714 25.779 8.61319 27.6457 9.42437 28.7727C9.5596 28.9606 9.68988 29.105 9.86505 29.2388C10.4201 29.6631 11.1339 29.8824 11.8672 29.9566C13.1211 30.0836 15.4067 29.9667 16.4261 29.1336C16.7885 28.8374 17.0318 28.5872 17.2409 28.1349C17.7473 27.0393 17.5694 25.5052 17.4447 24.3339C17.3748 23.6764 17.3243 23.1078 17.2305 22.4627L16.8399 19.7253C16.8057 19.4828 16.7172 19.0569 16.7117 18.8107C16.8283 18.8666 17.0513 18.9335 17.2104 18.9467C17.3545 18.3279 17.437 18.0164 17.437 17.224C17.3513 17.2041 16.2822 16.7606 16.1391 16.5272C16.0354 16.358 16.0637 16.1612 15.9863 16C15.7837 16.0168 15.8216 16.0204 15.6812 16.375C15.4578 16.9395 15.3516 17.5659 15.3516 18.2214Z" fill="#E63534"/>
<path fill-rule="evenodd" clip-rule="evenodd" d="M18.6152 17.5869C18.6152 18.6177 19.2297 19.4325 20.0471 19.9631C21.8414 21.1277 20.7836 19.2294 22.1887 20.179C22.8966 20.6574 23.9283 22.0801 24.3708 22.8477C24.4789 23.035 24.5716 23.3604 24.7355 23.4804C24.7534 23.2653 24.8261 23.138 24.8261 22.891C24.8261 21.5356 24.1111 20.7153 23.4593 19.9056C22.6177 18.8603 21.3189 18.0366 20.1267 17.4354C19.8869 17.3145 18.9723 16.8556 18.7213 17.2396C18.6902 17.2871 18.6152 17.5367 18.6152 17.5869Z" fill="#E63534"/>
</svg>
