<svg width="36" height="36" viewBox="0 0 36 36" fill="none" xmlns="http://www.w3.org/2000/svg">
<path fill-rule="evenodd" clip-rule="evenodd" d="M17.7253 0.702637C21.2178 0.702637 24.4721 1.72457 27.2059 3.48472L24.669 6.02168C22.6209 4.85501 20.2508 4.18804 17.7253 4.18804C9.96503 4.18804 3.67508 10.4782 3.67508 18.2385C3.67508 20.764 4.34161 23.1342 5.50828 25.1821L2.98104 27.7094C2.57746 27.0884 2.25585 26.5129 2.00701 26.021C0.843774 23.6759 0.189453 21.034 0.189453 18.2385C0.189453 8.5536 8.04013 0.702637 17.7253 0.702637ZM31.8284 7.81734C31.8622 7.86253 31.8953 7.90744 31.9279 7.9532L31.9285 7.95432L31.9442 7.97555C31.9751 8.01873 32.0059 8.06159 32.0363 8.10392L32.0973 8.19062L32.1339 8.24268C34.1051 11.0786 35.2609 14.5231 35.2609 18.2385C35.2609 27.9233 27.4101 35.774 17.7253 35.774C13.8217 35.774 10.2173 34.4983 7.30416 32.3414L7.29567 32.35C6.25599 31.5755 5.37361 30.7297 4.63167 29.8877L7.09434 27.425L8.39058 26.1288V26.8401H12.8046L9.80213 29.8428C12.0582 31.3858 14.7856 32.2888 17.7253 32.2888C25.4852 32.2888 31.7755 25.9987 31.7755 18.2385C31.7755 15.2991 30.8724 12.5715 29.3296 10.3154L27.8836 11.7613L27.8613 9.50485L25.0297 9.48966L26.9121 7.60741L29.3805 5.13883L29.3948 5.12452C30.373 6.00804 31.1777 6.93612 31.8284 7.81734Z" fill="#E63534"/>
<path d="M21.1531 13.9226H9.31641V25.6976H21.1531V13.9226Z" fill="#E63534"/>
<path fill-rule="evenodd" clip-rule="evenodd" d="M10.5469 13.0553L14.3585 10.5764H26.0093L21.578 13.0862L10.5469 13.0553Z" fill="#E63534"/>
<path fill-rule="evenodd" clip-rule="evenodd" d="M22.1055 13.9846V25.1399L26.8464 22.5369V11.1184L22.1055 13.9846Z" fill="#E63534"/>
</svg>
