<svg width="36" height="36" viewBox="0 0 36 36" fill="none" xmlns="http://www.w3.org/2000/svg">
<path d="M14.5832 14.1946C11.0445 16.2359 11.2477 19.5607 11.3695 20.7908C15.9401 15.4084 22.7769 15.6695 22.7769 15.6695C22.7769 15.6695 13.0856 18.9742 10.2392 25.6011C10.0144 26.1243 11.2939 26.8046 11.5859 26.1861C12.4575 24.3432 13.672 22.9609 13.672 22.9609C15.4639 23.6238 18.5636 24.4006 20.7606 22.8637C23.6788 20.8221 23.3805 16.2964 27.5464 14.0928C28.5194 13.5784 19.3807 11.427 14.5832 14.1946Z" fill="#E63534"/>
<path d="M35.1878 18.108C35.1878 27.7208 27.3951 35.5134 17.7824 35.5134C8.16962 35.5134 0.376953 27.7208 0.376953 18.108C0.376953 8.4953 8.16962 0.702637 17.7824 0.702637C27.3951 0.702637 35.1878 8.4953 35.1878 18.108ZM3.5816 18.108C3.5816 25.9509 9.9395 32.3088 17.7824 32.3088C25.6252 32.3088 31.9831 25.9509 31.9831 18.108C31.9831 10.2652 25.6252 3.90728 17.7824 3.90728C9.9395 3.90728 3.5816 10.2652 3.5816 18.108Z" fill="#E63534"/>
</svg>
