<svg width="46" height="46" viewBox="0 0 46 46" fill="none" xmlns="http://www.w3.org/2000/svg">
<path d="M46 23C46 35.7025 35.7025 46 23 46C10.2975 46 0 35.7025 0 23C0 10.2975 10.2975 0 23 0C35.7025 0 46 10.2975 46 23ZM4.23471 23C4.23471 33.3638 12.6362 41.7653 23 41.7653C33.3638 41.7653 41.7653 33.3638 41.7653 23C41.7653 12.6362 33.3638 4.23471 23 4.23471C12.6362 4.23471 4.23471 12.6362 4.23471 23Z" fill="#E63534"/>
<path fill-rule="evenodd" clip-rule="evenodd" d="M39.4315 9.59558C39.5275 9.56487 39.6251 9.49881 39.7364 9.45936C39.8689 9.41239 40.3207 9.2715 40.1541 9.0519C40.0771 8.95043 39.9061 9.02906 39.7815 9.02886C39.5846 9.02886 39.4393 8.99551 39.2614 9.06484C39.106 9.12544 39.0389 9.1834 38.8657 9.23545C38.5692 9.32451 38.2752 9.3935 37.9542 9.4364C37.4851 9.49923 37.3288 9.38861 37.0641 9.65864C36.9675 9.75726 36.8587 9.82881 36.7664 9.92742C36.5137 10.1981 36.2713 10.0978 35.9842 10.2578C35.8593 10.3274 35.7705 10.4022 35.653 10.4725C35.3976 10.6256 35.1522 10.6885 34.8905 10.8211C34.2766 11.1324 34.0507 11.3133 33.3219 11.4764C32.9976 11.549 32.714 11.5775 32.4228 11.6914C31.7693 11.9465 31.2589 12.3806 30.9655 12.4573C30.792 12.5024 30.6206 12.4837 30.4376 12.4998C29.7255 12.5624 28.984 12.9176 28.4259 13.2554C28.0747 13.468 28.0648 13.5748 27.8905 13.573C27.5678 13.5695 27.1448 13.4034 26.6766 13.4026C26.1981 13.4016 25.6036 13.6117 25.2567 13.8081C25.0133 13.946 24.8882 14.1448 24.718 14.0928C24.5432 14.0393 24.201 13.9603 24.0528 13.8886C24.2299 13.7692 24.4672 13.7712 24.4672 13.4884C24.4674 13.3538 24.4273 13.2688 24.4099 13.1442C24.3885 12.9937 24.4352 12.9011 24.4248 12.7826C24.4167 12.6885 24.3779 12.6789 24.3673 12.6478C24.3474 12.5884 24.3843 12.5826 24.3768 12.4982C24.3644 12.3593 24.2625 12.4441 24.2497 12.2345C24.3298 12.181 24.3938 12.1901 24.386 12.0352C24.3777 11.8715 24.1298 11.7351 23.9234 11.4887C23.5985 11.1001 24.2098 11.4199 23.7665 10.5545C23.7252 10.474 23.6929 10.4171 23.6453 10.3315C23.5766 10.2085 23.5686 10.2521 23.5649 10.0913C23.5495 9.44875 22.8356 9.35769 22.288 9.35769C21.5786 9.35769 20.8478 9.45368 20.3586 9.83982L20.0722 10.0992C20.0154 10.1525 19.9042 10.3058 19.845 10.3981C19.1053 11.5516 20.0378 12.1151 20.0382 13.1647C20.0382 13.4039 20.0402 13.574 20.1376 13.778C20.2008 13.91 20.3009 14.0216 20.37 14.1357C20.3043 14.2036 19.6989 14.5227 19.5614 14.6039C19.3081 14.7537 19.3792 14.7013 19.0622 14.6499C18.2291 14.5149 17.8177 14.6487 17.0458 15.0002C16.9281 15.0539 16.7748 15.1511 16.6658 15.1814C16.4954 15.0513 16.485 14.9968 16.2507 14.8735C15.3902 14.4205 14.8022 15.0736 14.7148 15.1177C14.7463 14.4723 14.5931 14.2184 14.5931 13.8119C14.5931 13.5291 14.7034 12.9746 14.7923 12.707C14.9521 12.7859 15.1103 12.9087 15.3064 12.9661C15.4572 13.01 15.5894 12.9607 15.6846 12.9925C15.7936 13.0286 15.8301 13.0907 15.9818 13.0472C16.188 12.9878 16.3102 12.8772 16.4682 12.7448C16.6364 12.6039 16.7766 12.5952 16.777 12.2749C16.7772 12.0449 16.7345 11.7482 16.6843 11.5288C16.6322 11.3019 16.5392 11.1824 16.3375 11.1069C16.0756 11.0087 15.3088 10.9046 15.0077 10.9046C14.0547 10.9046 13.9781 11.5535 13.6581 12.2802C13.3925 12.8833 13.0272 13.3837 12.7582 13.9902C12.5758 14.4012 12.4131 14.804 12.2875 15.2578C12.2503 15.3926 12.0056 16.5462 12.0003 16.7042C11.9864 17.1277 12.5205 17.4996 12.7748 17.6633C13.0056 17.8117 13.2015 17.7458 13.4414 17.8656C13.6419 17.9656 13.7786 18.0543 14.0266 18.1498C14.3764 18.2847 15.0009 18.4785 15.4118 18.4787C15.9476 18.4789 16.4796 18.343 16.917 18.0675C17.0067 18.0112 17.2175 17.8739 17.2636 17.8253C17.4985 18.4227 17.39 18.5303 17.8817 19.0069C18.1776 19.2936 18.5096 19.5901 18.7111 19.9569C19.0602 20.5931 19.4767 21.1706 19.9201 21.7408C20.0149 21.8626 20.1171 21.941 20.1535 22.0949C20.2112 22.3381 20.311 22.5388 20.4078 22.7531C20.4786 22.9099 20.0938 23.3518 20.0938 23.8835C20.0936 24.3294 20.2924 24.8389 20.3624 25.2832C20.4466 25.818 20.2206 25.9107 20.0534 26.5224C19.9335 26.962 19.8335 27.3444 19.6942 27.761C19.5603 28.1618 19.4278 28.5512 19.341 28.9851C18.8973 31.2039 18.9765 31.6765 18.856 33.6917C18.845 33.8739 18.8503 33.8591 18.773 33.9986C18.6653 34.1938 18.5905 34.328 18.4671 34.4823C18.2442 34.7606 17.9688 35.0264 17.8625 35.475C17.65 36.3703 17.628 39.9262 17.3689 40.5637C17.313 40.7015 17.1876 41.0028 17.1181 41.1008C16.9985 41.269 16.8268 41.3357 16.7168 41.489C16.3226 42.0384 15.9161 42.149 15.395 42.5532C15.1599 42.7354 15.0245 43.0589 15.0689 43.3786C15.0868 43.5073 15.1534 43.539 15.2906 43.5408C15.3787 43.5817 15.3001 43.5788 15.384 43.6299C15.4381 43.6628 15.4611 43.6454 15.5184 43.6755C15.7368 43.7901 15.7331 43.867 16.0779 43.8013C16.2324 43.772 16.2244 43.7684 16.3108 43.6712C16.4598 43.5034 16.637 43.6476 16.8401 43.4723C16.9706 43.3598 17.052 43.1968 17.174 43.0782C17.4064 42.8523 17.7492 42.664 17.9881 42.4363C18.7811 41.6807 18.4562 41.1185 18.7268 40.2621C18.8443 39.8906 19.012 39.5827 19.1533 39.2332C19.349 38.7496 19.5327 38.1334 19.7905 37.6858C19.8401 37.5996 19.9047 37.5693 19.9718 37.5039C20.9134 36.5834 20.1894 36.0524 20.2844 35.6925C20.3306 35.5181 20.8977 34.6703 21.0583 34.282C21.368 33.5337 21.739 33.1142 21.9571 32.27C22.1239 31.6258 21.9712 31.8158 22.3484 31.2042C22.5271 30.9142 22.7004 30.5782 22.8586 30.2574C23.0319 29.9062 23.1428 29.6147 23.2802 29.2428C23.3331 29.3219 24.5567 32.9137 24.6016 33.0569C24.7407 33.4985 24.7486 33.6877 24.7825 34.1728C24.799 34.4075 24.7146 34.4566 24.6113 34.6203C24.5251 34.757 24.4491 34.8688 24.3649 35.0008C23.91 35.7118 23.7694 36.0531 23.7694 36.9683C23.7694 37.9341 24.0509 37.8037 23.9991 38.3595C23.9423 38.966 23.7709 40.3457 23.6528 40.9221C23.5674 41.3389 23.3352 41.6713 23.3346 42.0646C23.334 42.5416 23.5377 42.7053 23.9868 42.7525C24.388 42.7944 24.764 42.7879 25.1341 42.9191C25.4818 43.0421 25.5918 43.2525 26.0519 43.3143C26.2561 43.342 26.4242 43.3682 26.6133 43.4229C26.7744 43.4694 27.3485 43.6103 27.5256 43.4589C27.5816 43.4111 27.5383 43.4211 27.6162 43.369C27.8828 43.1911 27.6597 43.0372 27.5198 42.8796C27.4628 42.8158 27.2563 42.5817 27.1782 42.5335C27.0802 42.4731 26.7998 42.3987 26.6721 42.3521C26.3171 42.2226 26.0184 42.0456 25.8064 41.8428C25.601 41.647 25.2905 41.4532 25.2913 40.9926C25.2944 39.4719 26.6725 37.4806 26.8313 35.3487C26.8449 35.1651 26.8361 34.9495 26.8716 34.7747C26.9532 34.3737 27.0769 34.3054 27.092 33.8137C27.0979 33.6206 27.1465 33.4441 27.1469 33.2672C27.1455 32.7239 26.9188 32.7214 27.3256 32.0356C27.8517 31.1485 27.9054 30.4215 27.9051 29.3843C27.9049 27.3682 27.0952 26.6285 26.8422 25.0923C26.7784 24.7047 26.7289 24.3313 26.5776 24.0021C26.3856 23.5844 26.3361 23.4815 26.2918 22.9535C26.241 22.3473 26.2165 21.7336 26.1106 21.1323C26.0048 20.5335 25.9276 20.5722 26.2311 20.0401C26.4877 19.5903 26.6098 19.0628 26.7946 18.5811C26.9221 18.2489 27.0591 17.9411 27.1838 17.6155C27.2464 17.4516 27.3048 17.2802 27.3625 17.1066C27.4091 16.9667 27.4692 16.7074 27.521 16.5966C27.5395 16.5921 28.3205 16.5897 28.6518 16.5368C29.022 16.4775 29.2382 16.3859 29.5224 16.233C29.6575 16.1602 29.7764 16.0743 29.8885 15.9925C30.6318 15.4496 30.5432 15.2091 30.9922 14.7304C31.2142 14.4935 31.5337 14.5002 31.8387 14.4036C32.0618 14.3329 32.0621 14.2743 32.2057 14.184C32.4161 14.0517 33.1476 13.9626 33.9135 13.5262C34.1811 13.3737 34.409 13.2229 34.6312 13.0504C35.2227 12.5921 35.3029 12.4497 35.8504 11.9032C36.0399 11.7141 36.2488 11.5236 36.4627 11.3422C36.6109 11.2161 36.7455 11.2434 36.9543 11.2285C37.51 11.1887 37.7744 11.008 38.1677 10.6812C38.3781 10.5065 38.5859 10.3422 38.8444 10.185C39.1626 9.99164 39.4884 9.91766 39.4315 9.59558Z" fill="#E63534"/>
</svg>
