<svg width="46" height="46" viewBox="0 0 46 46" fill="none" xmlns="http://www.w3.org/2000/svg">
<path d="M46 23C46 35.7025 35.7025 46 23 46C10.2975 46 0 35.7025 0 23C0 10.2975 10.2975 0 23 0C35.7025 0 46 10.2975 46 23ZM4.23471 23C4.23471 33.3638 12.6362 41.7653 23 41.7653C33.3638 41.7653 41.7653 33.3638 41.7653 23C41.7653 12.6362 33.3638 4.23471 23 4.23471C12.6362 4.23471 4.23471 12.6362 4.23471 23Z" fill="#E63534"/>
<path fill-rule="evenodd" clip-rule="evenodd" d="M18.53 21.7537C19.2945 21.246 18.8728 22.1882 20.6411 22.5468C21.5269 22.7265 21.5993 22.5145 21.62 22.8638C21.6641 23.6113 21.6683 24.2102 21.5184 24.9565C21.2744 26.1714 21.1494 25.9546 20.7245 26.1379C20.2887 26.3259 19.9282 26.6474 19.7239 27.0889C19.0272 27.0575 18.6028 26.6426 18.5215 26.0088C18.4765 25.6563 18.0251 25.5153 18.0234 24.2606C18.0221 23.2543 18.3766 22.9113 18.4122 22.7337L18.53 21.7537ZM13.3042 15.2949C13.0037 15.2835 12.9172 15.3313 12.7675 15.4947C12.3803 15.9164 12.6966 15.8246 12.4508 15.9489C12.4833 16.2113 12.5222 16.3498 12.5301 16.6448C12.5432 17.1335 12.5166 17.6228 12.5409 18.1078C12.5535 18.354 12.6143 18.5786 12.6147 18.7837C12.4209 18.9367 11.9692 19.1182 11.7007 19.2263C10.1767 19.8393 10.585 20.2133 10.0425 20.3316C9.31707 20.4901 8.78214 20.8602 8.51857 21.5746C8.39588 21.9067 8.37082 22.6058 8.26971 22.7099C7.69865 23.2977 7.90971 24.0846 7.56753 24.7651C6.89761 26.0974 6.84012 27.9986 7.29317 29.4054C7.57344 30.276 7.97105 31.0522 8.20067 31.9404C8.28716 32.2752 8.17666 32.1806 8.06936 32.461C7.87238 32.9761 7.96132 33.0396 7.46831 33.2248C7.31391 33.2827 7.42609 34.3474 7.52796 34.4366L7.70618 34.4885C7.94518 34.5236 8.90299 34.5326 8.97672 34.5986C9.04913 34.7401 9.07486 36.4966 9.02083 36.6796C8.09259 36.7663 7.48771 36.4292 7.35076 37.3183C7.29974 37.651 7.23809 38.0893 7.47446 38.2685C7.58927 38.3554 7.72934 38.4098 7.82577 38.5027C8.02894 38.699 7.85234 38.7978 7.97878 38.9326C8.08065 39.0324 10.5498 38.9913 10.6582 38.9328L10.8694 38.5578C11.3131 38.0926 11.5132 38.2636 11.3761 37.3571C11.3145 36.9504 11.3464 36.7968 10.8628 36.7069C10.4951 36.6385 10.0558 36.7136 9.68344 36.6809L9.66658 34.5756C9.9416 34.5169 10.4644 34.5115 10.9464 34.4156C11.1991 34.3653 11.3202 34.387 11.3425 34.1133C11.3616 33.8777 11.3359 33.608 11.338 33.3663C11.341 32.9998 11.3042 33.0708 11.1234 32.8822C10.9392 32.6901 10.9564 32.4854 10.8696 32.3886C10.7322 32.2357 10.1152 32.01 9.90401 31.8909C9.19714 31.4924 9.14526 30.5066 9.14995 29.7373C9.15314 29.1925 9.36597 28.9798 9.28362 28.4557C9.21533 28.0206 9.02864 27.6711 9.08004 27.2096L9.66248 26.6923C10.4172 25.925 10.6768 24.8974 10.9296 24.589C11.1767 24.632 11.6449 25.052 11.756 25.1873C12.1227 25.6344 12.3101 26.0987 12.6022 26.4824C13.3126 27.4156 12.8827 27.2722 12.813 28.1159C12.737 29.0329 13.0296 29.9587 12.6871 30.8106C12.6051 31.0143 12.681 31.1782 12.7127 31.4171C12.8043 32.1086 12.7428 32.862 12.7346 33.5616C12.7064 35.9295 13.239 36.2899 14.3856 37.7012C14.5386 37.8894 14.5927 37.8971 14.9193 37.8507C15.6874 37.7416 15.4829 37.43 15.9986 36.7646C16.1089 36.6222 16.2382 36.532 16.3857 36.4378C16.5769 36.3155 16.6728 36.2462 16.9066 36.3193C17.3125 36.4466 17.9179 36.3815 18.0959 36.0894C18.1139 35.7288 17.8638 35.6432 17.7275 35.3772C17.4571 34.8503 17.8149 33.833 17.5004 33.5267C17.1539 33.189 16.8794 33.5456 16.6453 33.4749C16.6469 33.3069 16.8953 33.0125 16.8431 32.1398C16.827 31.8677 16.6701 30.8794 16.6998 30.7282C17.0213 30.7306 17.7447 31.0679 18.0687 31.1862C18.6797 31.4096 18.8943 31.4604 19.6565 31.4451C19.6372 31.7765 19.6001 32.1408 19.5667 32.4781C19.532 32.8293 19.5496 33.1914 19.5272 33.5418C19.4807 34.2704 19.4893 34.9434 19.4053 35.6466C19.3676 35.9636 19.326 36.3161 19.2538 36.615C19.2016 36.8308 18.9924 37.0125 18.8995 37.348C18.8168 37.6461 18.8605 38.1006 19.0858 38.2002C19.1329 38.221 19.4591 38.2928 19.5242 38.31C19.7326 38.3649 19.8702 38.336 20.07 38.3674C20.1818 38.5165 20.2306 38.7141 20.3899 38.8169C20.7906 39.0756 22.1013 39.0765 22.275 38.7144C22.3397 38.4038 22.1031 38.2984 21.8776 38.2109C21.5413 38.0804 21.5499 38.1365 21.3124 37.8323C21.1484 37.6222 21.0207 37.5128 20.8692 37.3351C20.6831 37.1169 20.6251 37.023 20.6105 36.6417C20.5696 35.5771 21.263 34.8146 21.7044 33.9584L22.3156 32.6897C22.6971 31.8843 22.606 30.1213 22.6077 29.2185C22.6088 28.5402 22.0155 28.5152 21.9804 27.9429C22.5567 27.5939 22.2057 27.139 22.3623 26.5041C22.6317 25.4118 23.7151 24.5931 23.9622 22.6693C24.135 21.3222 23.7089 20.7231 22.8225 20.188C22.4509 19.9635 22.0676 19.7253 21.6489 19.5405C21.0026 19.2553 20.74 19.3824 20.0374 19.3175C19.5823 18.6316 18.6117 18.4407 17.7279 18.5566C17.5315 18.5824 17.3367 18.663 17.1973 18.6785C17.1518 18.6835 16.2758 18.4318 16.2019 18.395C16.1657 18.1176 16.4732 17.6083 16.3011 17.2943C16.1475 17.0137 16.01 17.3752 15.9783 16.3532C15.9691 16.055 15.9903 15.8334 15.7858 15.6926C14.9456 15.1138 14.9332 14.9314 13.923 15.022C13.7992 15.0333 13.6746 15.0491 13.5588 15.0768C13.3371 15.1299 13.4271 15.1629 13.3042 15.2949Z" fill="#E63534"/>
<path fill-rule="evenodd" clip-rule="evenodd" d="M42.6141 11.3276C42.7101 11.2969 38.8356 14.9873 42.919 11.1913C43.0516 11.1444 38.5314 8.71549 38.3649 8.49589C38.2878 8.39443 38.1168 8.47306 37.9922 8.47286C37.7954 8.47286 37.65 8.4395 37.4721 8.50884C37.3167 8.56943 36.8885 7.64427 39.0331 7C38.7366 7.08906 41.4579 11.1255 41.1368 11.1684C40.6677 11.2312 40.5115 11.1206 40.2467 11.3906C40.1501 11.4892 38.0578 9.24379 37.9655 9.34241C37.7127 9.61304 39.4539 11.8298 39.1668 11.9898C39.042 12.0594 38.9531 12.1342 38.8356 12.2045C38.5802 12.3576 39.316 11.3939 39.0543 11.5264C38.4405 11.8377 41.0507 9.31357 40.3219 9.47664C39.9976 9.54923 39.714 9.5777 39.4228 9.69157C38.7693 9.94675 38.2589 10.3808 37.9655 10.4575C37.792 10.5026 37.6206 10.4839 37.4376 10.5C36.7255 10.5626 35.984 10.9178 35.4259 11.2556C35.0747 11.4683 35.0648 11.575 34.8905 11.5732C34.5678 11.5698 34.1448 11.4036 33.6766 11.4028C33.1981 11.4018 32.6036 11.6119 32.2567 11.8083C32.0133 11.9462 31.8882 12.145 31.718 12.093C31.5432 12.0395 31.201 11.9605 31.0528 11.8888C31.2299 11.7694 31.4672 11.7715 31.4672 11.4886C31.4674 11.354 31.4273 11.269 31.4099 11.1444C31.3885 10.9939 31.4352 10.9014 31.4248 10.7828C31.4167 10.6887 31.3779 10.6791 31.3673 10.648C31.3474 10.5887 31.3843 10.5828 31.3768 10.4984C31.3644 10.3595 31.2625 10.4443 31.2497 10.2347C31.3298 10.1812 31.3938 10.1904 31.386 10.0354C31.3777 9.87173 31.1298 9.73531 30.9234 9.48887C30.5985 9.1003 31.2098 9.42012 30.7665 8.55472C30.7252 8.4742 30.6929 8.4173 30.6453 8.33169C30.5766 8.20867 30.5686 8.25234 30.5649 8.0915C30.5495 7.44897 29.8356 7.35791 29.288 7.35791C28.5786 7.35791 27.8478 7.4539 27.3586 7.84004L27.0722 8.09945C27.0154 8.15272 26.9042 8.30602 26.845 8.39833C26.1053 9.55185 27.0378 10.1153 27.0382 11.165C27.0382 11.4041 27.0402 11.5743 27.1376 11.7782C27.2009 11.9102 27.3009 12.0218 27.37 12.1359C27.3043 12.2038 26.6989 12.523 26.5614 12.6041C26.3081 12.754 26.3792 12.7015 26.0622 12.6501C25.2291 12.5151 24.8177 12.6489 24.0458 13.0004C23.9281 13.0541 23.7748 13.1513 23.6658 13.1816C23.4954 13.0515 23.485 12.997 23.2507 12.8738C22.3902 12.4207 21.8022 13.0738 21.7148 13.1179C21.7463 12.4725 21.5931 12.2186 21.5931 11.8121C21.5931 11.5293 21.7034 10.9748 21.7923 10.7072C21.9521 10.7861 22.1103 10.909 22.3064 10.9663C22.4572 11.0102 22.5894 10.961 22.6846 10.9927C22.7936 11.0289 22.8301 11.0909 22.9818 11.0474C23.188 10.988 23.3102 10.8774 23.4682 10.745C23.6364 10.6041 23.7766 10.5954 23.777 10.2751C23.7772 10.0452 23.7345 9.74846 23.6843 9.52906C23.6322 9.30214 23.5392 9.18258 23.3375 9.10714C23.0756 9.00893 22.3088 8.90484 22.0077 8.90484C21.0547 8.90484 20.9781 9.55373 20.6581 10.2804C20.3925 10.8835 20.0272 11.3839 19.7582 11.9904C19.5758 12.4014 19.4131 12.8042 19.2875 13.258C19.2503 13.3928 19.0056 14.5464 19.0003 14.7044C18.9864 15.1279 19.5205 15.4998 19.7748 15.6635C20.0056 15.8119 20.2015 15.746 20.4414 15.8658C20.6419 15.9658 20.7786 16.0545 21.0266 16.1501C21.3764 16.2849 22.0009 16.4787 22.4118 16.4789C22.9476 16.4791 23.4796 16.3432 23.917 16.0677C24.0067 16.0114 24.2175 15.8741 24.2636 15.8255C24.4985 16.4229 24.39 16.5305 24.8817 17.0072C25.1776 17.2939 25.5096 17.5903 25.7111 17.9571C26.0602 18.5933 26.4767 19.1708 26.9201 19.741C27.0149 19.8628 27.1171 19.9412 27.1535 20.0951C27.2112 20.3383 27.311 20.539 27.4078 20.7534C27.4786 20.9101 27.0938 21.352 27.0938 21.8837C27.0936 22.3296 27.2924 22.8392 27.3624 23.2834C27.4466 23.8182 27.2206 23.911 27.0534 24.5226C26.9335 24.9622 26.8335 25.3446 26.6942 25.7613C26.5603 26.162 26.4278 26.5514 26.341 26.9853C25.8973 29.2041 25.9765 29.6767 25.856 31.692C25.845 31.8741 25.8503 31.8593 25.773 31.9988C25.6653 32.194 25.5905 32.3282 25.4671 32.4825C25.2442 32.7609 24.9688 33.0266 24.8625 33.4752C24.65 34.3705 24.628 37.9264 24.3689 38.5639C24.313 38.7017 24.1876 39.003 24.1181 39.101C23.9985 39.2692 23.8268 39.3359 23.7168 39.4892C23.3226 40.0386 22.9161 40.1492 22.395 40.5534C22.1599 40.7356 22.0245 41.0591 22.0689 41.3788C22.0868 41.5075 22.1534 41.5392 22.2906 41.541C22.3787 41.5819 22.3001 41.5791 22.384 41.6301C22.4381 41.663 22.4611 41.6456 22.5184 41.6757C22.7368 41.7904 22.7331 41.8672 23.0779 41.8015C23.2324 41.7722 23.2244 41.7686 23.3108 41.6714C23.4598 41.5036 23.637 41.6478 23.8401 41.4725C23.9706 41.3601 24.052 41.197 24.174 41.0785C24.4064 40.8526 24.7492 40.6643 24.9881 40.4365C25.7811 39.6809 25.4562 39.1187 25.7268 38.2623C25.8443 37.8908 26.012 37.5829 26.1533 37.2334C26.349 36.7499 26.5327 36.1336 26.7905 35.6861C26.8401 35.5998 26.9047 35.5696 26.9718 35.5041C27.9134 34.5836 27.1894 34.0526 27.2844 33.6927C27.3306 33.5183 27.8977 32.6706 28.0583 32.2822C28.368 31.5339 28.739 31.1145 28.9571 30.2702C29.1239 29.626 28.9712 29.816 29.3484 29.2044C29.5271 28.9144 29.7004 28.5785 29.8586 28.2576C30.0319 27.9064 30.1428 27.6149 30.2802 27.243C30.3331 27.3221 31.5567 30.9139 31.6016 31.0571C31.7407 31.4987 31.7486 31.6879 31.7825 32.1731C31.799 32.4077 31.7146 32.4569 31.6113 32.6205C31.5251 32.7572 31.4491 32.869 31.3649 33.001C30.91 33.7121 30.7694 34.0533 30.7694 34.9685C30.7694 35.9343 31.0509 35.804 30.9991 36.3597C30.9423 36.9662 30.7709 38.3459 30.6528 38.9223C30.5674 39.3392 30.3352 39.6716 30.3346 40.0648C30.334 40.5418 30.5377 40.7056 30.9868 40.7527C31.388 40.7946 31.764 40.7881 32.1341 40.9193C32.4818 41.0423 32.5918 41.2527 33.0519 41.3145C33.2561 41.3422 33.4242 41.3684 33.6133 41.4231C33.7744 41.4697 34.3485 41.6106 34.5256 41.4591C34.5816 41.4113 34.5383 41.4213 34.6162 41.3692C34.8828 41.1913 34.6597 41.0374 34.5198 40.8798C34.4628 40.816 34.2563 40.5819 34.1782 40.5338C34.0802 40.4734 33.7998 40.3989 33.6721 40.3523C33.3171 40.2228 33.0184 40.0458 32.8064 39.843C32.601 39.6472 32.2905 39.4534 32.2913 38.9929C32.2944 37.4721 33.6725 35.4809 33.8313 33.3489C33.8449 33.1653 33.8361 32.9497 33.8716 32.7749C33.9532 32.3739 34.0769 32.3056 34.092 31.814C34.0979 31.6208 34.1465 31.4443 34.1469 31.2674C34.1455 30.7241 33.9188 30.7217 34.3256 30.0358C34.8517 29.1487 34.9054 28.4217 34.9051 27.3845C34.9049 25.3685 34.0952 24.6287 33.8422 23.0925C33.7784 22.7049 33.7289 22.3315 33.5776 22.0023C33.3856 21.5846 33.3361 21.4817 33.2918 20.9537C33.241 20.3475 33.2165 19.7338 33.1106 19.1326C33.0048 18.5337 32.9276 18.5724 33.2311 18.0403C33.4877 17.5905 33.6098 17.0631 33.7946 16.5814C33.9221 16.2491 34.0591 15.9413 34.1838 15.6158C34.2464 15.4519 34.3048 15.2804 34.3625 15.1068C34.4091 14.9669 34.4692 14.7076 34.521 14.5968C34.5395 14.5923 35.3205 14.5899 35.6518 14.537C36.022 14.4777 36.2382 14.3861 36.5225 14.2332C36.6575 14.1604 36.7764 14.0745 36.8885 13.9927C37.6318 13.4498 37.5432 13.2093 37.9922 12.7306C38.2142 12.4937 38.5337 12.5004 38.8387 12.4039C39.0618 12.3331 39.0621 12.2745 39.2057 12.1842C39.4161 12.0519 40.1476 11.9628 40.9135 11.5264C41.1811 11.3739 41.409 11.2231 41.6312 11.0507C42.2227 10.5923 39.9524 13.5466 40.5 13C40.6895 12.8109 39.7861 13.1814 40 13C40.1482 12.8739 39.9281 12.9754 40.137 12.9605C40.6927 12.9207 40.957 12.7399 41.3503 12.4132C41.5607 12.2385 41.7686 12.0742 42.027 11.917C42.3452 11.7236 42.6711 11.6496 42.6141 11.3276Z" fill="#E63534"/>
</svg>
