<svg width="46" height="46" viewBox="0 0 46 46" fill="none" xmlns="http://www.w3.org/2000/svg">
<path d="M46 23C46 35.7025 35.7025 46 23 46C10.2975 46 0 35.7025 0 23C0 10.2975 10.2975 0 23 0C35.7025 0 46 10.2975 46 23ZM4.23471 23C4.23471 33.3638 12.6362 41.7653 23 41.7653C33.3638 41.7653 41.7653 33.3638 41.7653 23C41.7653 12.6362 33.3638 4.23471 23 4.23471C12.6362 4.23471 4.23471 12.6362 4.23471 23Z" fill="#E63534"/>
<path fill-rule="evenodd" clip-rule="evenodd" d="M25.8865 17.5762C26.7409 17.0067 26.2696 18.0636 28.2459 18.4659C29.236 18.6674 29.3169 18.4297 29.34 18.8216C29.3893 19.66 29.394 20.3318 29.2265 21.169C28.9537 22.5319 28.814 22.2887 28.3391 22.4944C27.8521 22.7053 27.4492 23.0659 27.2209 23.5612C26.4421 23.5259 25.9678 23.0605 25.877 22.3495C25.8267 21.9541 25.3221 21.7959 25.3202 20.3884C25.3188 19.2596 25.715 18.8748 25.7548 18.6756L25.8865 17.5762ZM20.0459 10.3308C19.71 10.318 19.6134 10.3717 19.4461 10.555C19.0133 11.028 19.3667 10.925 19.0921 11.0645C19.1284 11.3588 19.1719 11.5142 19.1807 11.8451C19.1954 12.3934 19.1656 12.9422 19.1928 13.4863C19.2069 13.7624 19.2748 14.0145 19.2752 14.2445C19.0586 14.4162 18.5538 14.6198 18.2537 14.741C16.5504 15.4287 17.0068 15.8482 16.4005 15.981C15.5897 16.1588 14.9918 16.5739 14.6972 17.3753C14.5601 17.7478 14.5321 18.532 14.4191 18.6488C13.7808 19.3082 14.0167 20.191 13.6343 20.9544C12.8856 22.4489 12.8213 24.5816 13.3277 26.1598C13.6409 27.1365 14.0853 28.0072 14.3419 29.0035C14.4386 29.3791 14.3151 29.273 14.1952 29.5875C13.975 30.1653 14.0744 30.2366 13.5234 30.4444C13.3508 30.5094 13.4762 31.7037 13.5901 31.8037L13.7893 31.8619C14.0564 31.9013 15.1269 31.9114 15.2093 31.9854C15.2902 32.1441 15.319 34.1146 15.2586 34.3199C14.2211 34.4172 13.5451 34.039 13.392 35.0364C13.335 35.4096 13.2661 35.9012 13.5303 36.1023C13.6586 36.1998 13.8152 36.2608 13.9229 36.365C14.15 36.5852 13.9526 36.6961 14.0939 36.8473C14.2078 36.9592 16.9674 36.9131 17.0886 36.8475L17.3246 36.4269C17.8205 35.905 18.0442 36.0968 17.8909 35.0799C17.8221 34.6237 17.8578 34.4514 17.3173 34.3505C16.9063 34.2738 16.4153 34.358 15.9991 34.3213L15.9803 31.9596C16.2877 31.8938 16.872 31.8877 17.4106 31.7802C17.6931 31.7238 17.8284 31.7481 17.8534 31.4411C17.8748 31.1767 17.846 30.8742 17.8483 30.6031C17.8517 30.1919 17.8106 30.2716 17.6085 30.0601C17.4026 29.8445 17.4219 29.6149 17.3248 29.5063C17.1713 29.3348 16.4817 29.0816 16.2457 28.948C15.4556 28.501 15.3976 27.3951 15.4029 26.5321C15.4065 25.921 15.6443 25.6823 15.5523 25.0944C15.476 24.6063 15.2673 24.2143 15.3248 23.6966L15.9757 23.1163C16.8192 22.2556 17.1093 21.1028 17.392 20.7568C17.6681 20.8051 18.1914 21.2762 18.3155 21.428C18.7254 21.9295 18.9348 22.4503 19.2613 22.8808C20.0553 23.9277 19.5748 23.7668 19.4968 24.7133C19.4119 25.7419 19.739 26.7804 19.3561 27.7361C19.2645 27.9646 19.3494 28.1485 19.3848 28.4165C19.4871 29.1922 19.4184 30.0374 19.4092 30.8222C19.3778 33.4785 19.973 33.8827 21.2545 35.4659C21.4255 35.6771 21.486 35.6857 21.851 35.6337C22.7094 35.5112 22.4809 35.1617 23.0573 34.4153C23.1806 34.2555 23.3251 34.1543 23.4899 34.0486C23.7035 33.9115 23.8108 33.8337 24.072 33.9157C24.5258 34.0585 25.2023 33.9855 25.4013 33.6578C25.4214 33.2533 25.1419 33.1573 24.9895 32.8589C24.6874 32.2678 25.0872 31.1267 24.7358 30.783C24.3485 30.4041 24.0417 30.8042 23.78 30.725C23.7819 30.5365 24.0594 30.2062 24.0011 29.2272C23.9831 28.9219 23.8078 27.8133 23.8409 27.6436C24.2003 27.6464 25.0088 28.0248 25.3709 28.1575C26.0537 28.408 26.2936 28.4651 27.1455 28.4479C27.1239 28.8197 27.0824 29.2283 27.0451 29.6067C27.0063 30.0007 27.026 30.4068 27.001 30.8C26.949 31.6173 26.9587 32.3723 26.8647 33.161C26.8226 33.5166 26.7761 33.9121 26.6954 34.2474C26.6371 34.4896 26.4032 34.6933 26.2995 35.0697C26.207 35.4041 26.2558 35.914 26.5077 36.0257C26.5603 36.049 26.9248 36.1295 26.9976 36.1488C27.2305 36.2105 27.3843 36.178 27.6076 36.2132C27.7326 36.3805 27.7872 36.6022 27.9652 36.7175C28.413 37.0077 29.8779 37.0087 30.072 36.6026C30.1444 36.2541 29.88 36.1358 29.628 36.0377C29.252 35.8913 29.2616 35.9543 28.9962 35.6129C28.8129 35.3773 28.6702 35.2546 28.5008 35.0552C28.2928 34.8105 28.2281 34.7051 28.2117 34.2774C28.166 33.0831 28.941 32.2278 29.4343 31.2673L30.1174 29.8441C30.5439 28.9406 30.442 26.9629 30.4439 25.9501C30.4451 25.1893 29.782 25.1612 29.7428 24.5192C30.3869 24.1277 29.9946 23.6174 30.1697 22.9051C30.4707 21.6798 31.6816 20.7614 31.9577 18.6033C32.1508 17.0922 31.6747 16.4201 30.684 15.8198C30.2686 15.568 29.8402 15.3008 29.3723 15.0935C28.6499 14.7735 28.3564 14.9161 27.5712 14.8433C27.0626 14.0739 25.9778 13.8598 24.99 13.9898C24.7705 14.0187 24.5528 14.109 24.397 14.1265C24.3461 14.1321 23.3671 13.8497 23.2845 13.8084C23.244 13.4973 23.5876 12.9259 23.3954 12.5737C23.2237 12.259 23.0699 12.6644 23.0345 11.518C23.0242 11.1835 23.048 10.9349 22.8194 10.777C21.8803 10.1276 21.8666 9.92303 20.7375 10.0247C20.5991 10.0373 20.4598 10.0551 20.3304 10.0861C20.0826 10.1457 20.1832 10.1828 20.0459 10.3308Z" fill="#E63534"/>
</svg>
