<svg width="47" height="47" viewBox="0 0 47 47" fill="none" xmlns="http://www.w3.org/2000/svg">
<path fill-rule="evenodd" clip-rule="evenodd" d="M23.1722 0C27.7878 0 32.0882 1.34959 35.7003 3.67589L32.3474 7.02874C29.6413 5.48707 26.5095 4.60571 23.1722 4.60571C12.918 4.60571 4.60571 12.9181 4.60571 23.1723C4.60571 26.5097 5.48663 29.6414 7.0283 32.3479L3.68873 35.6875C3.15582 34.8669 2.73059 34.1064 2.40177 33.4563C0.86426 30.3579 0 26.8661 0 23.1723C0 10.3749 10.3743 0 23.1722 0ZM41.8084 9.40113C41.8526 9.46085 41.8969 9.52101 41.9404 9.5811L41.9409 9.58258L41.9613 9.61063C42.0021 9.66732 42.0429 9.72402 42.083 9.78071L42.1633 9.89439L42.212 9.96393C44.8169 13.711 46.3441 18.2631 46.3441 23.1723C46.3441 35.9698 35.9697 46.3442 23.1722 46.3442C18.0143 46.3442 13.251 44.6586 9.40113 41.8088L9.38976 41.8197C8.01666 40.7959 6.85041 39.6783 5.87037 38.5659L9.12416 35.3122L11.1651 33.2715C12.085 34.5985 13.2348 35.7279 14.637 36.573L12.7026 38.5069C15.6831 40.5459 19.2884 41.7388 23.1722 41.7388C33.4261 41.7388 41.7384 33.4262 41.7384 23.1723C41.7384 19.2885 40.5456 15.6836 38.5069 12.7031L32.9457 18.2641L33.5981 16.1454L30.6651 15.8495C29.9742 15.78 29.2856 15.7704 28.6098 15.8263L35.312 9.12446L38.5745 5.86211L38.5928 5.8435C39.8854 7.01062 40.9485 8.23742 41.8084 9.40113Z" fill="#E63534"/>
<path fill-rule="evenodd" clip-rule="evenodd" d="M22.6138 35.5476C21.6481 35.8446 14.1462 37.0699 11.4355 28.2681C19.9032 27.414 22.9109 33.8022 22.6138 35.5476Z" fill="#E63534"/>
<path fill-rule="evenodd" clip-rule="evenodd" d="M23.7288 35.5476C24.6945 35.8446 32.1964 37.0699 34.9071 28.2681C26.4394 27.414 23.4318 33.8022 23.7288 35.5476Z" fill="#E63534"/>
<path fill-rule="evenodd" clip-rule="evenodd" d="M22.7084 28.5017C21.9045 28.7489 15.6591 29.769 13.4023 22.4416C20.4515 21.7303 22.9556 27.0485 22.7084 28.5017Z" fill="#E63534"/>
<path fill-rule="evenodd" clip-rule="evenodd" d="M23.6356 28.5017C24.4395 28.7489 30.6849 29.769 32.9417 22.4416C25.8925 21.7303 23.3885 27.0485 23.6356 28.5017Z" fill="#E63534"/>
<path fill-rule="evenodd" clip-rule="evenodd" d="M22.8279 22.7493C22.2315 22.9326 17.5966 23.6896 15.9219 18.252C21.1531 17.724 23.0116 21.671 22.8279 22.7493Z" fill="#E63534"/>
<path fill-rule="evenodd" clip-rule="evenodd" d="M23.5162 22.7493C24.1126 22.9326 28.7475 23.6896 30.4222 18.252C25.191 17.724 23.3325 21.671 23.5162 22.7493Z" fill="#E63534"/>
<path fill-rule="evenodd" clip-rule="evenodd" d="M22.8877 18.7988C22.4308 18.374 19.4579 14.7385 23.3296 10.5693C26.4024 14.836 23.9135 18.4186 22.8877 18.7988Z" fill="#E63534"/>
</svg>
