<svg width="47" height="47" viewBox="0 0 47 47" fill="none" xmlns="http://www.w3.org/2000/svg">
<path fill-rule="evenodd" clip-rule="evenodd" d="M18.4353 19.9078C18.5982 19.5684 18.7751 19.0082 19.071 18.4205C19.3118 17.9424 19.503 17.3948 19.6678 16.84C19.9592 15.8581 20.1221 15.1759 20.2631 14.1694C20.3379 13.6361 20.2718 13.3212 20.5038 13.3212H25.8383C26.0726 13.3212 26.0065 13.6648 26.0862 14.2162C26.2574 15.3977 26.4173 15.9759 26.7439 17.097C26.9907 17.9439 28.0153 19.847 28.0701 20.5065C26.9188 21.1158 26.3402 21.6494 24.7498 21.6494C22.905 21.6494 22.0255 19.8534 19.1432 19.8534C18.8325 19.8534 18.7664 19.9078 18.4353 19.9078ZM16.8025 11.4159C16.8025 12.6076 17.4814 13.0861 18.4897 13.3212C18.4897 13.9992 18.1462 15.4929 17.9527 16.1045C17.6809 16.9609 17.3804 17.7092 17.0354 18.5079C16.3142 20.178 15.877 21.6143 15.877 23.9901V34.8222C15.877 35.1658 15.999 35.6427 16.1117 35.8941C16.2791 36.2663 16.2742 36.2426 16.4824 36.503C16.5474 36.5842 16.5471 36.5982 16.6249 36.687C16.7391 36.8167 16.8456 36.8794 16.9772 36.9879C17.3105 37.263 17.9474 37.5438 18.4353 37.5438H27.9068C28.2303 37.5438 28.7202 37.3893 28.9322 37.263C29.8434 36.7188 30.4652 35.9765 30.4652 34.8222V23.9901C30.4652 19.319 28.5867 17.9817 28.0625 14.7986C27.9896 14.3568 27.8524 13.8356 27.8524 13.3212C28.1018 13.263 28.2617 13.2486 28.4892 13.1417C28.6525 13.0646 28.8921 12.9063 29.0085 12.7898C30.2119 11.5864 29.1832 9.67432 27.9068 9.67432H18.4353C17.9976 9.67432 17.5275 9.98956 17.3045 10.2307C17.0543 10.5013 16.8025 10.9132 16.8025 11.4159Z" fill="#E63534"/>
<path fill-rule="evenodd" clip-rule="evenodd" d="M23.1719 0C27.7871 0 32.0874 1.35041 35.6999 3.67633L32.3475 7.02874C29.6409 5.48707 26.5092 4.60571 23.1719 4.60571C12.9177 4.60571 4.60573 12.9177 4.60573 23.1719C4.60573 26.5092 5.48674 29.6413 7.02841 32.3474L3.68882 35.687C3.15553 34.8665 2.73033 34.1061 2.40151 33.456C0.864379 30.3571 0 26.866 0 23.1719C0 10.3744 10.374 0 23.1719 0ZM41.808 9.40158C41.8526 9.46129 41.8964 9.52063 41.9395 9.5811L41.9403 9.58258L41.9611 9.61056C42.0019 9.66763 42.0427 9.72433 42.0828 9.78027L42.1633 9.89476L42.2117 9.96356C44.8165 13.711 46.3438 18.2627 46.3438 23.1719C46.3438 35.9698 35.9698 46.3438 23.1719 46.3438C18.014 46.3438 13.251 44.6581 9.40158 41.808L9.39023 41.8193C8.01637 40.7958 6.8504 39.6782 5.86999 38.5655L9.12416 35.3113L14.2499 30.1856L14.2738 36.9347L12.7022 38.5062C15.6835 40.5453 19.2877 41.7385 23.1719 41.7385C33.4261 41.7385 41.7381 33.4265 41.7381 23.1719C41.7381 19.2881 40.5449 15.6839 38.5062 12.7026L31.7019 19.5069L30.8727 17.325L29.831 14.6048L35.3114 9.12416L38.5735 5.86203L38.5924 5.84313C39.885 7.01063 40.9482 8.2371 41.808 9.40158Z" fill="#E63534"/>
</svg>
