<svg width="47" height="47" viewBox="0 0 47 47" fill="none" xmlns="http://www.w3.org/2000/svg">
<path fill-rule="evenodd" clip-rule="evenodd" d="M23.1723 0C27.7875 0 32.0878 1.35041 35.7003 3.67633L32.348 7.02874C29.6415 5.48707 26.5097 4.60571 23.1723 4.60571C12.9177 4.60571 4.606 12.9177 4.606 23.1723C4.606 26.5097 5.48678 29.6417 7.02844 32.3479L3.68888 35.6875C3.15559 34.8669 2.73059 34.1064 2.40177 33.4563C0.864638 30.3575 0 26.8665 0 23.1723C0 10.3745 10.3741 0 23.1723 0ZM41.8087 9.40158C41.8533 9.46129 41.897 9.52063 41.9401 9.5811L41.9409 9.58258L41.9616 9.61063C42.0024 9.6677 42.0432 9.72433 42.0833 9.78027L42.1639 9.89483L42.2123 9.96363C44.8172 13.711 46.3444 18.2627 46.3444 23.1723C46.3444 35.9702 35.9702 46.3442 23.1723 46.3442C18.014 46.3442 13.251 44.6585 9.40158 41.8084L9.39035 41.8197C8.0165 40.7962 6.85049 39.6786 5.87008 38.5659L9.12431 35.3117L10.8372 33.5988V34.5388H16.6701L12.7025 38.5066C15.6838 40.5457 19.2877 41.7388 23.1723 41.7388C33.4266 41.7388 41.7387 33.427 41.7387 23.1723C41.7387 19.2881 40.5453 15.6839 38.5066 12.7026L36.5959 14.6132L36.5663 11.6315L32.8246 11.6114L35.312 9.12416L38.5739 5.86211L38.5928 5.84321C39.8854 7.0107 40.9488 8.2371 41.8087 9.40158Z" fill="#E63534"/>
<path d="M27.7019 17.4692H12.0605V33.0291H27.7019V17.4692Z" fill="#E63534"/>
<path fill-rule="evenodd" clip-rule="evenodd" d="M13.6875 16.323L18.7243 13.0474H34.12L28.2644 16.3639L13.6875 16.323Z" fill="#E63534"/>
<path fill-rule="evenodd" clip-rule="evenodd" d="M28.9609 17.5512V32.2921L35.2258 28.8524V13.7637L28.9609 17.5512Z" fill="#E63534"/>
</svg>
