<svg width="46" height="46" viewBox="0 0 46 46" fill="none" xmlns="http://www.w3.org/2000/svg">
<path d="M18.7751 17.829C14.0989 20.5263 14.3674 24.9198 14.5284 26.5454C20.5681 19.4329 29.6024 19.7779 29.6024 19.7779C29.6024 19.7779 16.7961 24.1448 13.0348 32.9019C12.7378 33.5932 14.4285 34.4922 14.8144 33.6749C15.9661 31.2395 17.571 29.413 17.571 29.413C19.9388 30.2889 24.0348 31.3154 26.938 29.2846C30.7942 26.5867 30.4 20.6063 35.905 17.6945C37.1908 17.0146 25.1146 14.1718 18.7751 17.829Z" fill="#E63534"/>
<path d="M46 23C46 35.7025 35.7025 46 23 46C10.2975 46 0 35.7025 0 23C0 10.2975 10.2975 0 23 0C35.7025 0 46 10.2975 46 23ZM4.23471 23C4.23471 33.3638 12.6362 41.7653 23 41.7653C33.3638 41.7653 41.7653 33.3638 41.7653 23C41.7653 12.6362 33.3638 4.23471 23 4.23471C12.6362 4.23471 4.23471 12.6362 4.23471 23Z" fill="#E63534"/>
</svg>
