<svg width="46" height="46" viewBox="0 0 46 46" fill="none" xmlns="http://www.w3.org/2000/svg">
<path fill-rule="evenodd" clip-rule="evenodd" d="M20.057 31.6098C19.8122 31.6098 19.5983 31.3543 19.5983 31.0713C19.5983 30.7899 19.7771 30.5528 20.0969 30.5528C20.477 30.5528 20.6796 31.1357 20.3918 31.446C20.3187 31.5248 20.2 31.6098 20.057 31.6098ZM22.9487 27.8406C22.9487 27.4475 22.9866 27.2857 23.2336 26.9887C23.2909 26.9199 23.426 26.8241 23.5065 26.7829C24.1553 26.4509 24.9231 26.9689 24.9231 27.681C24.9231 28.0527 24.8816 28.2327 24.6327 28.5274C24.2804 28.9445 23.5831 28.9223 23.248 28.5384C23.1036 28.3731 22.9487 28.1461 22.9487 27.8406ZM16.1282 27.1625C16.1282 26.527 16.479 25.9583 16.9724 25.6932C17.4085 25.4589 17.876 25.4738 18.3156 25.6931C18.5163 25.7933 18.512 25.8226 18.6415 25.9256C18.7046 25.9759 18.6848 25.972 18.7362 26.0303C19.653 27.07 18.9946 28.8377 17.6439 28.8377C16.7729 28.8377 16.1282 28.0617 16.1282 27.1625ZM26.718 24.8491C26.718 24.2337 27.0134 23.6037 27.3406 23.2979C27.3898 23.2518 27.4179 23.2396 27.4708 23.1888C27.5367 23.1254 27.6729 23.0363 27.7547 22.9941C28.3585 22.6823 29.0462 22.7156 29.59 23.1338C29.7727 23.2742 29.9384 23.4412 30.0601 23.6408C30.3615 24.1347 30.4074 24.4628 30.4074 25.0485C30.72 25.0485 30.9148 25.1245 31.1208 25.3323C31.1886 25.4006 31.2683 25.5185 31.3026 25.6092C31.3939 25.8512 31.4157 26.1247 31.3112 26.3711C31.0769 26.9237 30.4777 27.1073 30.0199 26.7922C29.8208 26.6552 29.8164 26.5626 29.7294 26.5044C29.6802 26.5175 29.5902 26.5972 29.5022 26.6561C28.2844 27.4697 26.718 26.4892 26.718 24.8491ZM21.0542 23.2935C21.0542 22.825 21.1541 22.5101 21.41 22.1935C21.7476 21.7758 22.2975 21.6393 22.8055 21.8812C22.9765 21.9626 23.0331 22.0331 23.1633 22.1616C23.3358 22.3319 23.547 22.7408 23.547 23.0742C23.547 23.5366 23.517 23.8846 23.1839 24.2666C23.144 24.3124 23.1518 24.3124 23.1081 24.3504C22.8606 24.5657 22.6585 24.6895 22.2707 24.6895C21.5929 24.6895 21.0542 23.974 21.0542 23.2935ZM31.0656 20.6411C31.0656 20.2746 31.3145 19.9232 31.624 19.9232H31.7436C32.193 19.9232 32.5025 20.6378 32.1459 21.0833C31.7463 21.5827 31.0656 21.2263 31.0656 20.6411ZM27.9744 18.0884C27.9819 18.1788 28.0203 18.2916 28.0309 18.3909C28.0999 19.0407 28.0095 19.5657 27.6212 20.0885C26.882 21.0835 25.5592 20.7489 25.1109 19.6756C25.0513 19.533 24.9431 19.2272 24.9431 19.0457L24.5418 19.163C24.4 19.2081 24.2731 19.2496 24.1296 19.2892C24.0097 19.3223 23.8677 19.3679 23.7338 19.4119C23.5936 19.458 23.4549 19.5007 23.3253 19.5419L21.7123 20.0428C21.5854 20.0775 21.4434 20.1219 21.3159 20.165L20.0994 20.5439C19.8391 20.6317 19.5688 20.712 19.292 20.7935L18.0755 21.1724C17.4276 21.363 16.7038 21.6143 16.0556 21.805L13.6379 22.5582C13.5051 22.5988 13.3803 22.6409 13.2407 22.6795C12.9956 22.7472 12.1267 23.0514 12 23.0542L12.0284 23.8834C12.049 24.0198 12.0308 24.1627 12.0514 24.2991L12.0798 24.7095C12.2656 24.7136 12.4279 24.8863 12.5325 25.0146C12.5765 25.0685 12.599 25.1089 12.6318 25.1746C13.1113 26.1365 12.6415 27.219 12.1994 27.322L12.339 30.3534C12.4069 30.3859 12.5098 30.3939 12.5948 30.4167C12.8445 30.4835 13.0172 30.6435 13.1819 30.8068C13.7697 31.3896 13.6356 32.7265 12.7099 33.0975C12.6594 33.1177 12.4986 33.1471 12.4986 33.1853C12.4986 33.6446 12.5329 33.918 12.5377 34.3228C12.5393 34.46 12.5784 34.7713 12.5784 35.0001L13.9671 34.574C16.238 33.8325 18.6078 33.1103 20.8923 32.3852L23.6642 31.5075C23.8853 31.4337 24.1216 31.3623 24.3473 31.2932C24.5776 31.2227 24.8125 31.1343 25.0428 31.0713L31.2722 29.1041C31.5065 29.0352 31.7438 28.9435 31.9672 28.8818C32.0903 28.8478 32.1834 28.8141 32.2994 28.7752C32.4109 28.7378 32.5279 28.7063 32.6486 28.6657C32.8885 28.585 33.1067 28.5268 33.3466 28.4464L34.7351 28.0001V26.8833C34.7353 26.7354 34.718 26.6434 34.7145 26.525C34.705 26.2092 34.7369 25.2161 34.7067 25.017C34.6478 24.6278 34.7088 23.9459 34.6959 23.5123L34.6753 22.775C34.6753 22.5224 34.6741 22.2696 34.6754 22.017C34.6761 21.871 34.6548 21.8092 34.6546 21.6788L34.6553 20.5414C34.6553 20.2744 34.6354 20.0759 34.6354 19.8035C34.6354 18.5555 34.5955 17.2851 34.5955 16.0542C34.4183 16.0542 33.1511 16.4891 32.936 16.5486L32.1153 16.8048C31.8277 16.8992 31.5638 16.9675 31.2772 17.0636L30.0459 17.4476C29.912 17.4929 29.774 17.5367 29.6369 17.5771L28.8146 17.8317C28.6849 17.8756 28.5457 17.9163 28.4016 17.9572C28.2785 17.9921 28.0863 18.0791 27.9744 18.0884Z" fill="#E63534"/>
<path fill-rule="evenodd" clip-rule="evenodd" d="M17.4644 18.7835C17.1288 18.7835 16.6667 18.6381 16.6667 18.3646C16.6667 18.1736 16.6989 18.0767 16.9321 17.952C17.5372 17.6286 18.4896 18.0655 18.0977 18.5393C17.9787 18.6831 17.6767 18.7835 17.4644 18.7835ZM29.2507 15.2136C28.9446 15.2136 28.5672 15.1169 28.3683 14.9194C28.1867 14.7391 28.1886 14.4817 28.3585 14.2815C28.7529 13.8166 30.228 13.872 30.228 14.6153C30.228 14.7331 30.1765 14.8164 30.1139 14.8802C29.8926 15.1058 29.5724 15.2136 29.2507 15.2136ZM23.8661 15.3333C23.4747 15.3333 23.0249 15.2329 22.6958 15.0677C21.466 14.4502 22.0587 13.0997 23.906 13.0997C24.476 13.0997 25.1409 13.3062 25.4759 13.7036C25.9027 14.2097 25.593 14.7818 25.0429 15.0543C24.8671 15.1413 24.7293 15.1984 24.5205 15.2498C24.3434 15.2934 24.0496 15.3333 23.8661 15.3333ZM18.1026 14.5954C18.251 14.9047 18.3044 15.8518 17.9032 15.8518C17.3828 15.8518 17.5731 15.8272 17.1653 15.7322C17.0569 15.8047 16.4287 16.5898 16.2818 16.7632L14.987 18.3004C14.9502 18.3426 14.946 18.3572 14.9067 18.3995L13.2849 20.3276C13.1855 20.4546 12.0632 21.7553 12 21.8746L12.8003 21.6379C13.2886 21.4725 13.9092 21.3093 14.4009 21.1444C14.9058 20.9751 15.4878 20.8195 16.0013 20.6508L20.0243 19.4089C20.5722 19.2475 21.0876 19.0727 21.6397 18.9103L24.0431 18.1627C24.2055 18.113 24.7252 17.9685 24.8433 17.906C24.783 17.8158 24.7231 17.792 24.6571 17.6734C24.4056 17.2212 24.7016 16.8248 25.0738 16.6008C25.2992 16.4652 25.7153 16.3149 26.0597 16.3104C26.2777 16.3075 26.3266 16.273 26.6473 16.3213C26.8618 16.3537 26.9819 16.3821 27.1644 16.4425C27.3334 16.4984 27.4602 16.5634 27.5919 16.6531C27.7164 16.738 27.829 16.8409 27.9146 16.9686L34.5755 14.9145C34.5544 14.8354 34.4337 14.8037 34.2963 14.735C33.5845 14.3791 32.7838 14.0093 32.0405 13.7402C30.1864 13.0688 28.8914 12.713 26.8975 12.3817C26.5054 12.3166 24.8023 12.0855 24.4049 12.0823C24.3047 12.0814 24.2738 12.0735 24.2022 12.0656L23.526 12.0238C23.1013 11.9887 22.1677 12.0028 21.7322 12.0028C21.5976 12.0028 20.3802 12.0345 20.2471 12.0733C20.155 12.1001 19.9368 12.402 19.8747 12.4787C19.5457 12.8849 19.1161 13.3603 18.8121 13.7494L18.2821 14.3761C18.2226 14.4531 18.1597 14.5102 18.1026 14.5954Z" fill="#E63534"/>
<path d="M46 23C46 35.7025 35.7025 46 23 46C10.2975 46 0 35.7025 0 23C0 10.2975 10.2975 0 23 0C35.7025 0 46 10.2975 46 23ZM4.23471 23C4.23471 33.3638 12.6362 41.7653 23 41.7653C33.3638 41.7653 41.7653 33.3638 41.7653 23C41.7653 12.6362 33.3638 4.23471 23 4.23471C12.6362 4.23471 4.23471 12.6362 4.23471 23Z" fill="#E63534"/>
</svg>
