<svg width="270" height="76" viewBox="0 0 270 76" fill="none" xmlns="http://www.w3.org/2000/svg">
<path d="M6.16805 9.84326C6.82663 9.84326 7.42147 9.95202 7.95367 10.1686C8.48477 10.3859 8.94154 10.6893 9.32319 11.0786C9.70468 11.4677 10.0009 11.9427 10.2099 12.5047C10.42 13.066 10.5249 13.6911 10.5249 14.3794V21.2515H9.42433V14.5141C9.42433 13.3766 9.12901 12.4899 8.53697 11.8531C7.94541 11.2172 7.11852 10.8988 6.05585 10.8988C4.94752 10.8988 4.06453 11.2468 3.40548 11.9427C2.74675 12.6394 2.41808 13.6015 2.41808 14.8286V21.2515H1.31738V10.0229H2.41808V11.7295C2.74675 11.2209 3.2113 10.7789 3.81004 10.4046C4.40878 10.0307 5.19437 9.84326 6.16805 9.84326Z" fill="#FEFEFE"/>
<path d="M24.9193 21.252V19.5456C24.7846 19.7698 24.6131 19.9947 24.4031 20.219C24.1937 20.4438 23.9314 20.6456 23.6169 20.8253C23.3031 21.0052 22.9434 21.1509 22.5393 21.2635C22.1354 21.3757 21.6784 21.4317 21.1693 21.4317C20.5107 21.4317 19.9153 21.3229 19.3843 21.1063C18.8521 20.8891 18.3958 20.5863 18.0142 20.1964C17.6322 19.8072 17.3364 19.3322 17.1268 18.7703C16.9174 18.2091 16.8125 17.5839 16.8125 16.8951V10.0234H17.913V16.7604C17.913 17.8983 18.2084 18.7857 18.7998 19.4218C19.3913 20.0584 20.2182 20.3762 21.2815 20.3762C22.3898 20.3762 23.2728 20.0282 23.9314 19.3322C24.5906 18.6356 24.9193 17.6741 24.9193 16.4464V10.0234H26.02V21.252H24.9193Z" fill="#FEFEFE"/>
<path d="M37.7426 10.0234V11.0114H34.6215V17.8384C34.6215 18.3178 34.6925 18.7071 34.8343 19.0061C34.9766 19.3056 35.1558 19.5455 35.3735 19.7247C35.5902 19.9044 35.8298 20.0281 36.0917 20.0951C36.3538 20.1628 36.6123 20.1963 36.8668 20.1963H37.72V21.2519H36.8448C36.4551 21.2519 36.0658 21.1958 35.6771 21.0836C35.2874 20.9716 34.9355 20.7802 34.6215 20.5108C34.3065 20.2415 34.0486 19.8896 33.8463 19.4553C33.644 19.0215 33.5434 18.4822 33.5434 17.8384V11.0114H31.8589V10.0234H33.5434V6.76709H34.6215V10.0234H37.7426Z" fill="#FEFEFE"/>
<path d="M48.544 11.056C48.0047 11.056 47.5071 11.1534 47.0508 11.3479C46.594 11.5426 46.1971 11.8196 45.8606 12.1787C45.5235 12.5382 45.2614 12.9686 45.0744 13.4701C44.8876 13.9719 44.7941 14.5295 44.7941 15.1431V21.2515H43.6934V10.0229H44.7941V12.1115C44.8985 11.9021 45.0552 11.6663 45.2652 11.404C45.4746 11.1423 45.733 10.8949 46.0398 10.663C46.3472 10.4309 46.71 10.2363 47.1295 10.079C47.5479 9.92179 48.0201 9.84326 48.544 9.84326V11.056Z" fill="#FEFEFE"/>
<path d="M54.4951 21.2523V10.0237H55.5958V21.2523H54.4951ZM54.4951 7.05946V5.86914H55.5958V7.05946H54.4951Z" fill="#FEFEFE"/>
<path d="M67.3186 10.0234V11.0114H64.1976V17.8384C64.1976 18.3178 64.2681 18.7071 64.4105 19.0061C64.5528 19.3056 64.732 19.5455 64.9497 19.7247C65.1663 19.9044 65.406 20.0281 65.6678 20.0951C65.9299 20.1628 66.1883 20.1963 66.443 20.1963H67.2962V21.2519H66.421C66.0311 21.2519 65.642 21.1958 65.2527 21.0836C64.8629 20.9716 64.5116 20.7802 64.1976 20.5108C63.8827 20.2415 63.6248 19.8896 63.422 19.4553C63.2202 19.0215 63.1195 18.4822 63.1195 17.8384V11.0114H61.4351V10.0234H63.1195V6.76709H64.1976V10.0234H67.3186Z" fill="#FEFEFE"/>
<path d="M73.2695 21.2523V10.0237H74.3696V21.2523H73.2695ZM73.2695 7.05946V5.86914H74.3696V7.05946H73.2695Z" fill="#FEFEFE"/>
<path d="M86.1159 10.8988C85.4419 10.8988 84.8162 11.0186 84.2405 11.2578C83.6639 11.4975 83.1696 11.8307 82.7579 12.2572C82.3461 12.6839 82.0206 13.1859 81.7815 13.762C81.5412 14.3386 81.422 14.9638 81.422 15.6372C81.422 16.2964 81.5412 16.9139 81.7815 17.49C82.0206 18.0666 82.3461 18.5681 82.7579 18.9947C83.1696 19.4213 83.6639 19.7545 84.2405 19.9942C84.8162 20.2339 85.4419 20.3531 86.1159 20.3531C86.7893 20.3531 87.41 20.2339 87.979 19.9942C88.5486 19.7545 89.0384 19.4213 89.4502 18.9947C89.862 18.5681 90.1874 18.0666 90.4272 17.49C90.6669 16.9139 90.7867 16.2964 90.7867 15.6372C90.7867 14.9638 90.6669 14.3386 90.4272 13.762C90.1874 13.1859 89.862 12.6839 89.4502 12.2572C89.0384 11.8307 88.5486 11.4975 87.979 11.2578C87.41 11.0186 86.7893 10.8988 86.1159 10.8988ZM86.1159 9.84326C86.9235 9.84326 87.6794 9.99272 88.3837 10.2924C89.0873 10.5921 89.6971 10.9999 90.2139 11.5162C90.7306 12.033 91.138 12.6432 91.4377 13.3464C91.7372 14.0506 91.8873 14.8066 91.8873 15.6146C91.8873 16.4382 91.7372 17.2019 91.4377 17.9056C91.138 18.6092 90.7306 19.219 90.2139 19.7358C89.6971 20.2519 89.0873 20.6604 88.3837 20.9596C87.6794 21.2592 86.9235 21.4088 86.1159 21.4088C85.2923 21.4088 84.5282 21.2592 83.8249 20.9596C83.1207 20.6604 82.511 20.2519 81.9949 19.7358C81.478 19.219 81.0701 18.6092 80.7704 17.9056C80.4708 17.2019 80.3218 16.4382 80.3218 15.6146C80.3218 14.8066 80.4708 14.0506 80.7704 13.3464C81.0701 12.6432 81.478 12.033 81.9949 11.5162C82.511 10.9999 83.1207 10.5921 83.8249 10.2924C84.5282 9.99272 85.2923 9.84326 86.1159 9.84326Z" fill="#FEFEFE"/>
<path d="M102.689 9.84326C103.347 9.84326 103.942 9.95202 104.474 10.1686C105.005 10.3859 105.462 10.6893 105.844 11.0786C106.226 11.4677 106.521 11.9427 106.731 12.5047C106.941 13.066 107.045 13.6911 107.045 14.3794V21.2515H105.945V14.5141C105.945 13.3766 105.65 12.4899 105.058 11.8531C104.466 11.2172 103.64 10.8988 102.576 10.8988C101.468 10.8988 100.585 11.2468 99.9265 11.9427C99.2679 12.6394 98.9386 13.6015 98.9386 14.8286V21.2515H97.8379V10.0229H98.9386V11.7295C99.2679 11.2209 99.7318 10.7789 100.331 10.4046C100.929 10.0307 101.715 9.84326 102.689 9.84326Z" fill="#FEFEFE"/>
<path d="M7.91495 40.4414V63.4959H0V27.1084H8.97715L23.6389 50.2157V27.1084H31.5534V63.4959H22.5762L7.91495 40.4414Z" fill="#FEFEFE"/>
<path d="M65.0716 56.5905C66.594 56.5905 68.0201 56.298 69.3478 55.7136C70.6754 55.1298 71.836 54.3326 72.8273 53.3232C73.8179 52.3138 74.5881 51.1191 75.1379 49.7376C75.6871 48.3566 75.9615 46.8695 75.9615 45.2758C75.9615 43.682 75.6871 42.2035 75.1379 40.8403C74.5881 39.4773 73.8179 38.2904 72.8273 37.281C71.836 36.2716 70.6754 35.475 69.3478 34.8906C68.0201 34.3062 66.594 34.0143 65.0716 34.0143C63.5136 34.0143 62.0787 34.3062 60.7687 34.8906C59.4585 35.475 58.3073 36.2716 57.3167 37.281C56.3248 38.2904 55.5546 39.4855 55.0059 40.8666C54.4562 42.2481 54.1818 43.7353 54.1818 45.3291C54.1818 46.9222 54.4562 48.4099 55.0059 49.7909C55.5546 51.172 56.3248 52.3671 57.3167 53.3765C58.3073 54.3859 59.4585 55.1742 60.7687 55.7406C62.0787 56.3073 63.5136 56.5905 65.0716 56.5905ZM65.0716 64.2395C62.4157 64.2395 59.9192 63.7616 57.5822 62.8051C55.2451 61.849 53.2 60.5213 51.4468 58.8215C49.6935 57.1216 48.3119 55.1209 47.3026 52.8186C46.2932 50.5171 45.7886 48.0207 45.7886 45.3291C45.7886 42.6379 46.2932 40.1321 47.3026 37.8126C48.3119 35.4931 49.6935 33.4832 51.4468 31.7833C53.2 30.0834 55.2451 28.7552 57.5822 27.7991C59.9192 26.843 62.4157 26.3647 65.0716 26.3647C67.7985 26.3647 70.3385 26.843 72.6942 27.7991C75.0489 28.7552 77.0851 30.0834 78.8032 31.7833C80.5208 33.4832 81.8747 35.4844 82.8666 37.7856C83.8584 40.0882 84.3543 42.5852 84.3543 45.2758C84.3543 48.0031 83.8584 50.5171 82.8666 52.8186C81.8747 55.1209 80.5208 57.1216 78.8032 58.8215C77.0851 60.5213 75.0489 61.849 72.6942 62.8051C70.3385 63.7616 67.7985 64.2395 65.0716 64.2395Z" fill="#FEFEFE"/>
<path d="M205.301 35.714L200.573 49.9502H210.028L205.301 35.714ZM212.472 57.2276H198.183L196.11 63.4959H187.665L200.52 27.1084H210.613L223.415 63.4959H214.543L212.472 57.2276Z" fill="#FEFEFE"/>
<path d="M244.821 34.6512V55.9527H251.302C252.789 55.9527 254.162 55.6871 255.418 55.156C256.675 54.6249 257.774 53.8811 258.712 52.925C259.65 51.9685 260.385 50.836 260.916 49.5252C261.448 48.2157 261.714 46.7813 261.714 45.2221C261.714 43.7005 261.448 42.2925 260.916 40.9995C260.385 39.707 259.641 38.5915 258.686 37.653C257.729 36.7152 256.596 35.9794 255.286 35.4485C253.975 34.9174 252.559 34.6512 251.036 34.6512H244.821ZM236.588 27.1084H251.461C254.259 27.1084 256.8 27.578 259.084 28.5158C261.368 29.4549 263.315 30.7298 264.927 32.3406C266.538 33.9526 267.786 35.8558 268.672 38.051C269.557 40.2474 270 42.602 270 45.1162C270 47.6659 269.539 50.0656 268.619 52.3136C267.698 54.5633 266.406 56.5105 264.741 58.1571C263.076 59.8037 261.085 61.1055 258.765 62.0616C256.445 63.0177 253.869 63.4959 251.036 63.4959H236.588V27.1084Z" fill="#FEFEFE"/>
<path d="M147.363 1.03516H139.823L125.157 33.3495L121.207 24.6092H111.115L94.7876 60.5833H105.764L117.358 33.3797L128.951 60.5833H137.466L129.617 43.2162L141.406 15.5529L167.437 75.3H181.116L147.363 1.03516Z" fill="#FEFEFE"/>
<path d="M164.587 7.27571C164.587 3.25738 167.845 0 171.863 0C175.881 0 179.139 3.25738 179.139 7.27571C179.139 11.2939 175.881 14.5512 171.863 14.5512C167.845 14.5512 164.587 11.2939 164.587 7.27571Z" fill="#DD3146"/>
</svg>
