<?xml version="1.0" standalone="no"?>
<!DOCTYPE svg PUBLIC "-//W3C//DTD SVG 20010904//EN"
 "http://www.w3.org/TR/2001/REC-SVG-20010904/DTD/svg10.dtd">
<svg version="1.0" xmlns="http://www.w3.org/2000/svg"
 width="512.000000pt" height="512.000000pt" viewBox="0 0 512.000000 512.000000"
 preserveAspectRatio="xMidYMid meet">
<metadata>
Created by potrace 1.14, written by Peter Selinger 2001-2017
</metadata>
<g transform="translate(0.000000,512.000000) scale(0.100000,-0.100000)"
fill="#000000" stroke="none">
<path d="M2780 4565 c0 -5 8 -18 18 -29 17 -20 17 -20 -10 -3 -39 24 -44 21
-11 -8 l28 -24 -35 9 c-19 6 -46 10 -60 9 -24 -1 -23 -1 5 -10 84 -28 115 -42
115 -51 0 -5 -8 -7 -17 -4 -10 3 -35 1 -56 -3 -28 -7 -48 -5 -73 5 -37 16 -92
18 -113 5 -10 -6 -6 -11 15 -19 25 -9 26 -11 7 -11 -12 -1 -42 8 -67 19 -25
10 -46 15 -46 11 0 -5 7 -12 16 -15 8 -3 12 -10 9 -16 -3 -5 0 -8 7 -5 7 3 19
-4 27 -16 11 -19 11 -21 -4 -15 -41 15 -68 19 -61 7 4 -6 2 -11 -3 -11 -6 0
-11 -4 -11 -10 0 -5 8 -10 17 -10 13 0 14 -3 5 -12 -10 -10 -19 -6 -43 20 -36
38 -59 43 -30 6 26 -33 26 -44 4 -44 -10 0 -25 -5 -33 -11 -12 -8 -10 -9 8 -4
25 7 62 -2 62 -16 0 -5 -9 -9 -20 -9 -11 0 -20 -5 -20 -11 0 -7 11 -8 30 -4
30 7 30 6 18 -19 -9 -21 -9 -29 2 -39 9 -8 11 -9 6 0 -3 6 -2 14 4 18 5 3 10
-1 10 -9 0 -9 5 -16 10 -16 7 0 7 6 0 19 -24 46 -2 68 50 49 23 -8 39 -7 58 2
22 9 25 9 15 -1 -30 -30 -10 -30 21 0 26 25 39 31 56 26 21 -7 21 -7 3 -28
-17 -19 -16 -19 15 2 21 15 39 20 50 16 14 -6 12 -9 -10 -15 -37 -11 -78 -40
-56 -40 9 0 20 5 23 10 3 6 11 10 16 10 19 0 -2 -20 -57 -55 -79 -51 -139
-110 -180 -176 -37 -61 -154 -398 -154 -444 0 -14 -9 -34 -20 -45 -11 -11 -20
-28 -20 -38 0 -43 -28 -77 -80 -95 -67 -24 -84 -51 -77 -122 6 -63 3 -65 -78
-41 -41 13 -53 13 -80 2 -18 -8 -35 -19 -39 -24 -4 -7 -69 -10 -193 -7 -161 3
-194 1 -247 -16 -77 -23 -189 -87 -290 -164 -94 -73 -89 -70 -150 -84 -61 -15
-124 -58 -172 -119 -21 -26 -61 -72 -88 -101 -28 -30 -43 -49 -33 -42 31 24
18 0 -35 -63 -96 -114 -133 -148 -183 -172 -27 -13 -44 -24 -36 -24 11 0 11
-2 0 -16 -8 -9 -30 -49 -49 -88 -29 -60 -39 -72 -63 -74 -16 -2 -39 5 -57 18
-17 12 -30 16 -30 11 0 -22 64 -52 98 -47 17 3 32 3 32 0 0 -21 -44 -84 -58
-84 -36 0 -94 78 -123 167 -16 47 -19 51 -15 21 6 -45 49 -134 82 -169 45 -47
29 -68 -54 -70 l-47 -1 44 -9 c24 -5 46 -10 48 -13 9 -9 -67 -27 -120 -28 -91
-2 -111 28 -85 126 11 40 10 47 -7 66 -10 11 -28 20 -39 19 -17 0 -16 -3 8
-11 27 -10 28 -12 21 -57 -13 -83 -10 -106 19 -143 27 -36 27 -36 4 -31 -13 3
-28 10 -35 15 -7 5 -22 11 -35 13 -13 1 -32 6 -43 10 -16 6 -18 5 -9 -5 7 -6
23 -13 36 -13 14 -1 25 -8 25 -15 0 -8 -7 -10 -16 -6 -52 21 -51 23 -51 -83
l0 -99 32 -19 c47 -27 170 -33 242 -10 65 21 83 15 34 -11 -48 -26 -238 -33
-273 -10 -30 20 -35 20 -35 2 0 -24 70 -41 165 -41 89 1 92 2 230 63 158 71
211 100 259 143 45 39 54 37 21 -7 -24 -31 -25 -35 -7 -25 12 6 34 33 49 59
41 72 84 130 100 136 11 5 9 -3 -5 -27 -11 -17 -28 -61 -37 -97 -9 -36 -25
-80 -36 -99 -11 -18 -18 -35 -16 -38 7 -6 47 48 47 64 0 32 18 0 25 -43 3 -25
8 -44 11 -41 2 2 -1 38 -8 80 -10 66 -9 81 6 121 25 65 68 95 153 106 118 16
132 20 161 45 l30 25 95 -98 c134 -136 165 -176 182 -235 18 -62 20 -261 3
-352 -15 -86 -2 -115 71 -162 98 -62 212 -165 293 -262 72 -88 87 -114 102
-192 4 -17 16 -31 36 -39 40 -17 57 -37 42 -52 -7 -7 -12 -20 -12 -30 0 -10
-5 -27 -12 -37 -30 -48 85 -141 175 -141 l37 0 1 58 c0 41 3 51 9 36 6 -15 21
-23 49 -28 64 -10 82 -35 75 -99 -9 -78 -1 -82 131 -64 59 9 109 18 112 21 8
8 -62 91 -109 128 -68 54 -127 120 -149 168 -11 25 -31 56 -44 70 -26 28 -162
251 -177 290 -30 78 -60 353 -45 409 8 30 8 69 -3 153 -16 134 -22 251 -12
246 45 -20 172 -95 172 -101 0 -4 -24 -31 -52 -59 l-53 -51 42 23 c23 12 49
38 59 56 10 19 22 34 26 34 12 0 10 -5 -22 -77 -34 -74 -35 -77 -19 -67 6 4
24 35 40 70 16 35 35 64 42 64 6 0 52 -20 101 -45 85 -43 92 -45 177 -45 l89
0 0 -30 c0 -24 15 -44 74 -102 43 -43 85 -96 101 -128 42 -83 81 -137 166
-227 42 -45 82 -96 88 -113 9 -28 8 -34 -15 -57 -25 -25 -28 -25 -149 -22 -97
3 -127 7 -141 21 -17 15 -23 15 -53 2 -37 -15 -45 -12 -65 28 -16 31 -65 29
-137 -4 -52 -24 -109 -69 -109 -85 0 -14 124 -57 173 -59 37 -2 56 -9 83 -33
48 -43 75 -47 142 -22 58 21 208 43 317 45 33 1 66 5 73 9 24 16 72 112 72
144 0 18 -13 63 -29 100 -80 185 -120 308 -121 374 0 3 22 20 49 36 l49 31 24
-28 c17 -20 41 -31 84 -40 32 -7 98 -23 146 -36 47 -13 125 -28 172 -34 104
-13 180 -27 222 -40 59 -20 59 -101 1 -266 -32 -91 -43 -112 -78 -149 -25 -27
-28 -35 -20 -63 18 -62 -19 -133 -79 -151 -49 -15 -70 -44 -70 -98 0 -57 12
-84 56 -127 51 -50 77 -48 97 7 58 166 90 234 128 278 24 29 32 51 39 100 4
35 24 107 43 159 20 52 39 109 43 125 3 17 18 50 31 74 21 36 24 52 20 92 -6
49 -35 117 -59 136 -7 6 -53 32 -103 58 -96 51 -176 116 -224 182 l-30 42 30
82 c54 148 75 301 48 352 -11 19 -3 29 77 107 49 47 125 108 169 135 77 47 83
49 160 50 71 1 90 6 162 39 l81 38 31 -18 c17 -10 33 -26 36 -34 3 -9 18 -29
34 -44 24 -23 31 -25 56 -16 15 6 35 8 45 5 9 -3 23 1 30 10 7 8 20 15 29 15
9 0 27 7 40 16 18 13 22 23 17 45 -4 21 1 39 19 65 31 45 31 46 1 81 -43 52
-139 196 -140 212 -1 9 -16 36 -34 61 -28 38 -33 51 -28 82 8 48 -7 84 -53
133 -49 52 -85 105 -86 125 0 31 -87 115 -170 166 l-30 18 34 -37 c44 -46 35
-47 -25 -2 -41 32 -52 35 -110 35 -68 0 -78 -5 -41 -20 18 -7 19 -9 4 -9 -10
-1 -53 17 -94 39 -76 40 -116 49 -128 30 -4 -6 8 -10 27 -10 21 0 54 -13 88
-35 63 -41 40 -50 -25 -10 -22 13 -53 24 -70 24 l-30 -1 35 -12 35 -13 -30 -6
c-22 -4 -36 0 -53 16 -18 16 -36 21 -80 22 -48 0 -67 6 -117 37 -33 20 -86 59
-118 87 -32 28 -64 51 -70 51 -29 0 -97 47 -162 110 -38 38 -82 72 -97 75 -25
6 -40 25 -20 25 4 0 13 15 20 34 7 18 24 46 37 60 14 15 25 35 25 46 0 10 12
33 27 51 38 45 35 84 -10 153 -42 63 -89 97 -167 120 -65 19 -83 20 -51 2 23
-13 22 -13 -19 -20 -26 -4 -47 -3 -54 4 -5 5 -21 10 -35 10 -14 0 -38 12 -53
27 -15 15 -28 23 -28 18z m-120 -115 c12 -8 10 -10 -10 -9 -14 0 -34 4 -45 9
-17 7 -16 9 10 9 17 0 37 -4 45 -9z m448 -818 c31 -22 159 -82 175 -82 6 0 22
11 37 25 25 24 26 24 70 9 48 -17 70 -31 70 -45 0 -5 -8 -9 -17 -9 -15 -1 -15
-3 4 -19 19 -16 34 -18 83 -14 42 4 60 2 60 -6 0 -29 -32 -81 -86 -141 -32
-36 -74 -85 -93 -108 -20 -25 -40 -41 -48 -38 -7 3 -13 0 -13 -6 0 -7 -23 10
-51 37 -29 28 -49 42 -46 33 5 -15 4 -16 -13 -5 -11 6 -20 22 -20 34 0 13 -4
23 -10 23 -5 0 -10 -9 -10 -19 0 -11 -4 -22 -9 -25 -10 -7 -21 17 -21 45 0 10
-5 19 -11 19 -6 0 -9 -7 -5 -15 3 -8 1 -15 -4 -15 -5 0 -12 9 -15 20 -7 21
-53 50 -80 50 -9 0 -13 -4 -10 -10 3 -6 -1 -7 -9 -4 -29 11 -16 -13 13 -26 38
-15 76 -56 95 -102 21 -50 20 -62 -8 -94 l-23 -28 -28 22 c-15 12 -40 48 -55
81 -16 33 -38 64 -49 71 -28 14 -28 64 -1 87 28 25 25 43 -7 43 -38 0 -48 -9
-62 -51 -10 -32 -14 -35 -44 -32 -17 3 -42 10 -55 16 -20 9 -23 16 -17 42 4
16 8 55 9 86 2 69 38 129 94 158 20 10 45 28 56 39 l18 21 55 -24 c29 -13 66
-33 81 -43z m732 -22 c13 -8 13 -10 1 -10 -11 0 -9 -4 5 -15 18 -14 17 -14
-12 -15 -23 0 -34 6 -42 25 -10 23 -9 25 11 25 12 0 29 -5 37 -10z m-60 -47
c0 -10 -32 -43 -42 -43 -13 0 -9 38 5 43 18 8 37 8 37 0z m-97 -19 c38 -9 37
-54 -4 -105 -17 -21 -26 -39 -20 -39 5 0 17 10 25 22 21 30 27 19 15 -27 -13
-45 -101 -137 -124 -128 -8 3 -31 -4 -50 -16 -19 -11 -35 -16 -35 -11 0 5 12
16 28 24 l27 15 -25 1 c-17 0 -36 -12 -57 -37 -18 -21 -32 -33 -33 -27 0 6 17
31 38 55 47 55 123 163 147 208 14 27 15 39 6 59 -11 23 -10 24 11 18 13 -4
35 -9 51 -12z m182 -4 c3 -5 0 -10 -9 -10 -8 0 -21 -3 -30 -6 -11 -4 -16 -1
-16 10 0 18 45 23 55 6z m-85 -39 c0 -17 -4 -33 -10 -36 -5 -3 -10 -16 -10
-29 0 -12 -12 -33 -26 -47 l-25 -24 10 28 c6 16 11 43 11 60 0 33 23 77 41 77
5 0 9 -13 9 -29z m-520 -298 c0 -12 -4 -23 -8 -23 -17 0 -32 25 -32 54 0 28 0
29 20 11 11 -10 20 -29 20 -42z m735 -300 c55 -26 51 -30 -57 -48 -21 -3 -38
-3 -38 1 0 7 50 64 57 64 1 0 18 -8 38 -17z m119 -65 c-4 -7 -27 -41 -51 -75
l-44 -63 -64 25 c-97 36 -107 43 -96 64 10 17 110 46 191 54 71 7 71 7 64 -5z
m86 -40 c0 -10 -79 -33 -86 -25 -3 3 2 19 11 35 17 29 18 29 46 13 16 -9 29
-19 29 -23z m95 -38 c3 -5 -20 -21 -50 -36 -59 -28 -195 -47 -195 -27 0 18 24
32 106 61 61 22 85 26 107 19 15 -5 29 -13 32 -17z m-318 -66 c21 -8 15 -14
-65 -69 -47 -33 -122 -95 -164 -138 -45 -44 -78 -71 -78 -62 0 9 39 88 86 175
l85 159 57 -28 c31 -15 67 -32 79 -37z m-2947 -285 c0 -5 -4 -9 -10 -9 -5 0
-10 7 -10 16 0 8 5 12 10 9 6 -3 10 -10 10 -16z m35 -68 c10 -31 -30 -107 -72
-136 -30 -21 -33 -25 -13 -20 56 16 89 35 105 59 14 21 20 24 31 15 8 -6 14
-15 14 -19 0 -14 -121 -70 -149 -70 -47 0 -54 14 -21 39 32 23 90 97 90 114 0
5 -7 4 -16 -3 -13 -12 -14 -10 -3 13 14 32 25 34 34 8z m1373 -486 c46 -8 103
-15 126 -16 35 -1 37 -2 16 -9 -48 -15 -127 -10 -187 12 -32 12 -62 26 -68 31
-7 7 -4 8 9 3 10 -3 57 -13 104 -21z m-729 -109 c6 -25 11 -58 11 -75 0 -16 5
-42 10 -57 6 -15 14 -73 19 -128 5 -56 12 -110 16 -121 l7 -20 -17 20 c-31 36
-55 99 -55 146 0 26 -7 66 -16 90 -11 32 -14 60 -9 104 4 33 7 66 8 73 1 27
15 10 26 -32z m1441 5 c0 -15 -91 -44 -102 -33 -7 7 5 15 38 25 61 19 64 19
64 8z"/>
<path d="M2698 4553 c6 -2 18 -2 25 0 6 3 1 5 -13 5 -14 0 -19 -2 -12 -5z"/>
<path d="M180 2170 c8 -5 24 -9 35 -9 l20 0 -20 9 c-11 5 -27 9 -35 9 -13 1
-13 0 0 -9z"/>
<path d="M0 2149 c0 -8 7 -24 15 -35 18 -24 19 -7 0 26 -9 16 -14 19 -15 9z"/>
<path d="M328 2143 c7 -3 16 -2 19 1 4 3 -2 6 -13 5 -11 0 -14 -3 -6 -6z"/>
</g>
</svg>
