<svg width="32" height="28" viewBox="0 0 32 28" fill="none" xmlns="http://www.w3.org/2000/svg">
<path fill-rule="evenodd" clip-rule="evenodd" d="M0 11.665V12.0377C0 12.4929 0.60058 13.0935 1.05585 13.0935H2.23593V22.1615C2.23593 25.0623 5.0758 27.9998 8.19843 27.9998H23.6016C26.7028 27.9998 29.564 25.1385 29.564 22.0373V16.6337C29.564 16.1785 28.9635 15.5779 28.5082 15.5779C27.9387 15.5779 27.3672 15.6835 27.1207 16.4263C26.9586 16.9147 27.1971 20.7724 27.071 21.9665C26.8564 23.999 25.4151 25.5154 23.1668 25.5154H8.6332C6.36188 25.5154 4.72031 23.8738 4.72031 21.6025V13.0935H30.7441C31.1994 13.0935 31.8 12.4929 31.8 12.0377V11.665C31.8 11.2097 31.1994 10.6091 30.7441 10.6091H1.05585C0.60058 10.6091 0 11.2097 0 11.665Z" fill="white"/>
<path fill-rule="evenodd" clip-rule="evenodd" d="M4.7207 6.69647V7.06915C4.7207 7.52442 5.32128 8.125 5.77658 8.125C6.79522 8.125 6.90711 7.70871 7.81066 6.80517L10.8229 3.79288C11.7358 2.88004 12.1738 2.7528 12.1738 1.72775C12.1738 1.27245 11.5732 0.671875 11.118 0.671875C10.0993 0.671875 9.98742 1.08816 9.0839 1.9917L6.07159 5.00401C5.73306 5.34252 4.7207 6.16232 4.7207 6.69647Z" fill="white"/>
<path fill-rule="evenodd" clip-rule="evenodd" d="M19.627 1.72775C19.627 2.7464 20.0432 2.85828 20.9468 3.76183L23.9591 6.77412C24.8719 7.68696 24.9991 8.125 26.0242 8.125C26.4795 8.125 27.0801 7.52442 27.0801 7.06915C27.0801 6.05048 26.6638 5.93859 25.7602 5.03507L22.7479 2.02276C21.8351 1.10992 21.7079 0.671875 20.6828 0.671875C20.2275 0.671875 19.627 1.27245 19.627 1.72775Z" fill="white"/>
<path fill-rule="evenodd" clip-rule="evenodd" d="M19.627 16.634V21.9754C19.627 22.4307 20.2275 23.0312 20.6828 23.0312H21.0555C21.5107 23.0312 22.1113 22.4307 22.1113 21.9754V16.634C22.1113 16.1787 21.5107 15.5781 21.0555 15.5781H20.6828C20.2275 15.5781 19.627 16.1787 19.627 16.634Z" fill="white"/>
<path fill-rule="evenodd" clip-rule="evenodd" d="M9.68945 16.634V21.9754C9.68945 22.4307 10.29 23.0312 10.7453 23.0312H11.118C11.5732 23.0312 12.1738 22.4307 12.1738 21.9754V16.634C12.1738 16.1787 11.5732 15.5781 11.118 15.5781H10.7453C10.29 15.5781 9.68945 16.1787 9.68945 16.634Z" fill="white"/>
<path fill-rule="evenodd" clip-rule="evenodd" d="M14.6582 16.634V21.9754C14.6582 22.4307 15.2588 23.0312 15.7141 23.0312H16.0867C16.542 23.0312 17.1426 22.4307 17.1426 21.9754V16.634C17.1426 16.1787 16.542 15.5781 16.0867 15.5781H15.7141C15.2588 15.5781 14.6582 16.1787 14.6582 16.634Z" fill="white"/>
</svg>
