<svg width="20" height="21" viewBox="0 0 20 21" fill="none" xmlns="http://www.w3.org/2000/svg">
<path fill-rule="evenodd" clip-rule="evenodd" d="M9.88174 0.644043C15.3392 0.644043 19.7635 5.06829 19.7635 10.5258C19.7635 15.9833 15.3392 20.4075 9.88174 20.4075C4.42424 20.4075 0 15.9833 0 10.5258C0 5.06829 4.42424 0.644043 9.88174 0.644043ZM4.95745 7.42373C4.95745 8.45288 5.28825 8.97231 5.73125 9.78356C6.51123 11.2119 7.66427 12.4567 8.88076 13.5168L9.28619 13.8388C9.74327 14.1818 10.1971 14.5199 10.6875 14.8157C10.7938 14.8799 10.8891 14.9184 10.9954 14.9834C11.1119 15.0547 11.1916 15.0757 11.318 15.1366C11.4346 15.1926 11.5251 15.2316 11.6546 15.2755C12.2805 15.4884 12.3348 15.4537 12.9594 15.4537C13.2037 15.4537 13.5036 15.3474 13.6581 15.257C14.1742 14.9551 14.806 14.271 14.806 13.6071C14.806 12.9291 13.8976 12.3341 13.374 12.0173C13.2382 11.9351 13.1291 11.8693 12.9715 11.8043C12.2984 11.5265 11.9875 11.3784 11.3813 11.777C10.5616 12.3159 10.6492 12.0077 10.0538 11.5325C9.8212 11.3467 9.63836 11.139 9.42706 10.9281L8.97967 10.4522C8.13015 9.48763 8.14533 9.64739 8.6175 8.95732C9.19287 8.11659 8.67894 7.33021 8.15502 6.63235C7.63081 5.93399 7.06313 5.21495 6.04696 5.82729C5.4589 6.18156 4.95745 6.66882 4.95745 7.42373Z" fill="#E63534"/>
<path fill-rule="evenodd" clip-rule="evenodd" d="M19.7635 0.644043H0V20.4075H19.7635V0.644043ZM7.90539 13.9844L5.43496 10.5258L3.9527 6.57309L5.43496 4.59674L7.90539 5.09083L11.8581 7.56126L14.8226 10.0317L15.8108 13.4903L14.8226 15.9607L12.8463 16.4548L10.8699 15.9607L7.90539 13.9844Z" fill="#E63534"/>
</svg>
