<svg width="20" height="21" viewBox="0 0 20 21" fill="none" xmlns="http://www.w3.org/2000/svg">
<path d="M0 0.259766H19.7635V20.0232H0V0.259766Z" fill="#E63534"/>
<path d="M4.94087 15.0428L8.89357 16.0706L13.3404 15.5567H14.3285L16.3049 12.4736L16.799 7.84894V3.22429H9.38765L4.94087 4.76584L3.9527 8.36279L4.94087 15.0428Z" fill="#0A0A0A"/>
<path d="M13.0439 10.1415C13.0439 10.7669 12.8584 11.3783 12.511 11.8983C12.1635 12.4183 11.6697 12.8236 11.0918 13.063C10.514 13.3023 9.87823 13.3649 9.26484 13.2429C8.65144 13.1209 8.08799 12.8197 7.64576 12.3775C7.20352 11.9353 6.90236 11.3718 6.78034 10.7584C6.65833 10.145 6.72095 9.50921 6.96029 8.9314C7.19962 8.35359 7.60493 7.85973 8.12494 7.51227C8.64495 7.16481 9.25632 6.97935 9.88174 6.97935C10.7201 6.98031 11.5239 7.31377 12.1167 7.90658C12.7095 8.49939 13.0429 9.30314 13.0439 10.1415ZM19.7635 5.79354V14.4895C19.7618 15.9566 19.1783 17.3632 18.1408 18.4006C17.1034 19.438 15.6968 20.0216 14.2297 20.0232H5.53377C4.06664 20.0216 2.66006 19.438 1.62264 18.4006C0.585216 17.3632 0.00166159 15.9566 0 14.4895V5.79354C0.00166159 4.3264 0.585216 2.91983 1.62264 1.88241C2.66006 0.844982 4.06664 0.261427 5.53377 0.259766H14.2297C15.6968 0.261427 17.1034 0.844982 18.1408 1.88241C19.1783 2.91983 19.7618 4.3264 19.7635 5.79354ZM14.625 10.1415C14.625 9.20338 14.3468 8.28633 13.8256 7.50631C13.3044 6.72628 12.5636 6.11833 11.6969 5.75933C10.8302 5.40032 9.87648 5.30639 8.95638 5.48941C8.03628 5.67243 7.19112 6.12418 6.52777 6.78753C5.86441 7.45089 5.41266 8.29605 5.22965 9.21615C5.04663 10.1362 5.14056 11.09 5.49956 11.9567C5.85857 12.8234 6.46652 13.5642 7.24654 14.0854C8.02656 14.6066 8.94362 14.8847 9.88174 14.8847C11.1393 14.8833 12.3449 14.3831 13.2341 13.4939C14.1234 12.6047 14.6236 11.3991 14.625 10.1415ZM16.2061 5.003C16.2061 4.76847 16.1365 4.53921 16.0062 4.3442C15.8759 4.1492 15.6907 3.99721 15.474 3.90746C15.2574 3.81771 15.0189 3.79422 14.7889 3.83998C14.5589 3.88573 14.3476 3.99867 14.1818 4.16451C14.0159 4.33035 13.903 4.54164 13.8572 4.77166C13.8115 5.00169 13.835 5.24011 13.9247 5.45679C14.0145 5.67347 14.1664 5.85867 14.3614 5.98897C14.5565 6.11926 14.7857 6.18881 15.0202 6.18881C15.3347 6.18881 15.6364 6.06388 15.8587 5.8415C16.0811 5.61911 16.2061 5.3175 16.2061 5.003Z" fill="#E63534"/>
</svg>
