<svg width="29" height="29" viewBox="0 0 29 29" fill="none" xmlns="http://www.w3.org/2000/svg">
<path d="M29 14.1265C29 21.9285 22.6268 28.2531 14.7636 28.2531C12.2673 28.2531 9.92219 27.6151 7.88188 26.4954L0 29L2.56972 21.4207C1.27342 19.2921 0.526833 16.7955 0.526833 14.1265C0.526833 6.32458 6.90071 0 14.7636 0C22.6274 0 29 6.32458 29 14.1265ZM14.7636 2.24976C8.16318 2.24976 2.79431 7.5777 2.79431 14.1265C2.79431 16.7253 3.64143 19.1319 5.07436 21.0898L3.57892 25.5007L8.17865 24.0387C10.0685 25.2796 12.3324 26.0033 14.7639 26.0033C21.3633 26.0033 26.7332 20.676 26.7332 14.1272C26.7332 7.57834 21.3637 2.24976 14.7636 2.24976ZM21.9527 17.38C21.8647 17.236 21.6324 17.149 21.2837 16.976C20.9345 16.8029 19.2183 15.9648 18.8993 15.8498C18.5793 15.7344 18.346 15.6764 18.1137 16.0228C17.8814 16.3695 17.2125 17.149 17.0085 17.38C16.8049 17.6117 16.6015 17.6407 16.2522 17.4673C15.9036 17.2943 14.7794 16.9283 13.4463 15.7489C12.4091 14.8312 11.7086 13.6983 11.5049 13.3513C11.3016 13.0049 11.4837 12.8177 11.658 12.6453C11.8152 12.49 12.0073 12.2409 12.1816 12.0389C12.3566 11.8365 12.4146 11.6925 12.5303 11.4611C12.6472 11.2301 12.5889 11.0281 12.5013 10.8544C12.4143 10.6813 11.7157 8.97743 11.425 8.28401C11.1344 7.59123 10.8441 7.70659 10.6401 7.70659C10.4368 7.70659 10.2038 7.67759 9.97117 7.67759C9.73852 7.67759 9.36023 7.76427 9.04027 8.11066C8.72062 8.45737 7.81937 9.29514 7.81937 10.9987C7.81937 12.7026 9.06927 14.3489 9.24423 14.5796C9.41856 14.8103 11.6577 18.4205 15.2053 19.807C18.7533 21.1929 18.7533 20.7305 19.3933 20.6725C20.0326 20.6148 21.4574 19.835 21.7494 19.0269C22.0394 18.2175 22.0394 17.5244 21.9527 17.38Z" fill="black"/>
</svg>
