<svg width="160" height="160" viewBox="0 0 160 160" fill="none" xmlns="http://www.w3.org/2000/svg">
<path d="M118.5 3C141.6 3 157 18.4 157 41.5V56.9" stroke="#E63534" stroke-width="6" stroke-miterlimit="10" stroke-linecap="round" stroke-linejoin="round"/>
<path d="M3 56.9V41.5C3 18.4 18.4 3 41.5 3H85.929" stroke="#E63534" stroke-width="6" stroke-miterlimit="10" stroke-linecap="round" stroke-linejoin="round"/>
<path d="M156.991 103.1V118.5C156.991 141.6 141.591 157 118.491 157H75.9102" stroke="#E63534" stroke-width="6" stroke-miterlimit="10" stroke-linecap="round" stroke-linejoin="round"/>
<path d="M3 103.1V118.5C3 141.6 18.4 157 41.5 157" stroke="#E63534" stroke-width="6" stroke-miterlimit="10" stroke-linecap="round" stroke-linejoin="round"/>
<path d="M39.1836 58.9021L79.9934 82.541L120.495 59.0563" stroke="#E63534" stroke-width="6" stroke-linecap="round" stroke-linejoin="round"/>
<path d="M80 124.43V82.465" stroke="#E63534" stroke-width="6" stroke-linecap="round" stroke-linejoin="round"/>
<path d="M70.4366 36.0335L45.7968 49.7397C40.2528 52.8197 35.6328 60.5967 35.6328 66.9878V93.0908C35.6328 99.4818 40.1758 107.259 45.7968 110.339L70.4366 124.045C75.6726 126.971 84.2966 126.971 89.6096 124.045L114.25 110.339C119.794 107.259 124.414 99.4818 124.414 93.0908V66.9878C124.414 60.5967 119.871 52.8197 114.25 49.7397L89.6096 36.0335C84.2966 33.0305 75.6726 33.0305 70.4366 36.0335Z" stroke="#E63534" stroke-width="6" stroke-linecap="round" stroke-linejoin="round"/>
</svg>
