<svg width="608" height="141" viewBox="0 0 608 141" fill="none" xmlns="http://www.w3.org/2000/svg">
<path d="M373.025 79.7415C374.486 78.2552 376.911 76.5217 378.085 74.4433C380.94 69.3881 385.998 66.7374 393.663 66.9554C401.351 67.1776 406.103 64.6411 410.525 60.4852C422.279 49.4326 424.161 49.3141 441.949 55.8261C443.991 56.5724 446.079 57.2527 448.765 58.1814C451.588 54.5024 454.445 51.0782 456.874 47.5135C458.691 44.8481 460.967 43.5128 465.559 43.3461C468.481 43.2434 472.025 41.8336 473.953 40.2331C476.896 37.7857 479.562 36.8833 483.777 38.292C487.708 39.6084 491.481 39.8369 494.762 37.2008C497.264 35.1894 500.176 34.9452 503.046 36.9126C505.638 38.6871 507.645 38.27 509.962 36.4913C514.737 32.8301 519.49 29.0997 524.878 25.9082C526.514 24.9365 530.216 25.75 532.944 25.554C535.354 25.38 538.673 25.5276 539.957 24.5214C547.883 18.306 557.68 16.7757 568.925 18.0062C571.65 18.306 574.432 18.3657 577.15 18.6949C585.47 19.7 591.575 18.4727 596.124 12.6744C597.863 10.4639 604.298 9.27325 608.743 9.0479C614.654 8.74394 619.357 7.68309 623.542 4.77346C630.691 -0.199949 637.065 -1.03209 645.895 2.49909C650.946 4.52199 655.27 7.50608 659.598 10.2973C662.055 11.8831 663.861 13.9615 665.945 15.8031C668.558 15.322 671.039 14.3127 673.259 14.5422C687.301 15.9771 697.957 10.1609 709.748 6.71047C712.536 5.89712 716.021 5.08386 718.732 5.55342C723.278 6.33743 725.96 5.24619 728.748 3.11323C734 -0.906377 736.809 -1.0247 742.585 2.70667C745.049 4.29984 747.384 6.17498 748.926 8.23457C755.11 16.4876 765.542 18.8458 777.576 17.7075C787.151 16.8051 793.608 18.5167 797.471 24.7804C798.375 26.2488 799.942 27.558 801.451 28.7969C807.079 33.4181 812.704 34.3248 819.05 30.2014C824.681 26.5445 830.071 27.0359 836.525 27.6312C839.844 27.9384 843.839 27.1251 846.851 25.9679C850.072 24.729 852.117 24.2856 854.144 26.7403C856.37 29.4361 859.047 31.98 860.897 34.7942C866.777 43.738 874.209 45.7097 886.793 41.3903C895.726 38.3256 895.926 38.2363 901.154 43.9896C904.29 47.4432 907.941 48.7639 914.067 49.0448C920.084 49.3183 924.941 48.4819 929.964 46.6519C940.081 42.9687 950.143 44.2747 959.937 47.2881C961.601 47.8017 962.797 49.3958 963.716 50.6641C967.355 55.6857 970.892 60.7471 974.281 65.8537C976.57 69.2958 980.663 70.7118 985.219 69.2591C1006.6 62.4368 1023.94 70.5755 1041.5 76.6841C1047.76 78.8579 1052.38 78.9503 1057.94 76.5731C1062.1 74.7944 1066.41 73.1561 1070.85 71.74C1075.38 70.2905 1079.24 71.0043 1081.28 74.4463C1083.73 78.5812 1086.97 81.4385 1094.45 81.276C1096.67 81.2278 1099.24 83.8052 1101.23 85.4319C1103.68 87.437 1105.87 88.5092 1108.98 86.0975C1112.48 83.3954 1114.86 84.4383 1116.33 87.3552C1118.06 90.79 1119.27 94.5392 1126.66 92.1034C1127.45 91.8403 1129.07 92.5277 1130.12 92.9826C1131.56 93.6073 1132.82 94.4217 1134.16 95.1649C1146.98 102.308 1146.98 102.305 1157.67 94.1106C1158.81 93.2343 1160.04 92.4062 1161.24 91.5635C1165.09 88.8604 1168.5 87.8762 1172.54 91.7553C1177.69 96.6879 1184.49 98.7987 1193.74 97.2978C1199.59 96.3471 1205.99 96.1219 1211.16 99.7202C1212.12 100.393 1215.66 100.09 1217.19 99.3795C1220.17 98.0117 1222.55 96.0191 1225.21 94.3106C1229.6 91.4932 1234 91.16 1238.82 93.9816C1243.05 96.4584 1247.6 98.6731 1251.99 101.022C1255.41 102.855 1258.48 103.048 1261.13 100.253C1263.28 97.9824 1265.91 97.5273 1269.88 98.4151C1279.82 100.63 1289.19 102.675 1295.96 109.245C1299.22 112.414 1306.55 113.981 1312.48 115.287C1320.74 117.106 1327.85 119.806 1334.88 123.369C1342.69 127.33 1351.96 129.884 1360.58 133.072C1362.02 133.604 1364.31 134.059 1364.62 134.855C1366.47 139.569 1371.44 139.898 1377.14 139.79C1384.16 139.657 1391.2 139.735 1398.23 139.768C1400.18 139.78 1402.14 139.954 1404 141H1.09859C0.731588 140.615 0.367005 140.227 0 139.843C3.29761 138.182 6.6829 136.596 9.86744 134.836C12.6572 133.294 15.8139 131.837 17.768 129.848C22.2193 125.315 28.3495 123.814 35.7827 123.669C43.8713 123.514 52.0041 123.432 60.0093 122.722C63.3728 122.427 67.2122 121.084 69.5031 119.361C74.0849 115.912 78.521 113.15 85.9101 114.055C87.6079 114.263 89.715 113.76 91.3402 113.179C103.833 108.731 115.786 103.277 128.868 99.9967C136.95 97.9749 144.327 96.2404 151.125 92.3288C153.862 90.7534 160.702 91.6263 165.043 92.6682C170.766 94.0402 175.712 96.9131 181.292 98.6772C184.801 99.7861 189.131 100.999 192.622 100.519C204.083 98.9361 214.586 96.0926 219.483 87.4664C222.621 81.9417 224.444 81.6199 232.797 83.6837C237.91 84.9477 242.675 85.1437 247.44 83.0286C249.212 82.2414 251.283 81.7645 253.26 81.2206C263.836 78.3224 265.171 78.6285 271.325 85.2401C278.598 93.0603 283.41 93.859 293.006 87.5366C301.455 81.971 310.674 78.4074 322.375 78.4849C327.605 78.5185 329.992 76.4693 331.502 73.415C332.191 72.021 332.667 70.4352 333.963 69.3588C335.63 67.9721 338.023 67.0151 340.102 65.8758C341.54 67.2038 342.88 68.5894 344.449 69.8399C345.629 70.7748 347.035 71.5997 348.476 72.347C349.259 72.7495 350.987 72.742 351.17 73.156C353.171 77.7008 357.891 76.6841 362.857 76.5688C365.692 76.5028 368.618 78.2888 373.025 79.7415Z" fill="#212121"/>
</svg>
