<svg width="1850" height="123" viewBox="0 0 1850 123" fill="none" xmlns="http://www.w3.org/2000/svg">
<path fill-rule="evenodd" clip-rule="evenodd" d="M296.929 69.5621C299.129 68.2655 302.782 66.7531 304.55 64.9399C308.852 60.5302 316.471 58.2179 328.018 58.4079C339.599 58.602 346.757 56.3892 353.418 52.7637C371.126 43.1223 373.96 43.0191 400.757 48.6997C403.832 49.3508 406.978 49.9439 411.023 50.7543C415.277 47.5448 419.58 44.5576 423.24 41.4482C425.977 39.1229 429.406 37.9578 436.323 37.8124C440.725 37.7231 446.063 36.4932 448.967 35.0969C453.401 32.9622 457.417 32.175 463.767 33.4038C469.689 34.5521 475.372 34.7513 480.314 32.4517C484.083 30.697 488.47 30.4845 492.794 32.2007C496.698 33.7484 499.722 33.3843 503.211 31.833C510.406 28.6394 517.565 25.3851 525.681 22.6008C528.146 21.7535 533.723 22.4627 537.833 22.2917C541.463 22.1402 546.462 22.2691 548.397 21.391C560.337 15.9692 575.094 14.634 592.035 15.7078C596.141 15.9691 600.332 16.0215 604.424 16.3086C616.959 17.1852 626.155 16.1145 633.008 11.0563C635.627 9.128 645.322 8.08964 652.017 7.89296C660.921 7.62747 668.006 6.7026 674.31 4.16424C685.08 -0.174524 694.681 -0.900116 707.983 2.18C715.592 3.94499 722.106 6.54803 728.625 8.98265C732.327 10.3661 735.048 12.1794 738.187 13.7857C742.123 13.3661 745.86 12.4854 749.205 12.6857C770.358 13.9377 786.409 8.86404 804.172 5.85376C808.372 5.14458 813.622 4.43487 817.706 4.84466C824.553 5.52817 828.594 4.57662 832.794 2.71612C840.706 -0.790739 844.937 -0.893965 853.638 2.36127C857.35 3.75086 860.867 5.38644 863.191 7.18326C872.506 14.3829 888.22 16.4401 906.349 15.4469C920.773 14.6597 930.5 16.153 936.318 21.6169C937.681 22.8982 940.042 24.0402 942.315 25.1207C950.793 29.1519 959.266 29.9432 968.825 26.3459C977.308 23.1559 985.428 23.5847 995.151 24.1039C1000.15 24.372 1006.17 23.6623 1010.71 22.6532C1015.56 21.5722 1018.64 21.1855 1021.69 23.3269C1025.05 25.6784 1029.08 27.8978 1031.86 30.3525C1040.72 38.1544 1051.92 39.8742 1070.87 36.1065C1084.33 33.4331 1084.63 33.355 1092.51 38.3742C1097.23 41.3866 1102.73 42.5389 1111.96 42.7839C1121.03 43.0227 1128.34 42.2929 1135.91 40.6964C1151.15 37.4833 1166.31 38.6228 1181.06 41.2515C1183.57 41.6993 1185.37 43.0899 1186.75 44.1966C1192.23 48.5769 1197.56 52.9922 1202.67 57.4471C1206.12 60.4496 1212.28 61.6852 1219.14 60.4178C1251.35 54.4666 1277.47 61.566 1303.93 66.8949C1313.35 68.7913 1320.32 68.8714 1328.69 66.7978C1334.96 65.2465 1341.46 63.8173 1348.13 62.5818C1354.97 61.3175 1360.79 61.9399 1363.85 64.943C1367.54 68.55 1372.42 71.0421 1383.69 70.9004C1387.03 70.8583 1390.91 73.107 1393.9 74.5259C1397.6 76.2749 1400.89 77.2105 1405.59 75.1066C1410.85 72.7496 1414.43 73.659 1416.65 76.2035C1419.26 79.2 1421.09 82.4706 1432.21 80.3456C1433.41 80.1161 1435.84 80.7159 1437.42 81.1128C1439.59 81.6577 1441.5 82.3679 1443.5 83.0165C1462.82 89.2476 1462.82 89.245 1478.93 82.0967C1480.65 81.3321 1482.49 80.6101 1484.3 79.8747C1490.11 77.5166 1495.24 76.658 1501.33 80.0421C1509.09 84.345 1519.33 86.1865 1533.27 84.877C1542.07 84.0476 1551.71 83.8509 1559.5 86.9901C1560.95 87.5771 1566.28 87.3126 1568.59 86.6928C1573.08 85.4999 1576.66 83.7616 1580.67 82.2713C1587.28 79.8136 1593.91 79.523 1601.17 81.9843C1607.54 84.1447 1614.39 86.0765 1621.01 88.1255C1626.16 89.7246 1630.78 89.8931 1634.78 87.4543C1638.02 85.4742 1641.98 85.0772 1647.96 85.8516C1662.93 87.7835 1677.05 89.5675 1687.24 95.2984C1692.16 98.0638 1703.2 99.4308 1712.14 100.57C1724.58 102.156 1735.29 104.512 1745.88 107.62C1757.65 111.075 1771.61 113.304 1784.59 116.084C1786.76 116.549 1790.21 116.946 1790.68 117.639C1793.47 121.752 1800.95 122.039 1809.53 121.945C1820.11 121.829 1830.71 121.896 1841.31 121.926C1844.25 121.936 1847.19 122.087 1850 123H-263.345C-263.898 122.665 -264.447 122.326 -265 121.991C-260.032 120.542 -254.933 119.158 -250.136 117.623C-245.933 116.278 -241.178 115.007 -238.234 113.272C-231.529 109.317 -222.294 108.008 -211.097 107.882C-198.912 107.746 -186.661 107.675 -174.601 107.056C-169.535 106.798 -163.751 105.627 -160.3 104.124C-153.398 101.115 -146.715 98.7057 -135.584 99.4955C-133.027 99.6762 -129.853 99.2377 -127.404 98.7308C-108.585 94.8506 -90.5783 90.0934 -70.8721 87.2315C-58.6973 85.4675 -47.5835 83.9547 -37.3434 80.5423C-33.2204 79.1681 -22.9164 79.9297 -16.3778 80.8386C-7.75674 82.0351 -0.305603 84.5416 8.10059 86.0802C13.3859 87.0476 19.9081 88.1055 25.1677 87.687C42.4323 86.3061 58.2539 83.8258 65.6314 76.3006C70.3575 71.4811 73.1046 71.2003 85.6875 73.0007C93.3893 74.1032 100.567 74.2742 107.745 72.4291C110.416 71.7426 113.535 71.3266 116.514 70.8521C132.445 68.324 134.457 68.591 143.726 74.3584C154.683 81.1806 161.932 81.877 176.388 76.3617C189.115 71.5069 203.003 68.398 220.629 68.4657C228.508 68.495 232.104 66.7074 234.378 64.0433C235.416 62.8267 236.133 61.4438 238.086 60.5046C240.596 59.2947 244.201 58.4602 247.333 57.4661C249.499 58.6246 251.517 59.8334 253.882 60.9241C255.659 61.7396 257.777 62.4596 259.948 63.1112C261.127 63.4625 263.73 63.4558 264.007 63.8173C267.02 67.7817 274.131 66.8949 281.611 66.7942C285.881 66.7367 290.29 68.2947 296.929 69.5621Z" fill="#141414"/>
</svg>
