<svg width="1100" height="389" viewBox="0 0 1100 389" fill="none" xmlns="http://www.w3.org/2000/svg">
<path d="M-64 295.574C-64 191.979 32.4819 108 151.5 108C270.518 108 367 191.979 367 295.574C367 308.745 365.433 321.596 362.466 334H-59.466C-62.4331 321.596 -64 308.745 -64 295.574Z" fill="#E63534"/>
<path fill-rule="evenodd" clip-rule="evenodd" d="M257.41 126.955C256.346 125.413 254.801 124.553 253.914 122.809C252.977 120.989 247.91 114.112 246.694 112.09C246.491 111.686 245.832 110.801 245.883 110.371C245.908 109.84 246.339 109.916 246.162 109.234C245.984 108.475 244.869 107.338 244.059 107.489C244.084 106.529 242.691 104.885 242.209 104.051C241.627 103.116 241.019 102.408 241.196 101.271C241.348 100.234 241.652 99.122 241.728 98.0853C241.93 95.507 241.019 93.8636 239.473 91.9426C238.84 91.1589 238.232 90.3247 237.446 89.6675C236.686 89.0608 235.825 88.6059 235.191 87.9231C234.558 87.2404 234.254 86.1788 233.773 85.3446C233.266 84.5357 232.81 83.6005 232.126 82.8421C231.847 82.4881 231.188 82.2098 231.163 81.8053C231.087 81.3756 231.923 80.5667 231.923 80.5667C231.923 80.5667 230.707 78.6709 230.074 78.0642C229.44 77.4572 228.604 76.8505 228.047 76.2438C227.439 75.5614 227.084 74.702 226.425 73.994C225.007 72.3761 216.595 66.9663 215.455 66.688C216.849 67.4721 217.786 69.3174 219.078 70.5055C220.016 71.365 221.232 72.4017 221.84 73.539C220.522 72.4269 219.306 71.2132 217.862 70.3285C216.443 69.3931 215.354 68.2302 213.707 67.7248C211.68 67.1178 208.995 67.7248 206.841 67.7248C205.549 67.7248 204.586 67.7497 203.396 67.1938C202.787 66.9155 200.862 65.9804 200.38 66.2583C201.926 66.3344 203.674 67.4973 204.916 68.3315C206.208 69.1909 207.322 69.5448 208.767 69.8733C204.916 69.8985 200.837 68.0784 197.822 65.7021C194.756 63.2501 190.677 63.8568 187.054 65.0954C188.523 64.514 190.069 64.8175 191.64 65.0197C193.641 65.2724 195.364 65.6516 197.087 66.865C198.328 67.7497 199.544 68.6851 200.811 69.5445C201.521 69.9995 202.306 70.3535 203.142 70.581C203.928 70.7832 205.042 70.48 205.777 70.8592C202.559 70.7832 199.595 70.6822 196.834 68.9631C195.643 68.2046 194.325 66.8142 192.932 66.5615C191.538 66.3088 190.044 66.713 188.6 67.0922C189.714 67.067 190.855 67.5219 191.918 67.8002C193.388 68.2046 194.705 68.6596 196.023 69.418C195.491 69.2666 194.883 68.9123 194.351 68.8871C193.667 68.8113 192.856 69.0388 192.172 69.1398C191.285 69.2915 190.424 69.4685 189.588 69.8225C189.157 69.1905 188.777 68.5331 188.194 68.0024C187.992 67.8002 187.738 67.5727 187.485 67.3957C187.409 67.3957 187.333 67.4209 187.283 67.4209C187.358 67.3957 187.384 67.3449 187.46 67.3449C185.788 66.1315 183.71 65.8788 181.633 66.4098C180.416 66.7382 179.631 66.9404 178.339 66.3845C177.3 65.9296 176.338 65.2469 175.375 64.6654C173.475 63.5277 171.448 62.3903 169.649 61.1009C167.749 59.7361 166.077 58.2697 164.354 56.677C163.341 55.7416 162.682 54.7557 161.466 54.0985C160.529 53.5928 159.642 53.3148 158.603 53.1378C156.5 52.7333 154.955 51.3177 153.156 50.2813C151.002 49.0679 149.609 47.3995 147.861 45.7561C146.239 44.2143 145.15 42.3939 143.402 41.0543C142.591 40.4223 142.008 40.0431 140.995 39.7396C140.184 39.4869 138.816 39.3099 138.157 38.7032C138.183 38.501 138.309 38.1722 138.36 37.9448C140.538 38.9815 139.981 36.3777 140.437 35.1895C140.691 34.5828 141.223 34.0771 141.4 33.4451C141.653 32.6362 141.552 32.2317 142.261 31.726C142.793 31.3215 143.477 31.1193 143.933 30.5378C144.339 30.0072 144.465 29.3244 144.693 28.7177C145.124 27.5296 145.453 25.8612 145.985 24.8753V24.1673C147.962 24.4961 149.279 20.9821 149.279 19.4655C149.279 17.1901 148.24 15.1426 147.024 13.2972C145.96 11.6286 144.997 10.2634 143.528 8.79732C137.878 2.98304 127.617 1.97185 125.717 3.13446C127.795 3.1597 129.948 2.73002 131.975 4.42391C130.125 4.39867 128.757 4.87886 127.009 5.46032C125.996 5.8143 125.894 5.61207 125.185 4.95489C124.653 4.49994 124.07 4.06991 123.437 3.84243C122.576 3.56448 121.714 3.84243 120.853 3.84243C120.067 3.84243 119.611 3.48878 119.003 3.03352C117.458 1.92109 117.103 0.075722 115.152 0C116.444 0.429707 117.838 3.03352 118.547 4.24692C117.128 3.5645 116.09 2.35078 114.544 1.84535C112.923 1.33961 110.896 1.23866 109.528 0.73292C110.11 2.65429 112.492 1.5166 113.987 2.09806C115.304 2.62873 117.432 3.89292 117.813 5.33379C117.179 4.82837 116.394 4.65138 115.558 4.65138C114.62 4.62613 111.403 3.36195 108.971 4.65138C109.655 4.62613 114.443 5.23283 116.774 5.58651C114.95 5.43506 112.695 6.09225 111.555 7.43185C113.126 6.5472 114.62 5.5865 116.571 6.24368C118.041 6.74941 119.763 8.03856 120.675 9.20148C119.105 8.44303 116.926 8.51875 115.279 8.92321C113.708 9.32768 111.529 9.85865 109.908 9.07496C109.553 8.89796 109.224 8.54399 108.869 8.39224C108.464 8.21524 108.16 8.19001 107.755 8.0638C106.893 7.86157 106.209 7.60886 105.297 7.53282C103.498 7.38138 101.446 7.88681 99.7486 8.49351C101.218 8.77146 102.865 8.13953 104.435 8.2408C105.576 8.31652 107.805 8.77144 108.438 9.90912C106.792 10.0861 105.322 9.93436 103.853 9.37814C102.434 8.84747 100.736 8.6705 99.2417 9.45419C101.395 8.74622 103.574 10.6676 105.499 10.1369C102.789 11.3503 98.8111 10.7689 97.0881 8.16507C97.0123 8.87274 97.1643 9.37847 97.4935 9.80818C96.3027 8.92321 94.656 7.73535 93.3893 7.83631C94.1747 8.46825 97.4429 10.8701 98.3551 11.4008C97.2402 11.5778 95.112 9.93467 93.9468 10.1117C94.7066 10.6931 96.303 11.2998 97.2402 11.5273C97.8483 11.6787 98.9122 12.7659 99.3938 13.0944C98.5325 13.4231 97.3923 12.9934 96.3786 12.8164C95.5173 12.6647 94.048 11.4513 93.1611 12.1084C93.4905 12.6394 94.3771 12.9174 94.9093 13.1196C93.9718 12.9426 93.1105 12.766 92.2239 12.5129C91.2864 12.2602 90.5009 11.704 89.5381 11.704C90.2477 12.1085 91.0331 12.5129 91.8182 12.6647C92.5783 12.8161 94.4533 12.9931 94.656 13.979C93.8959 13.5493 92.1985 13.8276 91.5396 14.3078C91.9703 14.9902 95.3399 14.0295 94.9852 15.4452C94.8334 15.9761 93.7944 16.2292 93.3637 16.2544C92.4265 16.3301 91.945 15.9761 91.3875 15.2429C90.9822 14.7375 90.881 14.2065 90.6021 13.6758C90.2477 13.0439 89.7914 12.7151 89.1075 12.3612C88.1447 11.8557 87.0045 11.5775 85.9658 11.7797C87.0804 11.6283 88.1953 12.8414 88.8286 13.6758C89.0819 14.0043 89.4113 14.1813 89.614 14.5352C89.8167 14.8889 89.7914 15.2429 89.9688 15.6474C90.3232 16.5068 90.9313 16.3554 91.6155 16.6841C89.6899 16.6841 86.1429 17.493 85.3578 19.6163C86.2444 18.9844 86.903 18.1502 87.942 17.8723C89.006 17.5435 89.5887 17.8722 90.4753 18.302C90.5006 18.3777 90.5006 18.4534 90.5515 18.5042C91.4128 18.7064 91.4128 19.7176 92.6289 19.5406C91.4887 19.8943 88.17 21.1837 87.7896 19.5406C87.9673 20.3495 89.0819 21.1837 89.7914 21.5377C90.2473 21.7904 91.2607 20.7792 91.7929 20.8297C92.1982 20.855 93.0851 20.6275 93.1863 21.108C93.2116 21.285 92.553 22.2457 92.4771 22.5236C92.3251 23.0294 92.2239 23.5853 92.2239 24.091C92.2239 24.8492 92.553 26.3156 93.4146 26.6191C92.984 25.7341 92.6039 24.1163 93.3893 23.3073C93.7947 24.015 93.5667 25.0514 94.1491 25.7594C94.7572 26.5175 95.3905 26.1891 96.2265 25.9364C95.6947 25.9364 94.656 25.3044 94.2506 24.5712C94.8334 25.0009 96.1507 24.369 96.8602 24.369C96.2521 24.091 94.9346 24.8239 94.4533 24.192C94.0227 23.6105 93.8453 22.6501 94.0227 21.9674C94.3771 20.4 96.1254 20.3243 97.4682 20.6023C98.8617 20.931 100.103 22.2457 101.471 21.5377C107.83 18.2259 102.611 21.3862 103.017 23.3578C106.057 19.7428 107.856 18.2259 109.857 19.0349C108.97 19.7428 107.704 20.1473 107.324 21.0572C108.109 20.299 110.085 19.5911 111.124 19.2119C110.845 19.9198 110.668 20.577 110.085 21.108C109.629 21.5377 108.362 21.3607 108.362 21.9929C109.781 22.3466 110.769 20.8805 111.757 20.1726C112.72 19.5406 115.228 19.3888 115.608 20.7543C114.113 21.0323 112.821 20.9565 111.605 21.8917C110.414 22.7766 108.92 23.2568 107.805 24.1667C108.768 23.7623 109.908 23.8888 110.921 23.383C111.808 22.9281 112.213 22.3466 113.328 22.4984C112.796 24.3437 109.604 25.6076 108.135 26.5683C104.663 28.9193 100.762 31.5231 98.1524 34.8854C95.3908 38.4499 92.8825 42.798 91.3878 47.0194C90.5771 49.2947 89.7664 51.595 88.9557 53.8704C88.0182 56.4742 83.6858 70.4538 83.5593 71.566C83.4578 72.4254 83.1033 74.1445 83.6604 74.8525C81.8111 74.5742 79.5563 78.4166 81.1272 79.7313C80.6712 80.515 79.9869 81.223 79.4548 82.0064C78.8215 83.0175 78.695 84.2565 78.695 84.2565C78.695 84.2565 73.6786 85.2676 71.981 86.405C70.309 87.5175 69.1941 89.2366 68.8393 91.1072C68.5861 92.4215 68.6366 93.357 68.814 94.6713C68.9155 95.4298 70.0051 98.8173 70.0051 98.8173C69.3968 98.5393 68.5102 98.5393 67.8515 98.4128C67.0661 98.2614 66.3566 98.0591 65.5715 97.9578C63.9501 97.7051 62.531 97.0227 60.9858 96.6687C57.9453 95.986 55.1078 97.9579 53.1063 100.309C53.081 100.233 53.0304 100.233 52.9545 100.233C51.9158 100.334 50.4209 99.8287 49.3822 99.6514C48.1914 99.4492 47.0512 99.3735 45.8099 99.3735C43.3777 99.3735 41.123 99.778 38.792 99.955C36.2837 100.157 34.181 99.424 31.7742 99.247C29.2658 99.07 26.7069 99.2217 24.3256 99.8287C11.1512 103.115 -4.07555 116.412 -5.44341 117.524C-5.62079 117.676 -5.77287 117.803 -5.95026 117.954C-6.73568 118.055 -7.52078 118.207 -8.02763 118.232C-9.85174 118.409 -11.4985 118.99 -13.1708 119.648C-16.4898 121.013 -19.2259 123.389 -21.7595 125.917C-24.0396 128.192 -25.4839 130.872 -27.8145 133.046C-30.044 135.119 -32.0708 137.47 -34.2244 139.644C-33.0842 138.962 -31.8934 138.026 -30.652 137.419C-31.1842 139.417 -33.8443 141.515 -35.1872 143.31C-36.6565 145.281 -38.3288 147.051 -39.8491 148.947C-43.4211 153.447 -46.7402 155.899 -52.3393 157.087C-51.8074 157.264 -50.8446 157.416 -50.1607 157.669C-51.7312 158.857 -53.0235 160.98 -53.5303 162.725C-54.1384 164.899 -54.8476 166.441 -56.0384 168.514C-58.8253 173.519 -62.6256 169.803 -66.122 167.705C-66.1979 169.095 -63.5378 170.89 -62.4482 171.37C-60.6494 172.179 -58.1919 172.482 -56.4437 171.345C-56.0893 172.912 -58.1666 177.235 -59.5854 178.095C-61.3336 179.156 -63.5631 176.426 -64.7286 175.086C-68.0476 171.37 -69.9476 166.188 -70.4545 161.334C-71.9491 163.736 -68.9089 169.752 -67.7434 172.078C-66.3753 174.834 -64.3738 178.246 -61.3336 179.283C-66.8059 179.207 -72.4809 177.892 -77.4723 176.451C-76.0536 178.246 -71.6452 178.348 -69.5675 178.701C-67.0339 179.131 -64.4244 179.662 -61.9164 179.915C-63.7152 181.836 -66.9327 182.14 -69.5675 181.886C-71.0625 181.735 -74.1533 181.204 -76.1042 180.344C-72.633 182.266 -68.7315 182.67 -64.7538 183.1C-67.186 185.501 -71.2652 185.704 -74.3815 185.881C-78.2071 186.133 -81.5259 185.021 -81.5259 180.749C-81.5259 177.968 -78.5872 174.075 -80.4619 171.674C-82.3875 169.171 -87.4039 169.954 -89.5068 171.496C-87.4801 170.106 -84.1863 170.081 -82.1086 171.319C-79.778 172.71 -81.5259 175.819 -82.1086 177.892C-82.8182 180.521 -82.6408 182.291 -81.0446 184.541C-80.158 185.779 -79.1193 187.246 -77.9033 188.358C-79.1446 187.853 -80.9435 187.726 -81.8304 187.322C-83.6292 186.538 -85.225 185.173 -86.3399 183.605C-88.1893 181.027 -89.5321 175.693 -92.6738 174.505C-91.0015 177.033 -89.5321 179.94 -87.6065 182.24C-86.3143 183.732 -84.769 186.234 -82.8943 187.676C-87.9107 185.4 -93.0792 182.114 -98.3488 181.608C-93.7378 184.894 -87.1506 185.046 -83.1223 189.066C-84.7943 188.257 -87.2774 186.967 -89.3042 186.74C-91.6348 186.538 -94.0673 187.169 -96.1699 186.108C-99.9702 184.111 -103.923 181.052 -108.179 181.836C-105.747 183.125 -102.96 183.226 -100.477 184.414C-98.2982 185.451 -95.7899 187.65 -93.3577 187.7C-95.6884 189.167 -99.4634 186.664 -101.617 185.552C-104.049 184.313 -108.306 182.67 -110.991 183.631C-108.888 183.302 -104.277 185.198 -103.086 186.992C-104.885 187.271 -107.368 186.664 -109.065 186.209C-110.864 185.703 -112.258 182.998 -113.601 182.821C-113.195 184.01 -109.978 187.877 -108.888 188.206C-110.611 187.7 -111.321 187.069 -113.347 187.069C-115.349 187.069 -117.072 187.65 -119.073 187.65C-119.504 187.65 -120.01 187.65 -120.543 187.65C-117.527 187.751 -115.07 188.509 -112.03 188.459C-114.183 189.217 -115.881 189.217 -118.212 189.394C-119.326 189.495 -121.429 189.925 -123 189.799C-120.036 190.759 -116.717 191.796 -113.727 190.835C-114.766 191.113 -115.982 191.72 -117.173 191.897C-114.234 191.821 -109.37 191.619 -107.444 193.363C-109.446 193.11 -111.016 193.388 -113.068 193.565C-114.487 193.666 -116.134 194.071 -117.527 193.767C-114.158 194.905 -111.118 194.121 -107.621 194.779C-104.302 195.385 -101.338 197.18 -97.9182 197.66C-100.705 200.239 -105.392 196.043 -108.686 196.169C-106 198.52 -101.997 198.495 -98.7795 199.026C-96.9301 199.354 -94.6753 199.101 -92.775 199.607C-90.9256 200.113 -89.4816 201.427 -87.8345 202.388C-84.2116 204.536 -80.3607 205.093 -76.1803 205.017C-74.0774 204.992 -71.8985 204.334 -69.897 203.879C-68.1491 203.475 -65.9193 202.236 -64.222 202.211C-64.5006 204.461 -69.2637 205.447 -71.0625 205.952C-74.0774 206.761 -77.3455 206.281 -80.5125 206.458C-81.9312 206.534 -83.7556 206.635 -85.0982 206.18C-86.4664 205.725 -87.3783 204.764 -88.5946 203.955C-90.4946 202.717 -93.0283 200.846 -95.1309 200.29C-94.067 204.107 -87.8598 206.761 -84.5155 207.595C-79.7271 208.809 -75.0655 208.531 -70.2009 207.52C-67.9714 207.065 -66.4765 206.281 -64.5512 205.245C-62.6259 204.208 -60.447 203.525 -58.3949 202.54C-54.4931 200.568 -50.0848 199.228 -46.3857 196.826C-43.2443 194.804 -40.1533 192.503 -37.4173 189.95C-38.2027 191.189 -38.8866 192.579 -39.672 193.843C-40.3559 194.956 -41.4199 195.689 -42.0789 196.801C-40.5333 195.436 -38.7598 194.45 -37.5437 192.756C-36.353 191.113 -35.5675 189.268 -34.5288 187.548C-33.1101 185.147 -30.1205 180.672 -27.4095 179.939C-32.9833 185.981 -31.3872 194.349 -36.7074 200.416C-33.6925 199 -32.8565 196.624 -31.5899 193.717C-30.9565 196.75 -30.0949 199.279 -30.1964 202.666C-29.1324 200.517 -30.1202 198.343 -30.475 196.194C-30.8297 193.944 -30.9818 191.922 -30.7282 189.621C-30.2976 185.526 -27.9416 181.911 -24.0651 179.99C-20.0875 177.993 -15.4006 178.953 -11.2708 177.917C-8.5854 177.234 -6.00085 175.743 -4.48092 173.569C-3.61961 174.504 -2.8089 175.389 -1.97258 176.35C1.14379 180.091 4.8679 183.554 8.44022 186.942C10.0616 188.484 11.0244 190.253 12.5953 191.795C16.0661 195.183 16.7756 200.719 16.8768 202.287C17.0289 204.005 16.9021 205.724 17.0545 207.469C17.4599 212.07 17.5105 217.277 16.7757 221.752C16.345 224.356 15.3569 226.505 15.3569 229.184C15.3569 230.296 17.9664 234.189 18.9292 234.72C22.8307 236.894 26.631 239.549 30.0512 242.507C31.9515 244.15 33.8515 245.641 35.7009 247.284C37.4998 248.902 47.5834 259.848 49.509 264.449C49.9649 265.511 50.1929 266.598 50.2688 267.736C50.345 268.924 50.4209 270.365 51.2316 271.351C51.9408 272.21 53.3343 272.64 54.2718 273.171C55.1587 273.676 55.8932 274.182 56.8054 274.485C57.1346 275.193 56.9828 275.876 56.7292 276.483C56.5774 276.761 55.7667 277.367 55.5894 277.62C54.956 278.556 56.1212 280.553 54.5759 281.185C53.5622 282.929 55.1078 284.825 55.9438 286.19C56.9066 287.757 58.3 288.819 59.9977 289.754C61.5429 290.614 63.5444 291.296 65.1408 291.726C66.8128 292.181 68.789 292.484 70.4358 291.701C70.5373 290.336 70.6132 288.869 70.6132 287.454C70.6132 286.518 69.9292 283.965 70.7146 283.308C70.892 284.066 71.1453 285.583 71.7533 286.164C72.5132 286.872 74.5402 286.847 75.6042 287.024C77.9352 287.428 80.2661 288.414 80.4688 291.018C80.6462 293.344 79.4048 295.442 79.9367 297.692C80.114 298.501 81.1274 299.36 81.9129 299.765C82.9769 300.296 84.0917 299.79 85.2063 299.588C89.7161 298.779 94.5804 298.728 98.9128 297.414C98.989 296.706 92.7563 290.285 91.3629 288.844C89.8935 287.277 88.1706 286.341 86.4986 285.001C84.7504 283.611 83.6105 281.791 82.0646 280.148C81.2033 279.212 80.57 278.403 79.9114 277.316C79.3792 276.432 79.2271 275.521 78.8474 274.612C77.9099 272.538 76.6176 271.047 75.0471 269.429C73.4003 267.76 72.3614 265.586 71.1959 263.615C69.9039 261.466 65.0397 253.301 63.8995 251.329C61.6191 247.335 61.3911 242.658 60.5804 238.183C60.1498 235.908 58.6548 222.257 58.8322 221.195C59.0349 220.083 59.6176 219.097 59.8709 218.061C60.403 215.988 60.0483 213.637 59.8709 211.488C59.6935 209.263 59.4655 206.887 59.1617 204.637C58.984 203.449 57.92 196.472 57.7426 195.359C57.5652 194.247 58.2747 190.708 58.1733 189.646V188.787C58.984 189.394 59.795 190.026 60.6057 190.607C61.6191 191.315 62.6325 191.795 63.7471 192.326C65.9006 193.388 67.8515 194.905 70.1825 195.638C70.5879 195.789 70.9932 195.916 71.4239 196.042C70.6638 197.407 69.8024 198.722 68.9914 199.708C68.6369 200.138 68.2822 200.492 67.9274 200.744C65.0646 202.893 62.3536 205.32 62.3536 205.32C62.3536 205.32 67.801 203.045 69.2194 201.478C69.9036 200.719 71.2212 198.469 72.4373 196.346C72.7917 196.447 73.1465 196.548 73.5013 196.699C71.8292 200.795 69.2194 207.115 68.6366 207.772C67.7753 208.783 71.0691 205.926 71.0691 205.926L74.8188 197.104C75.8322 197.382 76.7947 197.685 77.7828 197.963C78.1123 198.039 78.4161 198.14 78.7456 198.216C83.4072 200.895 89.437 204.081 92.2239 204.207C94.9349 204.359 99.5965 204.005 103.169 203.626C103.144 203.778 103.143 203.879 103.093 204.055C102.916 205.294 102.561 206.558 103.093 207.772C103.625 208.985 106.893 212.423 107.628 213.232C108.996 214.774 110.77 215.76 112.214 217.226C113.582 218.617 114.367 220.361 115.254 222.055C117.357 226.1 119.713 230.372 122.576 234.012C123.995 235.807 125.413 237.551 127.085 239.068C128.808 240.686 130.582 242.127 131.975 244.023C133.09 245.515 134.61 247.512 134.99 249.307C135.446 251.835 133.977 253.023 131.798 253.705C129.695 254.337 127.212 253.806 124.958 254.034C122.424 254.236 120.068 254.236 117.509 254.034C116.318 253.933 115.254 253.604 114.063 253.604C113.557 253.604 112.822 253.705 112.442 253.351C112.087 252.997 112.188 252.543 111.808 252.138C109.959 250.318 107.552 253.351 105.753 253.174C102.966 252.922 104.183 249.18 102.029 248.321C100.027 247.512 97.3167 249.029 95.4417 249.711C93.1108 250.52 90.856 251.556 88.8545 253.073C87.7396 253.882 84.8515 255.829 85.3075 257.472C87.8158 258.18 90.3239 259.57 92.8828 260.48C94.1747 260.91 95.4667 261.112 96.7337 261.542C97.7977 261.896 99.5965 262.073 100.306 260.935C102.89 261.896 104.486 264.828 107.02 266.042C108.591 266.8 109.857 266.8 111.454 266.37C112.923 265.966 114.316 265.41 115.735 264.828C120.397 262.983 125.439 263.413 130.328 262.654C132.609 262.301 134.838 261.643 137.042 261.795C139.322 261.946 141.4 262.831 143.376 261.264C145.276 259.722 146.138 257.801 147.303 255.803C148.367 253.983 149.457 251.759 148.925 249.66C148.317 247.259 147.354 244.883 146.239 242.658C145.125 240.433 144.314 237.905 143.478 235.529C142.667 233.254 138.791 224.785 138.613 222.535C138.436 220.21 138.157 218.036 137.727 215.836C137.701 215.634 137.65 215.406 137.625 215.204C138.917 214.446 140.209 213.738 141.476 212.98C142.718 212.272 143.908 211.413 145.023 210.528C145.986 212.272 146.949 213.915 148.925 214.749C150.926 215.609 153.46 216.241 155.639 216.418C160.402 216.822 164.785 218.92 169.421 219.957C170.536 220.21 175.4 220.918 176.718 221.018C179.226 221.196 181.557 221.6 183.989 221.979C186.345 222.384 188.828 222.687 191.133 223.37C192.197 223.698 193.11 224.001 194.148 224.305C195.567 224.709 195.364 225.518 195.694 226.833C195.947 227.869 196.555 228.754 196.454 229.841C196.352 230.979 195.39 235.276 195.263 236.414C195.162 237.476 194.68 238.335 194.326 239.296C192.831 243.366 191.741 247.537 189.892 251.43C189.03 253.225 187.561 254.464 186.041 255.702C184.293 257.118 186.142 259.267 186.142 261.239C186.142 263.488 185.433 265.561 184.115 267.331C183.609 268.039 183.077 269.227 182.291 269.682C181.759 270.011 180.872 269.935 180.29 270.188C179.682 270.39 179.175 270.643 178.567 270.82C177.604 271.072 176.464 271.275 175.881 272.109C175.374 272.867 174.994 273.828 174.741 274.687C172.132 284.218 182.038 289.855 183.001 289.931C185.534 290.083 185.433 287.049 186.117 285.33C186.547 284.269 187.08 283.358 187.612 282.398C188.22 281.361 188.296 280.325 188.752 279.212C189.563 277.291 190.474 275.547 190.855 273.499C191.31 271.098 192.425 269.606 194.047 267.786C195.618 265.966 197.34 264.298 197.873 261.921C198.126 260.784 197.974 259.494 198.151 258.357C198.329 257.143 198.506 255.955 198.759 254.792C199.367 252.037 200.609 249.332 201.445 246.652C201.774 245.54 202.306 244.579 202.762 243.517C203.016 242.911 203.345 242.279 203.573 241.672C203.725 241.318 205.119 235.681 205.727 233.962C206.36 232.243 208.007 230.903 208.615 229.007C209.299 226.858 208.589 224.431 208.007 222.409C207.475 220.437 206.588 218.566 205.6 216.797C204.586 215.002 202.712 214.168 200.989 213.232C199.063 212.196 197.011 211.387 195.085 210.3C193.059 209.188 191.007 208.454 189.284 206.811C187.713 205.32 186.142 203.879 184.419 202.539C183.659 201.933 182.849 201.579 182.241 200.871C181.556 200.062 180.999 199.253 180.518 198.292C180.112 197.483 179.656 196.725 179.048 196.042C178.77 195.714 178.415 195.436 178.111 195.107C177.579 194.526 177.579 194.677 177.832 194.045C178.187 193.034 181.835 183.832 182.241 181.734C183.102 177.209 184.521 172.912 184.521 168.184C184.521 166.01 184.09 163.533 183.229 161.611C183.127 161.409 183.026 161.182 182.874 160.98C184.115 159.488 185.458 158.098 186.801 156.581C190.094 153.016 193.692 149.831 197.67 147.05C199.595 145.686 207.221 141.742 208.716 140.048C211.326 140.907 214.011 141.438 216.823 140.907C220.218 140.275 223.664 139.163 226.704 137.52C228.022 136.812 229.339 136.155 230.555 135.295C230.657 135.22 230.808 135.118 230.91 135.017C232.987 136.079 234.989 137.242 235.673 137.773C236.56 138.531 236.686 139.947 237.32 140.832C237.827 141.539 238.46 142.07 239.119 142.626C240.183 143.562 240.512 144.093 241.88 143.865C242.412 143.764 242.944 143.789 243.451 143.536C243.882 143.334 244.084 142.778 244.591 142.727C245.655 142.525 246.516 143.587 247.733 143.132C248.771 142.727 249.101 141.666 250.013 141.464C250.621 141.312 251.128 141.438 251.736 141.186C252.242 140.983 252.698 140.756 253.129 140.427C253.839 139.922 254.928 139.239 255.283 138.43C255.865 137.191 254.75 136.509 254.497 135.422C254.294 134.486 255.283 133.45 255.789 132.742C257.258 131.025 258.905 129.078 257.41 126.955ZM-13.3488 159.894C-14.2357 161.563 -14.717 165.001 -15.325 165.987C-14.5396 163.56 -14.2101 161.841 -14.1342 159.313C-14.2354 159.565 -14.3369 159.717 -14.4634 159.995C-14.4887 159.212 -14.4887 158.428 -14.4887 157.594C-14.1092 158.378 -13.7542 159.161 -13.3488 159.894ZM-11.8795 162.65C-11.5503 163.231 -11.2461 163.787 -10.9423 164.318C-11.5756 165.557 -13.1717 166.29 -14.0586 167.276C-15.1985 168.565 -16.0854 169.779 -17.4533 170.942C-15.7559 169.071 -12.7155 165.784 -11.8795 162.65ZM-20.975 176.579C-16.9211 174.076 -12.6143 169.197 -10.9167 164.369C-10.6634 164.824 -10.3848 165.254 -10.1312 165.684C-10.2327 165.886 -10.3339 166.113 -10.4607 166.29C-11.322 167.959 -11.4994 170.006 -12.386 171.498C-13.6786 173.672 -18.4414 177.312 -20.975 176.579ZM-6.12826 172.635C-7.36963 173.874 -8.76308 174.557 -10.3595 175.265C-12.2089 176.073 -17.8586 178.475 -19.7589 177.186C-16.1357 175.821 -11.4488 175.619 -8.99105 172.054C-8.73778 171.649 -8.35773 170.588 -7.97767 169.222C-7.47112 169.981 -7.16695 170.461 -7.01517 170.638C-6.60981 171.169 -6.20446 171.7 -5.77381 172.205C-5.87499 172.408 -5.97648 172.534 -6.12826 172.635ZM38.2087 233.458C37.1447 231.284 36.4857 229.009 36.131 226.709C35.9536 225.521 36.2072 224.257 36.106 223.043C36.0298 221.982 35.7003 220.793 35.3459 219.757C34.5858 217.532 33.8509 215.662 34.1045 213.184C34.3578 210.58 35.3968 208.153 35.3968 205.449C35.3968 205.524 35.3968 205.6 35.3968 205.626L35.5485 204.21C35.3968 205.069 36.1566 206.055 36.3593 206.814C36.6381 207.774 36.9926 208.785 37.2462 209.772C37.5247 210.833 37.8795 212.047 37.9554 213.21C38.0569 214.423 37.8542 215.611 38.1075 216.774C38.3607 217.836 38.8167 218.872 39.1462 219.884C39.5515 221.173 39.4753 222.715 39.678 224.055C40.1087 226.507 40.1087 229.085 40.1087 231.613C40.1087 234.141 41.0715 236.366 41.5277 238.717C40.4634 237.25 39.0194 235.102 38.2087 233.458ZM92.0462 203.047C89.9688 202.592 84.6482 200.595 80.5188 198.699C82.1402 198.977 83.7364 199.204 85.3072 199.634C90.9569 201.05 96.7081 201.808 102.611 201.808H103.321C103.321 202.086 103.321 202.314 103.295 202.491C99.3176 202.946 93.9718 203.477 92.0462 203.047ZM221.789 131.025C221.105 131.379 220.395 131.632 219.686 131.985C218.014 132.794 216.114 132.921 214.416 133.528C214.213 132.719 216.266 129.432 217.254 128.042C218.064 128.674 218.9 129.432 219.762 129.963C220.396 130.317 221.054 130.721 221.789 131.025ZM208.234 137.699C208.083 137.8 207.956 137.901 207.804 138.052C207.094 137.8 206.385 137.547 205.65 137.345C203.066 136.637 200.38 135.524 197.923 134.286C197.112 133.856 196.2 133.426 195.339 132.971C195.516 132.643 195.744 132.339 195.947 132.011C196.276 131.556 196.58 130.999 196.884 130.519C197.695 130.317 198.531 130.09 199.342 129.837C201.596 129.23 203.852 128.648 206.056 128.294C208.817 127.839 211.68 127.789 214.467 127.359C214.746 127.334 215.075 127.258 215.43 127.182C214.72 128.37 213.96 129.634 213.606 130.064C212.947 130.949 208.944 137.168 208.234 137.699ZM185.585 87.8216C186.167 85.9762 186.472 84.3836 186.623 82.437C186.699 81.5019 186.801 80.5412 186.877 79.6057C187.231 79.1 187.561 78.6451 187.941 78.1901C188.549 77.4064 189.41 76.7745 190.297 76.3448C190.398 77.0524 190.474 77.7352 190.474 78.4428C190.474 79.0495 190.474 79.6313 190.474 80.238C190.043 80.7434 189.689 81.2744 189.283 81.8811C188.853 82.5635 188.523 82.9427 188.473 83.7264C188.396 84.2571 188.624 84.9398 188.498 85.4456C188.346 86.2037 187.383 86.9874 186.775 87.6193C186.243 88.1503 185.711 88.6558 185.154 89.111C185.306 88.6813 185.432 88.2008 185.585 87.8216ZM202.534 122.43C203.674 121.545 204.029 122.152 205.118 122.784C205.929 123.289 206.841 123.744 207.652 124.25C208.26 124.603 208.893 124.932 209.552 125.21C207.829 125.64 206.233 126.146 204.51 126.399C202.61 126.676 200.659 126.929 198.683 127.334C199.747 125.463 200.938 123.668 202.534 122.43ZM197.492 77.1032C196.53 76.8249 195.466 76.8249 194.477 77.2546C193.869 77.5329 193.236 77.8866 192.628 78.3163C192.628 77.7856 192.628 77.2547 192.628 76.6984C192.628 76.3448 192.628 75.9908 192.602 75.662C194.249 75.5611 196.631 75.5611 197.492 77.1032ZM196.453 71.9966C195.313 71.9714 194.224 71.9966 193.16 72.1483C193.844 72.2493 194.655 72.6538 195.085 72.8308C195.617 73.033 196.225 73.5135 196.833 73.7662C195.719 73.6147 194.604 73.5135 193.439 73.8422C193.033 73.9432 192.653 74.0946 192.248 74.2467C192.146 73.9684 191.994 73.6397 191.817 73.3113C191.665 73.109 191.285 72.6033 190.804 72.1736C190.956 71.7439 190.652 71.3646 190.12 70.7075C189.942 70.5052 189.79 70.303 189.664 70.1007C192.248 69.7972 194.173 70.7075 196.453 71.9966ZM187.485 74.6764C188.169 74.2719 188.878 73.918 189.512 73.4627C189.714 73.9684 189.866 74.4994 190.018 75.0048C190.044 75.1566 190.094 75.2575 190.12 75.4093C189.309 75.9403 188.549 76.5975 187.89 77.3307C187.561 77.7352 187.257 78.0888 186.927 78.468C186.927 77.9626 186.927 77.5077 186.902 77.0019C186.877 76.5975 186.75 75.9403 186.573 75.2579C186.877 75.0301 187.181 74.8534 187.485 74.6764ZM178.06 74.5247C178.947 74.5247 180.29 75.4093 181.176 75.7128C182.291 76.0665 183.507 76.5975 184.622 76.2943C184.647 76.2943 184.698 76.269 184.698 76.269C184.723 77.8869 184.799 79.4543 184.85 81.0217C183.355 82.9175 181.886 84.8389 180.492 86.836C181.455 86.6842 182.57 85.2181 183.355 84.5862C183.963 84.0552 184.419 83.3977 184.85 82.7657C184.774 84.3079 184.597 85.8248 184.09 87.2909C183.583 88.757 182.95 90.2234 182.164 91.6391C181.987 91.7908 181.835 91.8918 181.658 92.0435C180.797 92.7515 179.758 93.2822 178.871 93.9649C178.288 94.3946 176.692 95.785 176.768 96.5687L175.628 97.8581C175.907 97.0492 176.312 96.6195 175.349 96.4425C174.665 96.2907 173.804 96.4425 173.196 96.5939C171.727 96.9227 169.471 98.1613 168.863 99.6025C168.281 98.8188 169.497 97.3271 170.155 96.8469C171.017 96.2402 172.056 96.215 172.917 95.9115C171.245 94.9003 168.863 95.2291 167.647 96.9227C166.938 97.9341 165.722 100.538 164.202 100.715C164.658 98.4396 166.913 96.4425 168.433 94.7486C170.105 92.8525 171.498 90.5269 172.942 88.4794C174.133 86.7602 175.451 85.0411 176.591 83.297C177.883 81.3252 179.226 79.2521 178.668 76.8757C178.516 76.269 178.238 75.6623 177.807 75.2579C177.807 74.9294 177.782 74.6512 177.782 74.3984C177.781 74.3476 178.035 74.5247 178.06 74.5247ZM138.841 210.757C138.055 211.01 137.295 211.364 136.485 211.465C136.206 211.035 135.8 210.605 135.344 210.226C136.814 209.367 138.917 209.013 140.614 208.507C141.222 208.33 143.047 207.37 143.579 207.648C143.73 207.724 143.857 207.976 144.035 208.254C143.933 208.33 143.857 208.406 143.756 208.431C142.134 209.443 140.563 210.201 138.841 210.757ZM151.103 103.242C150.419 102.711 149.988 101.574 149.431 100.891C149.583 101.675 149.71 102.256 149.71 103.065C149.735 102.534 149.355 102.105 149.254 101.574C148.215 101.498 148.443 98.4389 148.544 96.7958C149.558 97.2508 150.445 97.6048 151.129 98.8687C151.787 100.057 152.167 102.13 151.103 103.242ZM159.768 101.22C159.337 101.195 158.957 100.689 158.349 100.816C158.197 101.321 158.45 102.054 158.501 102.61C157.791 102.079 157.386 101.195 156.778 100.538C156.094 99.7792 155.359 99.122 154.599 98.4393C153.485 97.4281 151.914 95.4815 150.242 95.6837C151.001 95.886 151.914 97.1754 152.218 97.9335C151.432 97.4281 150.976 96.8214 150.064 96.5179C149.608 96.3409 149.102 96.2652 148.646 96.1895C148.646 96.1134 148.646 96.0377 148.646 95.9872C148.646 93.9646 148.316 92.4985 147.759 90.7036C147.936 91.5886 147.657 92.9282 147.505 93.7122C147.404 94.2936 147.404 94.7486 147.049 95.2793C146.771 95.7342 146.264 96.0377 146.036 96.5687C145.276 95.3805 145.428 93.5097 144.921 92.1445C144.668 91.4621 144.212 90.7796 143.807 90.1222C144.009 91.4116 143.883 93.0039 143.908 93.9646C142.971 91.9675 142.058 90.5774 140.234 89.2627C138.942 88.3273 136.383 87.3414 134.914 88.2516C135.598 88.3273 136.231 88.9596 136.763 89.364C135.978 89.1618 134.534 88.8583 133.748 89.3388C134.863 90.6531 137.244 91.2598 138.638 92.3975C140.285 93.7624 141.476 95.254 142.565 96.9984C143.655 98.7425 144.364 101.144 144.035 103.268C143.68 105.619 142.134 106.276 140.589 107.768C139.702 106.984 138.689 104.405 137.118 105.189C136.358 103.647 135.623 101.979 134.888 100.361C134.128 98.6163 133.596 96.9984 132.253 95.6585C131.569 94.9761 130.86 94.5464 130.1 93.9901C128.985 93.1812 129.061 92.7007 129.416 91.3864C129.695 90.35 129.999 89.3135 130.657 88.3525C131.012 87.8219 131.164 87.8219 131.721 87.5688C132.228 87.3666 132.76 87.3666 132.836 86.6842C133.165 84.4091 128.478 84.965 127.44 85.7235C126.426 86.4315 126.376 87.5184 126.122 88.5548C125.869 89.6167 125.16 90.5774 125.235 91.6895C124.425 90.9819 123.234 90.8049 122.119 90.8301C121.41 90.8554 121.156 91.0324 120.548 91.2598C119.94 91.4873 119.839 91.2851 119.357 91.0071C118.952 90.7544 118.724 90.2995 118.344 89.996C118.015 89.7433 117.229 89.5915 117.052 89.2883C116.596 88.5803 117.331 87.1395 116.697 86.2797C117.584 85.4708 118.116 84.3082 118.42 83.2462C118.673 82.1846 118.851 80.9964 118.445 79.9345C118.293 79.5048 117.863 79.0495 117.736 78.645C117.635 78.2406 117.711 77.7099 117.888 77.2546C118.673 75.3336 119.915 73.7154 121.029 71.9966C121.536 71.2129 122.22 70.2522 123.006 69.7215C123.69 69.2666 124.804 69.1145 125.615 68.7101C127.439 67.8506 129.289 66.4603 130.15 64.5392L131.012 64.8172C132.329 65.6008 134.052 65.8536 135.597 66.5615C137.574 67.4967 139.271 68.8366 141.146 69.9995C142.995 71.1119 144.946 72.1483 146.948 72.932C147.91 73.3365 148.949 73.6397 149.912 74.1202C150.494 74.3984 151.103 74.6512 151.635 74.9291C151.989 75.1313 152.572 75.738 152.876 75.8645C154.269 76.2943 157.462 73.0078 157.538 71.5416C158.399 71.6931 159.185 72.401 160.071 72.7298C161.135 73.0835 162.301 73.3617 163.365 73.741C164.302 74.0192 165.341 74.2719 166.05 75.0304C166.912 75.9655 166.253 76.446 166.05 77.3812C165.518 77.4064 164.935 76.9514 164.404 76.8505C164.657 77.2042 164.555 77.6342 164.809 77.9626C164.961 78.1396 165.392 78.3166 165.594 78.4684C166.304 78.9741 166.633 79.5808 167.596 79.707C168.559 79.8335 169.825 79.606 170.788 79.4291C171.574 79.2773 172.106 79.252 172.942 79.2773C173.398 79.3025 173.803 79.1258 174.234 79.1258C174.69 79.1258 174.639 79.2268 175.095 79.3785C175.424 79.4795 175.728 79.53 176.058 79.53C176.083 79.7322 176.083 79.9345 176.083 80.1367C176.007 81.0974 175.45 82.5635 175.07 83.4229C173.575 86.9622 169.876 89.8947 167.342 92.8017C165.974 94.4195 164.15 96.4674 163.187 98.6667C163.035 98.4645 162.934 98.237 162.909 98.06C162.326 98.869 161.895 99.6779 161.186 100.462C160.68 100.866 160.477 101.296 159.768 101.22ZM206.182 139.494C205.372 140.202 193.312 148.19 190.196 151.426C189.334 152.31 188.27 153.043 187.485 153.953C186.801 154.737 186.167 155.496 185.458 156.229C184.318 157.417 183.279 158.63 182.266 159.869C182.063 159.515 181.911 159.161 181.86 158.807C181.759 157.796 182.291 156.658 182.721 155.799C183.659 153.953 184.875 152.235 185.863 150.364C186.446 149.302 187.079 148.341 187.586 147.229C187.839 146.647 191.64 139.67 192.476 138.229C193.363 136.763 194.046 135.221 194.883 133.729C194.883 133.729 194.908 133.729 194.908 133.755C197.188 134.943 199.266 136.687 201.749 137.471C203.319 137.977 204.865 138.609 206.435 139.215C206.36 139.317 206.284 139.418 206.182 139.494ZM226.653 135.626C224.981 136.662 222.599 137.724 220.674 138.078C217.887 138.609 215.303 139.468 212.516 139.266C211.655 139.19 210.793 139.013 209.932 138.735C210.895 137.522 211.959 136.157 213.124 135.676C215.278 134.741 217.735 134.286 219.99 133.528C221.231 133.098 222.447 132.466 223.638 131.783C224.221 131.986 224.829 132.213 225.386 132.415C226.02 132.618 227.287 133.199 228.705 133.882C227.996 134.463 227.388 135.196 226.653 135.626Z" fill="#0A0A0A"/>
<path d="M845.897 308.816C843.824 305.007 841.761 301.222 839.294 296.693C837.146 299.26 835.766 300.912 834.398 302.547C827.076 299.084 825.257 298.773 815.814 298.874C810.23 298.932 804.613 298.549 799.075 298.968C796.647 299.151 794.488 301.153 792.016 301.8C782.781 304.223 782.253 312.742 776.562 317.61C775.202 318.774 773.906 320.005 772.439 321.062C768.993 323.541 765.899 323.386 763.214 320.057C760.809 317.079 758.52 313.989 755.724 311.295C751.441 307.171 747.121 308.009 744.813 313.128C741.124 321.313 736.375 323.726 726.358 322.489C725.407 322.372 724.478 322.132 723.529 322.003C714.512 320.776 713.7 321.236 712.353 328.848C711.793 332.006 711.161 334.69 706.129 334.275C705.027 334.186 703.465 335.824 702.556 336.932C701.241 338.535 700.363 340.394 699.234 342.116C698.113 343.828 696.913 345.504 695.361 347.758C692.863 346.443 689.931 345.631 688.332 343.91C684.184 339.446 681.747 333.972 673.352 333.336C664.85 332.693 662.088 325.063 656.407 320.897C652.218 317.824 648.457 316.151 643.065 318.243C639.002 319.818 637.159 317.885 636.139 314.612C633.884 307.379 629.088 306.007 621.982 310.486C618.318 312.795 616.189 312.688 614.533 308.485C612.116 302.337 600.651 299.329 594.358 302.782C587.351 306.627 582.26 304.689 580.674 297.576C579.323 291.52 575.41 289.03 568.431 289.417C565.793 289.563 563.085 289.212 560.447 288.868C554.859 288.14 551.221 290.041 549.05 294.448C547.64 297.308 545.928 300.061 543.909 303.649C538.005 299.372 532.279 295.567 527.109 291.27C525.576 289.995 525.224 287.373 524.993 285.313C523.828 274.958 513.936 271.02 505.224 277.547C502.034 279.936 498.727 280.052 495.647 277.057C491.666 273.19 487.046 272.717 481.618 275.005C478.201 276.447 474.488 277.572 470.761 278.221C467.783 278.739 464.586 278.326 461.567 277.689C449.743 278.363 448.889 287.603 444.276 294.203C443.179 295.773 440.731 298.087 439.489 297.847C436.909 297.348 433.785 295.797 432.591 293.894C430.835 291.095 430.659 287.592 429.651 284.426C428.184 279.826 425.583 276.887 418.982 277.831C413.113 278.671 409.882 274.904 407.365 271.11C405.578 268.418 404.573 265.353 403.008 262.54C399.97 257.086 394.784 254.198 388.198 255.459C381.818 256.68 375.935 255.73 370.197 254.007C366.227 252.815 364.084 253.768 362.033 256.456C358.565 261 354.945 265.458 351.354 269.935C351.178 270.156 350.686 270.193 349.869 270.481C349.092 269.294 348.179 268.113 347.514 266.839C343.587 259.307 343.609 259.32 333.747 260.138C331.258 260.345 328.636 260.817 326.289 260.358C324.572 260.025 322.322 258.606 321.836 257.264C319.378 250.48 316.569 248.247 308.458 247.604C307.886 247.556 307.074 247.658 306.783 247.377C302.505 243.256 294.317 243.806 291.598 237.552C289.844 233.515 285.309 233.223 281.423 235.159C278.011 236.861 275.296 239.563 272.13 241.664C270.916 242.47 268.642 243.663 267.978 243.273C262.681 240.172 257.544 242.941 252.37 243.194C247.292 243.443 242.226 244.698 238.106 240.291C231.332 233.043 224.585 232.476 217.4 239.838C212.487 244.87 208.637 248.118 202.326 244.55C199.01 249.39 196.274 253.883 192.891 257.984C192.003 259.06 189.11 259.225 187.133 259.238C185.727 259.247 184.365 258.13 182.893 257.812C177.64 256.673 171.799 253.915 167.187 254.974C158.53 256.963 150.89 261.518 145.737 268.351C142.669 272.42 139.454 276.406 136.017 280.797C132.156 275.422 126.88 273.482 121.273 275.331C119.571 275.892 118.287 278.041 117.428 279.697C114.199 285.91 112.387 286.237 107.091 281.339C105.851 280.194 104.368 279.242 102.689 277.97C100.734 280.853 99.2249 283.318 97.4476 285.633C95.213 288.538 92.1803 289.404 89.5444 286.301C83.85 279.598 76.0834 277.923 67.1405 279.029C62.6992 279.579 60.1687 278.081 58.7546 274.687C57.4678 271.596 56.1233 268.521 54.9288 265.404C53.5529 261.81 51.4291 261.468 48.2737 263.995C46.7609 265.208 45.0251 266.216 42.6677 267.804C41.5194 265.438 40.3251 263.645 39.7831 261.719C38.5315 257.281 35.0398 255.356 30.1345 255.47C24.778 255.597 19.4299 256.583 14.0914 256.518C11.7379 256.49 9.15979 255.073 7.14709 253.766C5.05933 252.411 3.69055 250.277 1.72949 248.743C-8.60339 240.653 -14.5944 245.252 -18.8361 254.924C-21.3986 260.768 -24.924 265.606 -29.7463 270.066C-31.5062 271.694 -32.5699 273.87 -34.9144 277.134C-36.8917 272.749 -38.373 269.366 -39.9447 266.018C-40.856 264.08 -41.5168 261.907 -43.0195 260.358C-44.6248 258.704 -47.0907 257.659 -49.1824 256.347C-50.9244 258.645 -53.2694 260.766 -54.2582 263.28C-55.4878 266.407 -55.5966 269.855 -56.1934 273.19C-65.7198 271.64 -66.2893 272 -70.244 278.823C-72.5039 282.722 -73.1007 287.9 -80.0035 288.663C-81.0181 288.776 -81.6425 290.785 -82.6512 291.761C-83.8866 292.957 -85.1168 294.45 -86.7299 295.013C-96.9406 298.564 -96.9744 298.491 -104.134 305.635C-105.534 304.754 -106.957 303.858 -108.29 303.016C-110.53 310.091 -112.63 316.851 -114.812 323.591C-118.277 334.296 -124.978 343.366 -133.868 351.374C-136.774 353.991 -139.165 357.028 -142.028 359.686C-143.599 361.146 -145.77 362.12 -147.467 363.497C-148.629 364.442 -150.188 365.66 -150.285 366.831C-151.004 375.626 -158.28 380.016 -165.739 384.385C-166.389 384.764 -167.129 385.729 -166.98 386.248C-166.759 387.035 -165.924 388.102 -165.121 388.275C-163.48 388.628 -161.689 388.508 -159.959 388.508C257.942 388.513 675.843 388.513 1093.74 388.513H1099.5C1097.54 378.984 1095.79 377.962 1085.62 380.054C1079.07 381.401 1078.31 380.955 1077 375.017C1075.36 367.545 1065.82 359.787 1057.18 359.054C1051.08 358.538 1044.95 358.21 1039.51 357.846C1037.37 353.41 1035.53 349.156 1033.28 345.062C1031.63 342.043 1028.97 340.535 1024.85 342.236C1020.15 344.172 1016.5 342.935 1013.3 339.482C1010.48 336.436 1007.58 333.005 1001.77 335.143C1001.23 335.342 999.011 333.605 998.663 332.515C997.425 328.628 994.657 327.221 990.143 327.552C987.466 327.748 984.741 327.722 982.064 327.526C980.893 327.44 978.821 326.695 978.805 326.216C978.586 318.667 968.202 320.519 965.202 315.507C965.004 315.176 961.247 315.737 960.012 316.699C958.398 317.955 957.501 319.968 956.558 321.756C954.671 325.331 953.173 328.753 946.911 326.803C945.392 326.332 942.367 328.534 940.499 329.952C937.127 332.511 934.575 335.179 930.69 330.068C927.391 325.728 925.179 331.458 921.762 331.623C920.568 330.169 919.544 328.307 917.883 327.071C916.325 325.909 913.829 324.459 912.212 324.792C907.518 325.758 904.968 323.778 903.532 320.757C901.112 315.663 897.086 314.69 891.536 316.347C886.374 317.891 882.249 317.967 880.936 312.103C880.262 309.094 877.324 308.863 874.538 309.966C866.212 313.266 858.253 312.915 850.35 308.896C849.215 308.318 847.335 308.816 845.897 308.816Z" fill="#292929"/>
</svg>
