<svg width="1196" height="359" viewBox="0 0 1196 359" fill="none" xmlns="http://www.w3.org/2000/svg">
<path d="M928 268.015C928 179.088 1000.31 107 1089.5 107C1178.69 107 1251 179.088 1251 268.015C1251 279.321 1249.83 290.352 1247.6 301H931.398C929.174 290.352 928 279.321 928 268.015Z" fill="#E63534"/>
<path fill-rule="evenodd" clip-rule="evenodd" d="M1314.4 129.071C1313.32 127.503 1311.75 126.629 1310.85 124.856C1309.9 123.005 1304.75 116.014 1303.52 113.958C1303.31 113.547 1302.64 112.648 1302.69 112.211C1302.72 111.671 1303.16 111.748 1302.98 111.054C1302.8 110.283 1301.66 109.126 1300.84 109.281C1300.86 108.304 1299.45 106.634 1298.96 105.785C1298.37 104.834 1297.75 104.115 1297.93 102.958C1298.09 101.905 1298.39 100.774 1298.47 99.7201C1298.68 97.0988 1297.75 95.428 1296.18 93.4749C1295.54 92.6782 1294.92 91.8301 1294.12 91.162C1293.35 90.5452 1292.48 90.0826 1291.83 89.3885C1291.19 88.6944 1290.88 87.6151 1290.39 86.767C1289.88 85.9446 1289.41 84.9939 1288.72 84.2228C1288.44 83.8629 1287.77 83.58 1287.74 83.1688C1287.66 82.7319 1288.51 81.9095 1288.51 81.9095C1288.51 81.9095 1287.28 79.9821 1286.63 79.3653C1285.99 78.7481 1285.14 78.1313 1284.58 77.5145C1283.96 76.8207 1283.6 75.947 1282.93 75.2272C1281.49 73.5824 1272.94 68.0824 1271.79 67.7995C1273.2 68.5966 1274.15 70.4727 1275.47 71.6806C1276.42 72.5544 1277.65 73.6084 1278.27 74.7647C1276.93 73.634 1275.7 72.4001 1274.23 71.5007C1272.79 70.5497 1271.68 69.3674 1270.01 68.8535C1267.95 68.2364 1265.22 68.8535 1263.04 68.8535C1261.72 68.8535 1260.75 68.8789 1259.54 68.3137C1258.92 68.0308 1256.96 67.0801 1256.47 67.3627C1258.04 67.4399 1259.82 68.6222 1261.08 69.4703C1262.39 70.3441 1263.52 70.7039 1264.99 71.0378C1261.08 71.0635 1256.94 69.2131 1253.87 66.7972C1250.76 64.3042 1246.62 64.9211 1242.94 66.1803C1244.43 65.5892 1246 65.8978 1247.59 66.1034C1249.63 66.3603 1251.38 66.7458 1253.13 67.9795C1254.39 68.8789 1255.62 69.8299 1256.91 70.7036C1257.63 71.1662 1258.43 71.526 1259.28 71.7573C1260.08 71.9629 1261.21 71.6547 1261.95 72.0402C1258.69 71.9629 1255.68 71.8602 1252.87 70.1125C1251.66 69.3414 1250.32 67.9278 1248.91 67.6709C1247.49 67.414 1245.97 67.8249 1244.51 68.2104C1245.64 68.1848 1246.8 68.6473 1247.88 68.9302C1249.37 69.3414 1250.71 69.8039 1252.05 70.575C1251.51 70.421 1250.89 70.0608 1250.35 70.0352C1249.65 69.9582 1248.83 70.1895 1248.14 70.2921C1247.23 70.4464 1246.36 70.6263 1245.51 70.9862C1245.07 70.3437 1244.69 69.6753 1244.1 69.1358C1243.89 68.9302 1243.63 68.6989 1243.37 68.519C1243.3 68.519 1243.22 68.5446 1243.17 68.5446C1243.25 68.519 1243.27 68.4673 1243.35 68.4673C1241.65 67.2337 1239.54 66.9768 1237.43 67.5166C1236.19 67.8505 1235.4 68.0561 1234.08 67.4909C1233.03 67.0284 1232.05 66.3343 1231.07 65.7432C1229.14 64.5865 1227.08 63.4302 1225.26 62.1193C1223.33 60.7317 1221.63 59.2408 1219.88 57.6216C1218.85 56.6706 1218.18 55.6683 1216.95 55.0001C1215.99 54.486 1215.09 54.2034 1214.04 54.0234C1211.9 53.6122 1210.33 52.173 1208.5 51.1193C1206.32 49.8857 1204.9 48.1895 1203.13 46.5187C1201.48 44.9512 1200.37 43.1004 1198.6 41.7385C1197.77 41.096 1197.18 40.7105 1196.15 40.4019C1195.33 40.145 1193.94 39.9651 1193.27 39.3483C1193.3 39.1427 1193.42 38.8084 1193.48 38.5772C1195.69 39.6312 1195.12 36.984 1195.59 35.776C1195.84 35.1592 1196.38 34.645 1196.56 34.0026C1196.82 33.1801 1196.72 32.7689 1197.44 32.2548C1197.98 31.8436 1198.67 31.6379 1199.14 31.0468C1199.55 30.5073 1199.68 29.8132 1199.91 29.1964C1200.35 27.9884 1200.68 26.2922 1201.22 25.2899V24.5701C1203.23 24.9043 1204.57 21.3318 1204.57 19.7899C1204.57 17.4766 1203.51 15.3949 1202.28 13.5188C1201.2 11.8224 1200.22 10.4345 1198.73 8.94395C1192.99 3.03276 1182.56 2.00472 1180.63 3.1867C1182.74 3.21237 1184.93 2.77552 1186.99 4.49764C1185.11 4.47198 1183.72 4.96017 1181.95 5.55132C1180.92 5.91121 1180.81 5.70561 1180.09 5.03747C1179.55 4.57494 1178.96 4.13774 1178.32 3.90647C1177.44 3.62389 1176.57 3.90647 1175.69 3.90647C1174.9 3.90647 1174.43 3.54692 1173.81 3.08408C1172.24 1.9531 1171.88 0.0769841 1169.9 0C1171.22 0.436869 1172.63 3.08408 1173.35 4.3177C1171.91 3.62391 1170.85 2.38995 1169.28 1.8761C1167.64 1.36194 1165.58 1.2593 1164.19 0.745135C1164.78 2.69853 1167.2 1.54188 1168.72 2.13303C1170.06 2.67254 1172.22 3.9578 1172.6 5.42269C1171.96 4.90884 1171.16 4.7289 1170.31 4.7289C1169.36 4.70324 1166.09 3.41798 1163.62 4.7289C1164.32 4.70324 1169.18 5.32004 1171.55 5.67962C1169.7 5.52565 1167.41 6.19379 1166.25 7.55572C1167.84 6.65632 1169.36 5.6796 1171.34 6.34774C1172.84 6.8619 1174.59 8.17254 1175.51 9.35484C1173.92 8.58375 1171.7 8.66073 1170.03 9.07194C1168.44 9.48314 1166.22 10.023 1164.58 9.22621C1164.22 9.04626 1163.88 8.68639 1163.52 8.53211C1163.11 8.35217 1162.8 8.32651 1162.39 8.1982C1161.51 7.9926 1160.82 7.73567 1159.89 7.65837C1158.06 7.5044 1155.98 8.01826 1154.26 8.63507C1155.75 8.91765 1157.42 8.27518 1159.02 8.37814C1160.18 8.45513 1162.44 8.91763 1163.08 10.0743C1161.41 10.2542 1159.92 10.0999 1158.43 9.53444C1156.98 8.99493 1155.26 8.81501 1153.74 9.61176C1155.93 8.89199 1158.14 10.8454 1160.1 10.3059C1157.34 11.5395 1153.3 10.9483 1151.55 8.30116C1151.48 9.02062 1151.63 9.53478 1151.97 9.97165C1150.76 9.07194 1149.08 7.86427 1147.8 7.96692C1148.59 8.60939 1151.91 11.0513 1152.84 11.5908C1151.71 11.7707 1149.55 10.1002 1148.36 10.2802C1149.14 10.8713 1150.76 11.4882 1151.71 11.7194C1152.33 11.8734 1153.41 12.9787 1153.9 13.3126C1153.02 13.6468 1151.86 13.21 1150.83 13.03C1149.96 12.8757 1148.47 11.6421 1147.57 12.3103C1147.9 12.8501 1148.8 13.1327 1149.34 13.3383C1148.39 13.1584 1147.51 12.9787 1146.61 12.7215C1145.66 12.4646 1144.86 11.8991 1143.89 11.8991C1144.61 12.3103 1145.4 12.7215 1146.2 12.8758C1146.97 13.0297 1148.88 13.2097 1149.08 14.212C1148.31 13.7752 1146.59 14.0581 1145.92 14.5462C1146.36 15.24 1149.78 14.2633 1149.42 15.7026C1149.26 16.2424 1148.21 16.4996 1147.77 16.5253C1146.82 16.6023 1146.33 16.2424 1145.76 15.497C1145.35 14.9831 1145.25 14.4433 1144.97 13.9038C1144.61 13.2613 1144.14 12.9271 1143.45 12.5672C1142.47 12.0533 1141.31 11.7704 1140.26 11.976C1141.39 11.8221 1142.52 13.0554 1143.16 13.9038C1143.42 14.2377 1143.76 14.4176 1143.96 14.7775C1144.17 15.1371 1144.14 15.497 1144.32 15.9082C1144.68 16.7819 1145.3 16.6279 1146 16.9622C1144.04 16.9622 1140.44 17.7846 1139.64 19.9433C1140.54 19.3008 1141.21 18.4527 1142.26 18.1701C1143.34 17.8359 1143.94 18.1701 1144.84 18.607C1144.86 18.684 1144.86 18.761 1144.91 18.8126C1145.79 19.0182 1145.79 20.0462 1147.02 19.8663C1145.87 20.2259 1142.5 21.5368 1142.11 19.8663C1142.29 20.6887 1143.42 21.5368 1144.14 21.8967C1144.61 22.1536 1145.63 21.1256 1146.18 21.1769C1146.59 21.2025 1147.49 20.9713 1147.59 21.4598C1147.62 21.6397 1146.95 22.6164 1146.87 22.899C1146.72 23.4132 1146.61 23.9784 1146.61 24.4925C1146.61 25.2633 1146.95 26.7542 1147.82 27.0627C1147.39 26.163 1147 24.5182 1147.8 23.6958C1148.21 24.4152 1147.98 25.4689 1148.57 26.1887C1149.19 26.9595 1149.83 26.6256 1150.68 26.3686C1150.14 26.3686 1149.08 25.7261 1148.67 24.9807C1149.26 25.4176 1150.6 24.7751 1151.32 24.7751C1150.7 24.4925 1149.37 25.2377 1148.88 24.5952C1148.44 24.004 1148.26 23.0276 1148.44 22.3335C1148.8 20.74 1150.58 20.663 1151.94 20.9456C1153.36 21.2799 1154.62 22.6164 1156.01 21.8967C1162.47 18.5297 1157.16 21.7427 1157.58 23.7471C1160.66 20.0719 1162.49 18.5297 1164.52 19.3521C1163.62 20.0719 1162.34 20.4831 1161.95 21.4081C1162.75 20.6374 1164.76 19.9176 1165.81 19.5321C1165.53 20.2518 1165.35 20.92 1164.76 21.4598C1164.29 21.8967 1163.01 21.7167 1163.01 22.3595C1164.45 22.7191 1165.45 21.2285 1166.45 20.5088C1167.43 19.8663 1169.98 19.712 1170.37 21.1002C1168.85 21.3828 1167.54 21.3058 1166.3 22.2565C1165.09 23.1563 1163.57 23.6444 1162.44 24.5695C1163.42 24.1583 1164.58 24.2869 1165.6 23.7728C1166.51 23.3102 1166.92 22.7191 1168.05 22.8734C1167.51 24.7494 1164.27 26.0344 1162.77 27.0111C1159.25 29.4013 1155.29 32.0485 1152.64 35.4668C1149.83 39.0907 1147.28 43.5113 1145.76 47.8031C1144.94 50.1163 1144.12 52.455 1143.29 54.7682C1142.34 57.4154 1137.94 71.6281 1137.81 72.7587C1137.71 73.6325 1137.35 75.3802 1137.91 76.1C1136.04 75.8171 1133.75 79.7236 1135.34 81.0602C1134.88 81.8569 1134.18 82.5767 1133.64 83.3731C1133 84.4011 1132.87 85.6608 1132.87 85.6608C1132.87 85.6608 1127.78 86.6888 1126.05 87.8451C1124.35 88.9761 1123.22 90.7239 1122.86 92.6256C1122.6 93.9619 1122.65 94.9129 1122.83 96.2492C1122.94 97.0203 1124.04 100.464 1124.04 100.464C1123.43 100.182 1122.53 100.182 1121.86 100.053C1121.06 99.899 1120.34 99.6934 1119.54 99.5905C1117.89 99.3335 1116.45 98.6398 1114.88 98.2799C1111.79 97.5858 1108.91 99.5905 1106.88 101.981C1106.85 101.904 1106.8 101.904 1106.73 101.904C1105.67 102.006 1104.15 101.493 1103.1 101.312C1101.89 101.107 1100.73 101.03 1099.47 101.03C1097 101.03 1094.71 101.441 1092.34 101.621C1089.79 101.826 1087.66 101.081 1085.21 100.901C1082.66 100.721 1080.06 100.875 1077.65 101.493C1064.26 104.834 1048.8 118.352 1047.41 119.483C1047.23 119.637 1047.07 119.766 1046.89 119.92C1046.1 120.023 1045.3 120.177 1044.78 120.203C1042.93 120.383 1041.26 120.974 1039.56 121.642C1036.19 123.03 1033.41 125.446 1030.83 128.016C1028.52 130.329 1027.05 133.054 1024.68 135.264C1022.42 137.371 1020.36 139.761 1018.17 141.971C1019.33 141.278 1020.54 140.327 1021.8 139.71C1021.26 141.74 1018.56 143.874 1017.2 145.698C1015.7 147.703 1014 149.502 1012.46 151.43C1008.83 156.004 1005.46 158.497 999.774 159.705C1000.31 159.885 1001.29 160.039 1001.99 160.297C1000.39 161.504 999.078 163.663 998.564 165.437C997.946 167.647 997.226 169.215 996.016 171.322C993.185 176.411 989.325 172.633 985.774 170.5C985.697 171.913 988.399 173.738 989.505 174.227C991.333 175.049 993.829 175.357 995.604 174.201C995.964 175.794 993.854 180.189 992.413 181.063C990.638 182.142 988.373 179.367 987.189 178.004C983.818 174.226 981.888 168.958 981.373 164.023C979.855 166.465 982.943 172.581 984.127 174.946C985.516 177.747 987.549 181.217 990.638 182.271C985.079 182.194 979.315 180.857 974.245 179.392C975.686 181.217 980.164 181.32 982.274 181.68C984.847 182.116 987.498 182.656 990.046 182.913C988.218 184.867 984.95 185.175 982.274 184.918C980.755 184.764 977.616 184.224 975.634 183.35C979.16 185.303 983.123 185.715 987.163 186.152C984.693 188.593 980.55 188.799 977.384 188.979C973.498 189.236 970.127 188.105 970.127 183.761C970.127 180.934 973.112 176.976 971.208 174.535C969.252 171.99 964.157 172.787 962.021 174.355C964.079 172.941 967.425 172.915 969.535 174.175C971.903 175.588 970.127 178.75 969.535 180.857C968.815 183.53 968.995 185.329 970.616 187.616C971.517 188.876 972.572 190.367 973.807 191.497C972.546 190.983 970.719 190.855 969.818 190.444C967.991 189.647 966.37 188.259 965.237 186.665C963.359 184.044 961.995 178.621 958.804 177.413C960.502 179.983 961.995 182.939 963.951 185.278C965.263 186.794 966.833 189.338 968.737 190.803C963.642 188.49 958.392 185.149 953.039 184.635C957.723 187.976 964.414 188.13 968.506 192.217C966.807 191.394 964.285 190.083 962.226 189.852C959.859 189.647 957.388 190.289 955.253 189.21C951.392 187.179 947.378 184.07 943.055 184.866C945.525 186.177 948.356 186.28 950.878 187.488C953.091 188.542 955.639 190.777 958.109 190.829C955.742 192.319 951.907 189.775 949.72 188.644C947.249 187.385 942.926 185.714 940.198 186.691C942.334 186.357 947.018 188.284 948.227 190.109C946.4 190.392 943.878 189.775 942.154 189.312C940.327 188.798 938.911 186.048 937.547 185.868C937.959 187.077 941.227 191.009 942.334 191.343C940.584 190.829 939.863 190.186 937.805 190.186C935.772 190.186 934.022 190.777 931.989 190.777C931.551 190.777 931.037 190.777 930.496 190.777C933.559 190.88 936.055 191.651 939.143 191.6C936.956 192.371 935.231 192.371 932.864 192.551C931.731 192.654 929.596 193.09 928 192.962C931.011 193.939 934.382 194.993 937.419 194.016C936.364 194.298 935.128 194.915 933.919 195.095C936.904 195.018 941.845 194.812 943.801 196.586C941.768 196.329 940.172 196.611 938.088 196.791C936.647 196.894 934.974 197.306 933.559 196.997C936.981 198.154 940.07 197.357 943.621 198.025C946.992 198.642 950.003 200.467 953.477 200.955C950.646 203.576 945.885 199.31 942.54 199.439C945.268 201.828 949.334 201.803 952.602 202.343C954.48 202.677 956.771 202.42 958.701 202.934C960.58 203.448 962.046 204.784 963.719 205.761C967.399 207.945 971.311 208.511 975.557 208.434C977.693 208.408 979.906 207.74 981.939 207.277C983.715 206.866 985.98 205.607 987.704 205.581C987.421 207.869 982.583 208.871 980.755 209.385C977.693 210.207 974.373 209.719 971.157 209.899C969.716 209.976 967.862 210.079 966.499 209.616C965.109 209.154 964.183 208.177 962.947 207.354C961.017 206.095 958.444 204.193 956.308 203.628C957.389 207.509 963.694 210.207 967.091 211.055C971.954 212.289 976.689 212.006 981.631 210.978C983.895 210.516 985.414 209.719 987.369 208.665C989.325 207.612 991.538 206.918 993.622 205.915C997.586 203.91 1002.06 202.548 1005.82 200.107C1009.01 198.051 1012.15 195.712 1014.93 193.116C1014.13 194.375 1013.44 195.789 1012.64 197.074C1011.95 198.205 1010.86 198.95 1010.2 200.081C1011.77 198.693 1013.57 197.691 1014.8 195.969C1016.01 194.298 1016.81 192.422 1017.86 190.674C1019.31 188.233 1022.34 183.684 1025.1 182.938C1019.43 189.081 1021.06 197.588 1015.65 203.756C1018.71 202.317 1019.56 199.901 1020.85 196.945C1021.49 200.03 1022.37 202.6 1022.27 206.044C1023.35 203.859 1022.34 201.649 1021.98 199.464C1021.62 197.177 1021.47 195.121 1021.72 192.782C1022.16 188.618 1024.56 184.943 1028.49 182.99C1032.53 180.959 1037.29 181.936 1041.49 180.882C1044.22 180.188 1046.84 178.672 1048.39 176.462C1049.26 177.412 1050.08 178.312 1050.93 179.289C1054.1 183.093 1057.88 186.613 1061.51 190.057C1063.16 191.625 1064.14 193.424 1065.73 194.992C1069.26 198.436 1069.98 204.064 1070.08 205.658C1070.23 207.405 1070.11 209.153 1070.26 210.927C1070.67 215.604 1070.72 220.899 1069.98 225.448C1069.54 228.095 1068.54 230.28 1068.54 233.004C1068.54 234.135 1071.19 238.093 1072.16 238.632C1076.13 240.842 1079.99 243.541 1083.46 246.548C1085.39 248.219 1087.32 249.735 1089.2 251.406C1091.03 253.051 1101.27 264.179 1103.23 268.857C1103.69 269.936 1103.92 271.042 1104 272.198C1104.07 273.406 1104.15 274.871 1104.98 275.873C1105.7 276.747 1107.11 277.184 1108.06 277.724C1108.96 278.238 1109.71 278.752 1110.64 279.06C1110.97 279.78 1110.82 280.474 1110.56 281.091C1110.41 281.373 1109.58 281.99 1109.4 282.247C1108.76 283.198 1109.94 285.228 1108.37 285.871C1107.34 287.644 1108.91 289.572 1109.76 290.96C1110.74 292.553 1112.16 293.633 1113.88 294.584C1115.45 295.457 1117.48 296.151 1119.1 296.588C1120.8 297.051 1122.81 297.359 1124.48 296.562C1124.59 295.175 1124.66 293.684 1124.66 292.245C1124.66 291.294 1123.97 288.698 1124.77 288.03C1124.95 288.801 1125.2 290.343 1125.82 290.934C1126.59 291.654 1128.65 291.628 1129.73 291.808C1132.1 292.219 1134.47 293.221 1134.67 295.868C1134.85 298.233 1133.59 300.366 1134.13 302.654C1134.31 303.476 1135.34 304.35 1136.14 304.761C1137.22 305.301 1138.35 304.787 1139.49 304.581C1144.07 303.759 1149.01 303.707 1153.41 302.371C1153.48 301.651 1147.15 295.123 1145.74 293.658C1144.25 292.065 1142.5 291.114 1140.8 289.751C1139.02 288.338 1137.86 286.487 1136.29 284.817C1135.42 283.866 1134.78 283.044 1134.11 281.938C1133.57 281.039 1133.41 280.113 1133.03 279.188C1132.07 277.081 1130.76 275.564 1129.17 273.92C1127.49 272.223 1126.44 270.013 1125.25 268.008C1123.94 265.824 1119 257.522 1117.84 255.518C1115.53 251.457 1115.29 246.702 1114.47 242.153C1114.03 239.84 1112.52 225.961 1112.7 224.882C1112.9 223.751 1113.49 222.749 1113.75 221.695C1114.29 219.588 1113.93 217.197 1113.75 215.013C1113.57 212.751 1113.34 210.335 1113.03 208.048C1112.85 206.84 1111.77 199.746 1111.59 198.615C1111.41 197.485 1112.13 193.887 1112.03 192.807V191.934C1112.85 192.55 1113.67 193.193 1114.5 193.784C1115.53 194.504 1116.56 194.992 1117.69 195.532C1119.88 196.611 1121.86 198.153 1124.22 198.899C1124.64 199.053 1125.05 199.181 1125.49 199.31C1124.71 200.697 1123.84 202.034 1123.01 203.036C1122.65 203.473 1122.29 203.833 1121.93 204.09C1119.03 206.275 1116.27 208.742 1116.27 208.742C1116.27 208.742 1121.81 206.429 1123.25 204.836C1123.94 204.064 1125.28 201.777 1126.51 199.618C1126.88 199.721 1127.24 199.824 1127.6 199.978C1125.9 204.141 1123.25 210.567 1122.65 211.235C1121.78 212.263 1125.13 209.359 1125.13 209.359L1128.93 200.389C1129.96 200.672 1130.94 200.98 1131.94 201.263C1132.28 201.34 1132.59 201.443 1132.92 201.52C1137.66 204.244 1143.78 207.482 1146.61 207.611C1149.37 207.765 1154.1 207.405 1157.73 207.02C1157.7 207.174 1157.7 207.276 1157.65 207.456C1157.47 208.716 1157.11 210.001 1157.65 211.235C1158.19 212.468 1161.51 215.963 1162.26 216.786C1163.65 218.354 1165.45 219.356 1166.92 220.847C1168.31 222.261 1169.11 224.034 1170.01 225.756C1172.14 229.868 1174.54 234.212 1177.44 237.912C1178.88 239.737 1180.33 241.511 1182.02 243.053C1183.77 244.698 1185.58 246.163 1186.99 248.09C1188.12 249.606 1189.67 251.637 1190.05 253.462C1190.52 256.032 1189.02 257.24 1186.81 257.934C1184.67 258.576 1182.15 258.037 1179.86 258.268C1177.29 258.473 1174.9 258.473 1172.3 258.268C1171.09 258.165 1170.01 257.831 1168.8 257.831C1168.28 257.831 1167.54 257.934 1167.15 257.574C1166.79 257.214 1166.89 256.752 1166.51 256.34C1164.63 254.49 1162.18 257.574 1160.36 257.394C1157.52 257.137 1158.76 253.333 1156.57 252.459C1154.54 251.637 1151.79 253.179 1149.88 253.873C1147.51 254.695 1145.22 255.749 1143.19 257.291C1142.06 258.114 1139.12 260.093 1139.59 261.763C1142.14 262.483 1144.68 263.896 1147.28 264.821C1148.59 265.258 1149.91 265.464 1151.19 265.901C1152.27 266.261 1154.1 266.441 1154.82 265.284C1157.45 266.261 1159.07 269.242 1161.64 270.476C1163.24 271.247 1164.52 271.247 1166.15 270.81C1167.64 270.398 1169.05 269.833 1170.5 269.242C1175.23 267.366 1180.35 267.803 1185.32 267.032C1187.63 266.672 1189.9 266.004 1192.14 266.158C1194.45 266.312 1196.56 267.212 1198.57 265.618C1200.5 264.051 1201.38 262.097 1202.56 260.067C1203.64 258.216 1204.75 255.955 1204.21 253.822C1203.59 251.38 1202.61 248.964 1201.48 246.702C1200.35 244.441 1199.52 241.871 1198.67 239.455C1197.85 237.142 1193.91 228.532 1193.73 226.244C1193.55 223.88 1193.27 221.67 1192.83 219.433C1192.81 219.228 1192.76 218.997 1192.73 218.791C1194.04 218.02 1195.35 217.3 1196.64 216.529C1197.9 215.81 1199.11 214.936 1200.24 214.036C1201.22 215.81 1202.2 217.48 1204.21 218.328C1206.24 219.202 1208.81 219.845 1211.03 220.025C1215.86 220.436 1220.32 222.569 1225.03 223.623C1226.16 223.88 1231.1 224.599 1232.44 224.702C1234.99 224.882 1237.35 225.294 1239.82 225.679C1242.22 226.09 1244.74 226.399 1247.08 227.092C1248.16 227.427 1249.09 227.735 1250.14 228.043C1251.58 228.455 1251.38 229.277 1251.71 230.614C1251.97 231.667 1252.59 232.567 1252.48 233.672C1252.38 234.828 1251.4 239.198 1251.27 240.354C1251.17 241.434 1250.68 242.308 1250.32 243.284C1248.8 247.422 1247.7 251.663 1245.82 255.621C1244.94 257.445 1243.45 258.705 1241.91 259.964C1240.13 261.404 1242.01 263.588 1242.01 265.593C1242.01 267.88 1241.29 269.988 1239.95 271.786C1239.44 272.506 1238.9 273.714 1238.1 274.177C1237.56 274.511 1236.66 274.434 1236.07 274.691C1235.45 274.896 1234.93 275.153 1234.32 275.333C1233.34 275.59 1232.18 275.796 1231.59 276.644C1231.07 277.415 1230.69 278.392 1230.43 279.265C1227.78 288.955 1237.84 294.686 1238.82 294.763C1241.39 294.917 1241.29 291.833 1241.98 290.086C1242.42 289.006 1242.96 288.081 1243.5 287.104C1244.12 286.051 1244.2 284.997 1244.66 283.866C1245.48 281.913 1246.41 280.139 1246.8 278.058C1247.26 275.616 1248.39 274.1 1250.04 272.249C1251.64 270.399 1253.38 268.703 1253.93 266.286C1254.18 265.13 1254.03 263.819 1254.21 262.663C1254.39 261.429 1254.57 260.221 1254.83 259.039C1255.44 256.237 1256.7 253.487 1257.55 250.763C1257.89 249.632 1258.43 248.656 1258.89 247.576C1259.15 246.959 1259.48 246.317 1259.72 245.7C1259.87 245.34 1261.29 239.609 1261.9 237.861C1262.55 236.114 1264.22 234.751 1264.84 232.824C1265.53 230.639 1264.81 228.172 1264.22 226.116C1263.68 224.111 1262.78 222.209 1261.77 220.41C1260.75 218.585 1258.84 217.737 1257.09 216.786C1255.14 215.733 1253.05 214.91 1251.09 213.805C1249.04 212.674 1246.95 211.929 1245.2 210.258C1243.61 208.742 1242.01 207.277 1240.26 205.915C1239.49 205.298 1238.67 204.938 1238.05 204.219C1237.35 203.396 1236.79 202.574 1236.3 201.597C1235.89 200.775 1235.42 200.004 1234.8 199.31C1234.52 198.976 1234.16 198.693 1233.85 198.359C1233.31 197.768 1233.31 197.922 1233.57 197.28C1233.93 196.251 1237.64 186.896 1238.05 184.763C1238.92 180.162 1240.36 175.793 1240.36 170.987C1240.36 168.777 1239.93 166.258 1239.05 164.305C1238.95 164.099 1238.85 163.868 1238.69 163.663C1239.95 162.146 1241.32 160.733 1242.68 159.191C1246.03 155.567 1249.68 152.329 1253.72 149.501C1255.68 148.114 1263.42 144.104 1264.94 142.382C1267.59 143.256 1270.32 143.796 1273.17 143.256C1276.62 142.613 1280.12 141.483 1283.21 139.812C1284.55 139.092 1285.89 138.424 1287.12 137.55C1287.23 137.473 1287.38 137.37 1287.48 137.268C1289.59 138.347 1291.63 139.529 1292.32 140.069C1293.22 140.84 1293.35 142.279 1293.99 143.179C1294.51 143.898 1295.15 144.438 1295.82 145.004C1296.9 145.954 1297.24 146.494 1298.63 146.263C1299.17 146.16 1299.71 146.186 1300.22 145.929C1300.66 145.723 1300.87 145.158 1301.38 145.106C1302.46 144.901 1303.34 145.98 1304.57 145.517C1305.63 145.106 1305.96 144.027 1306.89 143.821C1307.5 143.667 1308.02 143.796 1308.64 143.539C1309.15 143.333 1309.61 143.102 1310.05 142.768C1310.77 142.254 1311.88 141.56 1312.24 140.737C1312.83 139.478 1311.7 138.784 1311.44 137.679C1311.24 136.728 1312.24 135.674 1312.75 134.954C1314.25 133.209 1315.92 131.229 1314.4 129.071ZM1039.38 162.559C1038.48 164.256 1037.99 167.751 1037.37 168.753C1038.17 166.286 1038.5 164.538 1038.58 161.968C1038.48 162.225 1038.37 162.379 1038.25 162.662C1038.22 161.865 1038.22 161.069 1038.22 160.22C1038.61 161.017 1038.97 161.814 1039.38 162.559ZM1040.87 165.361C1041.2 165.952 1041.51 166.517 1041.82 167.057C1041.18 168.316 1039.56 169.061 1038.66 170.064C1037.5 171.375 1036.6 172.608 1035.21 173.791C1036.93 171.889 1040.02 168.548 1040.87 165.361ZM1031.63 179.522C1035.75 176.977 1040.12 172.017 1041.85 167.108C1042.11 167.571 1042.39 168.008 1042.65 168.445C1042.54 168.651 1042.44 168.882 1042.31 169.062C1041.44 170.758 1041.26 172.84 1040.36 174.356C1039.04 176.566 1034.21 180.267 1031.63 179.522ZM1046.71 175.512C1045.45 176.772 1044.04 177.466 1042.41 178.186C1040.54 179.008 1034.8 181.45 1032.87 180.139C1036.55 178.751 1041.31 178.545 1043.8 174.921C1044.06 174.51 1044.45 173.431 1044.83 172.043C1045.35 172.814 1045.66 173.302 1045.81 173.482C1046.22 174.022 1046.63 174.561 1047.07 175.076C1046.97 175.281 1046.87 175.41 1046.71 175.512ZM1091.75 237.349C1090.67 235.139 1090 232.826 1089.64 230.487C1089.46 229.279 1089.71 227.994 1089.61 226.761C1089.53 225.681 1089.2 224.473 1088.84 223.42C1088.07 221.158 1087.32 219.256 1087.58 216.737C1087.84 214.09 1088.89 211.623 1088.89 208.873C1088.89 208.95 1088.89 209.027 1088.89 209.053L1089.05 207.613C1088.89 208.487 1089.66 209.49 1089.87 210.261C1090.15 211.237 1090.51 212.265 1090.77 213.268C1091.05 214.347 1091.41 215.581 1091.49 216.763C1091.59 217.997 1091.39 219.205 1091.64 220.387C1091.9 221.466 1092.36 222.52 1092.7 223.548C1093.11 224.859 1093.03 226.427 1093.24 227.789C1093.68 230.282 1093.68 232.903 1093.68 235.473C1093.68 238.044 1094.66 240.305 1095.12 242.695C1094.04 241.205 1092.57 239.02 1091.75 237.349ZM1146.43 206.431C1144.32 205.968 1138.92 203.938 1134.72 202.01C1136.37 202.293 1137.99 202.524 1139.59 202.961C1145.33 204.401 1151.17 205.172 1157.16 205.172H1157.88C1157.88 205.454 1157.88 205.685 1157.86 205.865C1153.82 206.328 1148.39 206.868 1146.43 206.431ZM1278.22 133.209C1277.52 133.568 1276.8 133.826 1276.08 134.185C1274.38 135.008 1272.45 135.136 1270.73 135.753C1270.52 134.931 1272.61 131.589 1273.61 130.176C1274.44 130.818 1275.28 131.589 1276.16 132.129C1276.8 132.489 1277.47 132.9 1278.22 133.209ZM1264.45 139.994C1264.3 140.096 1264.17 140.199 1264.01 140.353C1263.29 140.096 1262.57 139.839 1261.83 139.634C1259.2 138.914 1256.47 137.783 1253.98 136.524C1253.15 136.087 1252.23 135.65 1251.35 135.187C1251.53 134.853 1251.76 134.545 1251.97 134.211C1252.3 133.748 1252.61 133.183 1252.92 132.695C1253.75 132.489 1254.59 132.258 1255.42 132C1257.71 131.384 1260 130.793 1262.24 130.433C1265.04 129.97 1267.95 129.919 1270.78 129.482C1271.06 129.456 1271.4 129.379 1271.76 129.302C1271.04 130.51 1270.27 131.795 1269.91 132.232C1269.24 133.131 1265.17 139.454 1264.45 139.994ZM1241.44 89.2853C1242.04 87.4092 1242.35 85.79 1242.5 83.8109C1242.58 82.8602 1242.68 81.8835 1242.76 80.9325C1243.12 80.4183 1243.45 79.9558 1243.84 79.4933C1244.45 78.6965 1245.33 78.054 1246.23 77.6172C1246.33 78.3366 1246.41 79.0307 1246.41 79.7502C1246.41 80.367 1246.41 80.9585 1246.41 81.5753C1245.97 82.0891 1245.61 82.6289 1245.2 83.2458C1244.76 83.9395 1244.43 84.3251 1244.38 85.1219C1244.3 85.6614 1244.53 86.3555 1244.4 86.8697C1244.25 87.6404 1243.27 88.4372 1242.65 89.0797C1242.11 89.6195 1241.57 90.1333 1241.01 90.5962C1241.16 90.1593 1241.29 89.6708 1241.44 89.2853ZM1258.66 124.47C1259.82 123.571 1260.18 124.188 1261.29 124.83C1262.11 125.344 1263.04 125.806 1263.86 126.321C1264.48 126.68 1265.12 127.014 1265.79 127.297C1264.04 127.734 1262.42 128.248 1260.67 128.505C1258.74 128.788 1256.76 129.045 1254.75 129.456C1255.83 127.554 1257.04 125.729 1258.66 124.47ZM1253.54 78.3883C1252.56 78.1054 1251.48 78.1053 1250.48 78.5422C1249.86 78.8251 1249.22 79.1847 1248.6 79.6216C1248.6 79.0821 1248.6 78.5422 1248.6 77.9768C1248.6 77.6172 1248.6 77.2573 1248.57 76.9231C1250.25 76.8204 1252.66 76.8204 1253.54 78.3883ZM1252.48 73.1965C1251.33 73.1709 1250.22 73.1965 1249.14 73.3508C1249.83 73.4535 1250.66 73.8647 1251.09 74.0446C1251.63 74.2502 1252.25 74.7387 1252.87 74.9956C1251.74 74.8417 1250.61 74.7387 1249.42 75.0729C1249.01 75.1756 1248.62 75.3296 1248.21 75.4841C1248.11 75.2012 1247.95 74.867 1247.77 74.5331C1247.62 74.3275 1247.23 73.8134 1246.75 73.3765C1246.9 72.9396 1246.59 72.554 1246.05 71.8859C1245.87 71.6803 1245.72 71.4747 1245.59 71.2691C1248.21 70.9605 1250.17 71.8859 1252.48 73.1965ZM1243.37 75.921C1244.07 75.5098 1244.79 75.1499 1245.43 74.6871C1245.64 75.2013 1245.79 75.7411 1245.95 76.2549C1245.97 76.4092 1246.03 76.5118 1246.05 76.6661C1245.23 77.2059 1244.46 77.8741 1243.79 78.6195C1243.45 79.0307 1243.14 79.3903 1242.81 79.7758C1242.81 79.262 1242.81 78.7995 1242.78 78.2853C1242.76 77.8741 1242.63 77.2059 1242.45 76.5122C1242.76 76.2806 1243.07 76.101 1243.37 75.921ZM1233.8 75.7667C1234.7 75.7667 1236.07 76.6661 1236.97 76.9747C1238.1 77.3343 1239.33 77.8741 1240.47 77.5658C1240.49 77.5658 1240.54 77.5402 1240.54 77.5402C1240.57 79.185 1240.65 80.7785 1240.7 82.372C1239.18 84.2994 1237.69 86.2528 1236.27 88.2832C1237.25 88.1289 1238.38 86.6384 1239.18 85.9959C1239.8 85.4561 1240.26 84.7876 1240.7 84.1452C1240.62 85.713 1240.44 87.2552 1239.93 88.7457C1239.41 90.2363 1238.77 91.7272 1237.97 93.1664C1237.79 93.3207 1237.64 93.4233 1237.46 93.5776C1236.58 94.2974 1235.53 94.8369 1234.62 95.531C1234.03 95.9678 1232.41 97.3814 1232.49 98.1782L1231.33 99.4891C1231.61 98.6667 1232.03 98.2298 1231.05 98.0499C1230.35 97.8956 1229.48 98.0499 1228.86 98.2038C1227.37 98.5381 1225.08 99.7973 1224.46 101.263C1223.87 100.466 1225.1 98.9493 1225.77 98.4611C1226.65 97.8443 1227.7 97.8186 1228.58 97.51C1226.88 96.482 1224.46 96.8162 1223.22 98.538C1222.5 99.5664 1221.27 102.214 1219.72 102.393C1220.19 100.08 1222.48 98.0499 1224.02 96.3277C1225.72 94.4 1227.14 92.0357 1228.6 89.954C1229.81 88.2062 1231.15 86.4584 1232.31 84.6853C1233.62 82.6806 1234.99 80.5729 1234.42 78.157C1234.26 77.5402 1233.98 76.9234 1233.54 76.5122C1233.54 76.1782 1233.52 75.8953 1233.52 75.6384C1233.52 75.5868 1233.78 75.7667 1233.8 75.7667ZM1193.96 214.27C1193.17 214.526 1192.39 214.887 1191.57 214.989C1191.29 214.552 1190.88 214.116 1190.41 213.73C1191.91 212.856 1194.04 212.496 1195.77 211.982C1196.38 211.802 1198.24 210.826 1198.78 211.108C1198.93 211.186 1199.06 211.443 1199.24 211.725C1199.14 211.803 1199.06 211.88 1198.96 211.905C1197.31 212.933 1195.71 213.704 1193.96 214.27ZM1206.42 104.963C1205.72 104.423 1205.29 103.267 1204.72 102.573C1204.88 103.37 1205 103.961 1205 104.783C1205.03 104.243 1204.64 103.806 1204.54 103.267C1203.49 103.19 1203.72 100.08 1203.82 98.4091C1204.85 98.8716 1205.75 99.2316 1206.45 100.516C1207.11 101.725 1207.5 103.832 1206.42 104.963ZM1215.22 102.907C1214.78 102.881 1214.4 102.367 1213.78 102.496C1213.63 103.01 1213.88 103.755 1213.93 104.321C1213.21 103.781 1212.8 102.881 1212.18 102.213C1211.49 101.442 1210.74 100.774 1209.97 100.08C1208.84 99.0519 1207.24 97.0728 1205.54 97.2785C1206.32 97.4841 1207.24 98.795 1207.55 99.5658C1206.75 99.0519 1206.29 98.4351 1205.36 98.1265C1204.9 97.9466 1204.39 97.8696 1203.92 97.7926C1203.92 97.7153 1203.92 97.6383 1203.92 97.587C1203.92 95.5307 1203.59 94.0401 1203.02 92.2153C1203.2 93.1151 1202.92 94.477 1202.77 95.2741C1202.66 95.8652 1202.66 96.3277 1202.3 96.8673C1202.02 97.3298 1201.5 97.6383 1201.27 98.1782C1200.5 96.9702 1200.66 95.0681 1200.14 93.6802C1199.88 92.9865 1199.42 92.2926 1199.01 91.6242C1199.21 92.9351 1199.09 94.554 1199.11 95.5307C1198.16 93.5003 1197.23 92.087 1195.38 90.7505C1194.07 89.7994 1191.47 88.7971 1189.98 89.7225C1190.67 89.7994 1191.31 90.4422 1191.85 90.8534C1191.06 90.6478 1189.59 90.3392 1188.79 90.8278C1189.92 92.164 1192.34 92.7808 1193.76 93.9375C1195.43 95.3251 1196.64 96.8416 1197.75 98.615C1198.85 100.388 1199.57 102.83 1199.24 104.989C1198.88 107.379 1197.31 108.047 1195.74 109.564C1194.84 108.767 1193.81 106.145 1192.21 106.942C1191.44 105.375 1190.7 103.678 1189.95 102.033C1189.18 100.26 1188.64 98.6151 1187.27 97.2528C1186.58 96.559 1185.86 96.1221 1185.09 95.5566C1183.95 94.7342 1184.03 94.2457 1184.39 92.9095C1184.67 91.8558 1184.98 90.8021 1185.65 89.8251C1186.01 89.2856 1186.17 89.2856 1186.73 89.0283C1187.25 88.8227 1187.79 88.8227 1187.86 88.1289C1188.2 85.816 1183.44 86.3811 1182.38 87.1522C1181.35 87.872 1181.3 88.977 1181.05 90.0307C1180.79 91.1104 1180.07 92.087 1180.14 93.2177C1179.32 92.4982 1178.11 92.3183 1176.98 92.344C1176.26 92.3696 1176 92.5496 1175.38 92.7808C1174.77 93.0121 1174.66 92.8065 1174.17 92.5239C1173.76 92.267 1173.53 91.8045 1173.14 91.4959C1172.81 91.239 1172.01 91.0847 1171.83 90.7764C1171.37 90.0567 1172.12 88.5918 1171.47 87.7177C1172.37 86.8953 1172.91 85.7133 1173.22 84.6337C1173.48 83.5543 1173.66 82.3464 1173.25 81.2667C1173.09 80.8298 1172.66 80.367 1172.53 79.9558C1172.42 79.5446 1172.5 79.0051 1172.68 78.5422C1173.48 76.5891 1174.74 74.944 1175.87 73.1965C1176.39 72.3998 1177.08 71.4231 1177.88 70.8836C1178.57 70.421 1179.71 70.2664 1180.53 69.8552C1182.38 68.9815 1184.26 67.5679 1185.14 65.6148L1186.01 65.8974C1187.35 66.6942 1189.1 66.9511 1190.67 67.6709C1192.68 68.6216 1194.4 69.9838 1196.31 71.1661C1198.18 72.2971 1200.17 73.3508 1202.2 74.1476C1203.18 74.5588 1204.23 74.867 1205.21 75.3555C1205.8 75.6384 1206.42 75.8953 1206.96 76.1779C1207.32 76.3835 1207.91 77.0003 1208.22 77.129C1209.64 77.5658 1212.88 74.2245 1212.96 72.734C1213.83 72.888 1214.63 73.6077 1215.53 73.9419C1216.61 74.3015 1217.79 74.5844 1218.87 74.97C1219.83 75.2529 1220.88 75.5098 1221.6 76.2809C1222.48 77.2316 1221.81 77.7201 1221.6 78.6709C1221.06 78.6965 1220.47 78.234 1219.93 78.1313C1220.19 78.4909 1220.08 78.9281 1220.34 79.262C1220.5 79.4419 1220.93 79.6219 1221.14 79.7762C1221.86 80.2903 1222.19 80.9071 1223.17 81.0354C1224.15 81.1641 1225.44 80.9328 1226.41 80.7529C1227.21 80.5986 1227.75 80.5729 1228.6 80.5986C1229.07 80.6242 1229.48 80.4446 1229.91 80.4446C1230.38 80.4446 1230.33 80.5472 1230.79 80.7015C1231.12 80.8042 1231.43 80.8555 1231.77 80.8555C1231.79 81.0611 1231.79 81.2667 1231.79 81.4723C1231.72 82.449 1231.15 83.9396 1230.76 84.8133C1229.25 88.4115 1225.49 91.3929 1222.91 94.3484C1221.52 95.9932 1219.67 98.0752 1218.69 100.311C1218.54 100.106 1218.44 99.8743 1218.41 99.6944C1217.82 100.517 1217.38 101.339 1216.66 102.136C1216.15 102.547 1215.94 102.984 1215.22 102.907ZM1262.37 141.818C1261.54 142.538 1249.29 150.66 1246.13 153.949C1245.25 154.849 1244.17 155.594 1243.37 156.519C1242.68 157.316 1242.04 158.087 1241.32 158.833C1240.16 160.041 1239.1 161.274 1238.07 162.533C1237.87 162.174 1237.71 161.814 1237.66 161.454C1237.56 160.426 1238.1 159.269 1238.54 158.396C1239.49 156.519 1240.72 154.772 1241.73 152.87C1242.32 151.79 1242.96 150.814 1243.48 149.683C1243.73 149.092 1247.59 141.998 1248.44 140.533C1249.34 139.043 1250.04 137.474 1250.89 135.958C1250.89 135.958 1250.91 135.958 1250.91 135.984C1253.23 137.192 1255.34 138.965 1257.86 139.762C1259.46 140.276 1261.03 140.919 1262.62 141.536C1262.55 141.639 1262.47 141.741 1262.37 141.818ZM1283.16 137.886C1281.46 138.94 1279.04 140.019 1277.09 140.379C1274.26 140.919 1271.63 141.793 1268.8 141.587C1267.93 141.51 1267.05 141.33 1266.17 141.047C1267.15 139.814 1268.23 138.426 1269.42 137.938C1271.6 136.987 1274.1 136.524 1276.39 135.753C1277.65 135.316 1278.89 134.674 1280.1 133.98C1280.69 134.185 1281.31 134.417 1281.87 134.622C1282.52 134.828 1283.8 135.419 1285.24 136.113C1284.52 136.704 1283.91 137.449 1283.16 137.886Z" fill="#0A0A0A"/>
<path d="M253.606 278.816C255.68 275.007 257.743 271.222 260.21 266.693C262.358 269.26 263.738 270.912 265.106 272.547C272.428 269.084 274.247 268.773 283.69 268.874C289.273 268.932 294.891 268.549 300.429 268.968C302.857 269.151 305.016 271.153 307.488 271.8C316.723 274.223 317.251 282.742 322.942 287.61C324.302 288.774 325.597 290.005 327.065 291.062C330.511 293.541 333.605 293.386 336.29 290.057C338.695 287.079 340.984 283.989 343.78 281.295C348.063 277.171 352.383 278.009 354.691 283.128C358.38 291.313 363.129 293.726 373.146 292.489C374.097 292.372 375.026 292.132 375.975 292.003C384.992 290.776 385.804 291.236 387.151 298.848C387.711 302.006 388.343 304.69 393.375 304.275C394.477 304.186 396.039 305.824 396.948 306.932C398.263 308.535 399.141 310.394 400.27 312.116C401.391 313.828 402.591 315.504 404.143 317.758C406.641 316.443 409.572 315.631 411.172 313.91C415.32 309.446 417.757 303.972 426.152 303.336C434.654 302.693 437.416 295.063 443.097 290.897C447.286 287.824 451.047 286.151 456.439 288.243C460.502 289.818 462.345 287.885 463.365 284.612C465.619 277.379 470.416 276.007 477.522 280.486C481.186 282.795 483.315 282.688 484.97 278.485C487.388 272.337 498.853 269.329 505.146 272.782C512.153 276.627 517.244 274.689 518.83 267.576C520.181 261.52 524.093 259.03 531.073 259.417C533.711 259.563 536.419 259.212 539.057 258.868C544.645 258.14 548.283 260.041 550.454 264.448C551.864 267.308 553.576 270.061 555.595 273.649C561.499 269.372 567.225 265.567 572.395 261.27C573.928 259.995 574.28 257.373 574.511 255.313C575.676 244.958 585.568 241.02 594.28 247.547C597.47 249.936 600.777 250.052 603.857 247.057C607.838 243.19 612.458 242.717 617.886 245.005C621.302 246.447 625.016 247.572 628.743 248.221C631.721 248.739 634.918 248.326 637.937 247.689C649.761 248.363 650.615 257.603 655.227 264.203C656.325 265.773 658.773 268.087 660.015 267.847C662.595 267.348 665.719 265.797 666.913 263.894C668.669 261.095 668.845 257.592 669.853 254.426C671.32 249.826 673.92 246.887 680.522 247.831C686.391 248.671 689.622 244.904 692.139 241.11C693.926 238.418 694.93 235.353 696.496 232.54C699.534 227.086 704.72 224.198 711.306 225.459C717.686 226.68 723.569 225.73 729.307 224.007C733.277 222.815 735.42 223.768 737.471 226.456C740.939 231 744.559 235.458 748.15 239.935C748.326 240.156 748.818 240.193 749.635 240.481C750.412 239.294 751.325 238.113 751.99 236.839C755.916 229.307 755.895 229.32 765.757 230.138C768.246 230.345 770.868 230.817 773.215 230.358C774.932 230.025 777.182 228.606 777.668 227.264C780.126 220.48 782.935 218.247 791.046 217.604C791.618 217.556 792.43 217.658 792.721 217.377C796.999 213.256 805.187 213.806 807.906 207.552C809.659 203.515 814.195 203.223 818.081 205.159C821.493 206.861 824.208 209.563 827.374 211.664C828.588 212.47 830.862 213.663 831.526 213.273C836.823 210.172 841.96 212.941 847.134 213.194C852.212 213.443 857.277 214.698 861.398 210.291C868.172 203.043 874.918 202.476 882.104 209.838C887.017 214.87 890.867 218.118 897.178 214.55C900.494 219.39 903.23 223.883 906.613 227.984C907.501 229.06 910.394 229.225 912.371 229.238C913.777 229.247 915.139 228.13 916.611 227.812C921.864 226.673 927.705 223.915 932.317 224.974C940.974 226.963 948.614 231.518 953.767 238.351C956.835 242.42 960.05 246.406 963.487 250.797C967.348 245.422 972.623 243.482 978.231 245.331C979.933 245.892 981.217 248.041 982.076 249.697C985.305 255.91 987.117 256.237 992.413 251.339C993.653 250.194 995.136 249.242 996.815 247.97C998.77 250.853 1000.28 253.318 1002.06 255.633C1004.29 258.538 1007.32 259.404 1009.96 256.301C1015.65 249.598 1023.42 247.923 1032.36 249.029C1036.8 249.579 1039.34 248.081 1040.75 244.687C1042.04 241.596 1043.38 238.521 1044.58 235.404C1045.95 231.81 1048.07 231.468 1051.23 233.995C1052.74 235.208 1054.48 236.216 1056.84 237.804C1057.98 235.438 1059.18 233.645 1059.72 231.719C1060.97 227.281 1064.46 225.356 1069.37 225.47C1074.73 225.597 1080.07 226.583 1085.41 226.518C1087.77 226.49 1090.34 225.073 1092.36 223.766C1094.44 222.411 1095.81 220.277 1097.77 218.743C1108.11 210.653 1114.1 215.252 1118.34 224.924C1120.9 230.768 1124.43 235.606 1129.25 240.066C1131.01 241.694 1132.07 243.87 1134.42 247.134C1136.4 242.749 1137.88 239.366 1139.45 236.018C1140.36 234.08 1141.02 231.907 1142.52 230.358C1144.13 228.704 1146.59 227.659 1148.69 226.347C1150.43 228.645 1152.77 230.766 1153.76 233.28C1154.99 236.407 1155.1 239.855 1155.7 243.19C1165.22 241.64 1165.79 242 1169.75 248.823C1172.01 252.722 1172.6 257.9 1179.51 258.663C1180.52 258.776 1181.15 260.785 1182.16 261.761C1183.39 262.957 1184.62 264.45 1186.23 265.013C1196.44 268.564 1196.48 268.491 1203.64 275.635C1205.04 274.754 1206.46 273.858 1207.79 273.016C1210.03 280.091 1212.13 286.851 1214.32 293.591C1217.78 304.296 1224.48 313.366 1233.37 321.374C1236.28 323.991 1238.67 327.028 1241.53 329.686C1243.1 331.146 1245.27 332.12 1246.97 333.497C1248.13 334.442 1249.69 335.66 1249.79 336.831C1250.51 345.626 1257.78 350.016 1265.24 354.385C1265.89 354.764 1266.63 355.729 1266.48 356.248C1266.26 357.035 1265.43 358.102 1264.63 358.275C1262.98 358.628 1261.19 358.508 1259.46 358.508C841.562 358.513 423.661 358.513 5.76001 358.513H0C1.96335 348.984 3.71147 347.962 13.8824 350.054C20.435 351.401 21.1961 350.955 22.4992 345.017C24.1403 337.545 33.6801 329.787 42.3227 329.054C48.4268 328.538 54.55 328.21 59.9917 327.846C62.131 323.41 63.9756 319.156 66.2197 315.062C67.8748 312.043 70.5342 310.535 74.6588 312.236C79.3567 314.172 83.0065 312.935 86.2057 309.482C89.0272 306.436 91.9276 303.005 97.7347 305.143C98.2728 305.342 100.493 303.605 100.841 302.515C102.079 298.628 104.847 297.221 109.361 297.552C112.038 297.748 114.763 297.722 117.44 297.526C118.611 297.44 120.683 296.695 120.699 296.216C120.918 288.667 131.302 290.519 134.302 285.507C134.5 285.176 138.257 285.737 139.492 286.699C141.105 287.955 142.003 289.968 142.946 291.756C144.833 295.331 146.331 298.753 152.593 296.803C154.112 296.332 157.137 298.534 159.005 299.952C162.377 302.511 164.929 305.179 168.814 300.068C172.113 295.728 174.325 301.458 177.742 301.623C178.936 300.169 179.96 298.307 181.621 297.071C183.179 295.909 185.675 294.459 187.292 294.792C191.985 295.758 194.536 293.778 195.972 290.757C198.392 285.663 202.418 284.69 207.967 286.347C213.13 287.891 217.255 287.967 218.568 282.103C219.242 279.094 222.18 278.863 224.966 279.966C233.292 283.266 241.251 282.915 249.154 278.896C250.288 278.318 252.169 278.816 253.606 278.816Z" fill="#292929"/>
</svg>
