<svg width="1196" height="155" viewBox="0 0 1196 155" fill="none" xmlns="http://www.w3.org/2000/svg">
<path d="M253.606 74.816C255.68 71.0068 257.743 67.222 260.21 62.6932C262.358 65.2599 263.738 66.9118 265.106 68.5467C272.428 65.0838 274.247 64.7731 283.69 64.8744C289.273 64.9322 294.891 64.5488 300.429 64.9677C302.857 65.1512 305.016 67.1531 307.488 67.8001C316.723 70.223 317.251 78.7423 322.942 83.6105C324.302 84.774 325.597 86.0048 327.065 87.0617C330.511 89.5409 333.605 89.3855 336.29 86.0573C338.695 83.0792 340.984 79.9885 343.78 77.2946C348.063 73.1715 352.383 74.0094 354.691 79.1279C358.38 87.3126 363.129 89.7259 373.146 88.4893C374.097 88.3716 375.026 88.1319 375.975 88.003C384.992 86.7759 385.804 87.2357 387.151 94.8482C387.711 98.0061 388.343 100.69 393.375 100.275C394.477 100.186 396.039 101.824 396.948 102.932C398.263 104.535 399.141 106.394 400.27 108.116C401.391 109.828 402.591 111.504 404.143 113.758C406.641 112.443 409.572 111.631 411.172 109.91C415.32 105.446 417.757 99.9725 426.152 99.3361C434.654 98.6928 437.416 91.0634 443.097 86.8973C447.286 83.8237 451.047 82.1511 456.439 84.2426C460.502 85.8176 462.345 83.8852 463.365 80.6116C465.619 73.3788 470.416 72.0075 477.522 76.4864C481.186 78.7948 483.315 78.6882 484.97 74.4845C487.388 68.3372 498.853 65.3288 505.146 68.7822C512.153 72.6268 517.244 70.6886 518.83 63.5762C520.181 57.5201 524.093 55.0304 531.073 55.4175C533.711 55.5633 536.419 55.2117 539.057 54.8675C544.645 54.14 548.283 56.0406 550.454 60.448C551.864 63.3084 553.576 66.0607 555.595 69.6487C561.499 65.3718 567.225 61.5669 572.395 57.2698C573.928 55.9955 574.28 53.3726 574.511 51.3129C575.676 40.9582 585.568 37.0202 594.28 43.5472C597.47 45.9362 600.777 46.0523 603.857 43.0572C607.837 39.1902 612.458 38.7172 617.886 41.0049C621.302 42.4473 625.016 43.5716 628.743 44.2207C631.72 44.7388 634.917 44.3256 637.937 43.6893C649.761 44.3628 650.615 53.6028 655.227 60.2029C656.325 61.7726 658.773 64.0869 660.015 63.8472C662.595 63.3476 665.719 61.797 666.913 59.8943C668.669 57.0954 668.845 53.5916 669.853 50.4263C671.32 45.8259 673.92 42.8869 680.522 43.8314C686.391 44.6714 689.622 40.9041 692.139 37.1098C693.926 34.418 694.93 31.3534 696.496 28.5396C699.534 23.0865 704.72 20.1979 711.306 21.459C717.686 22.6803 723.569 21.73 729.307 20.007C733.277 18.8154 735.42 19.7678 737.471 22.4559C740.939 27.0001 744.559 31.4584 748.15 35.9352C748.326 36.1558 748.818 36.1935 749.635 36.4814C750.412 35.2935 751.325 34.1131 751.99 32.8387C755.916 25.3068 755.895 25.3201 765.757 26.1379C768.246 26.3452 770.868 26.8167 773.215 26.3585C774.932 26.0254 777.181 24.6058 777.668 23.2641C780.126 16.4805 782.935 14.2469 791.046 13.6036C791.618 13.5564 792.43 13.6577 792.721 13.3772C796.999 9.25567 805.187 9.80558 807.906 3.55171C809.659 -0.485483 814.195 -0.777156 818.081 1.15898C821.493 2.86125 824.208 5.56263 827.374 7.66369C828.588 8.46975 830.862 9.66345 831.526 9.27262C836.823 6.17247 841.96 8.9412 847.134 9.19416C852.212 9.44287 857.277 10.6981 861.398 6.29075C868.172 -0.956902 874.918 -1.5238 882.104 5.83787C887.017 10.8704 890.867 14.118 897.178 10.5501C900.494 15.3902 903.23 19.8834 906.613 23.9843C907.501 25.0603 910.394 25.2246 912.371 25.2379C913.777 25.2474 915.139 24.1301 916.611 23.8124C921.864 22.6728 927.705 19.9153 932.317 20.9743C940.974 22.9629 948.614 27.5182 953.767 34.3507C956.835 38.4197 960.05 42.4059 963.487 46.7968C967.348 41.4222 972.623 39.4819 978.231 41.3305C979.933 41.8916 981.217 44.0414 982.076 45.697C985.305 51.9095 987.117 52.2372 992.413 47.3394C993.653 46.1944 995.136 45.242 996.815 43.9703C998.77 46.8531 1000.28 49.3185 1002.06 51.6327C1004.29 54.5382 1007.32 55.4042 1009.96 52.3009C1015.65 45.5978 1023.42 43.9231 1032.36 45.0288C1036.8 45.5787 1039.34 44.0806 1040.75 40.6867C1042.04 37.5961 1043.38 34.5209 1044.58 31.4038C1045.95 27.8104 1048.07 27.4679 1051.23 29.9953C1052.74 31.2076 1054.48 32.2162 1056.84 33.8044C1057.98 31.4377 1059.18 29.6453 1059.72 27.7187C1060.97 23.2811 1064.46 21.3561 1069.37 21.4701C1074.73 21.5974 1080.07 22.5832 1085.41 22.518C1087.77 22.4899 1090.34 21.0735 1092.36 19.7657C1094.44 18.4113 1095.81 16.2769 1097.77 14.7427C1108.11 6.65347 1114.1 11.2517 1118.34 20.9239C1120.9 26.7684 1124.43 31.6058 1129.25 36.0662C1131.01 37.6937 1132.07 39.8695 1134.42 43.1341C1136.4 38.749 1137.88 35.3662 1139.45 32.0179C1140.36 30.0796 1141.02 27.9075 1142.52 26.3585C1144.13 24.7045 1146.59 23.6587 1148.69 22.3472C1150.43 24.645 1152.77 26.7663 1153.76 29.2804C1154.99 32.4066 1155.1 35.8546 1155.7 39.1902C1165.22 37.6396 1165.79 38.0002 1169.75 44.8231C1172.01 48.7219 1172.6 53.9003 1179.51 54.6634C1180.52 54.7758 1181.15 56.7851 1182.16 57.7614C1183.39 58.9573 1184.62 60.45 1186.23 61.0132C1196.44 64.5636 1196.48 64.491 1203.64 71.6352C1205.04 70.7544 1206.46 69.8581 1207.79 69.016C1210.03 76.0913 1212.13 82.8506 1214.32 89.5913C1217.78 100.296 1224.48 109.366 1233.37 117.374C1236.28 119.991 1238.67 123.028 1241.53 125.686C1243.1 127.146 1245.27 128.12 1246.97 129.497C1248.13 130.442 1249.69 131.66 1249.79 132.831C1250.51 141.626 1257.78 146.016 1265.24 150.385C1265.89 150.764 1266.63 151.729 1266.48 152.248C1266.26 153.035 1265.43 154.102 1264.63 154.275C1262.98 154.628 1261.19 154.508 1259.46 154.508C841.562 154.513 423.661 154.513 5.76001 154.513H0C1.96335 144.984 3.71147 143.962 13.8824 146.054C20.435 147.401 21.1961 146.955 22.4992 141.017C24.1403 133.545 33.6801 125.787 42.3227 125.054C48.4268 124.538 54.55 124.21 59.9917 123.846C62.131 119.41 63.9756 115.156 66.2197 111.062C67.8748 108.043 70.5342 106.535 74.6588 108.236C79.3567 110.172 83.0065 108.935 86.2057 105.482C89.0272 102.436 91.9276 99.0052 97.7347 101.143C98.2728 101.342 100.493 99.6055 100.841 98.5146C102.079 94.6275 104.847 93.2206 109.361 93.5516C112.038 93.7483 114.763 93.7218 117.44 93.5256C118.611 93.4397 120.683 92.6951 120.699 92.2157C120.918 84.6674 131.302 86.5192 134.302 81.5073C134.5 81.1764 138.257 81.7375 139.492 82.6994C141.105 83.9547 142.003 85.9677 142.946 87.7559C144.833 91.3312 146.331 94.7527 152.593 92.8033C154.112 92.3319 157.137 94.5337 159.005 95.9517C162.377 98.511 164.929 101.179 168.814 96.0678C172.113 91.7278 174.325 97.4578 177.742 97.6227C178.936 96.1692 179.96 94.3072 181.621 93.0711C183.179 91.9092 185.675 90.4594 187.292 90.7924C191.985 91.7576 194.536 89.7784 195.972 86.7568C198.392 81.6627 202.418 80.6901 207.967 82.3473C213.13 83.8911 217.255 83.9674 218.568 78.1028C219.242 75.0944 222.18 74.8626 224.966 75.9662C233.292 79.2663 241.251 78.9147 249.154 74.896C250.288 74.318 252.169 74.816 253.606 74.816Z" fill="#292929"/>
</svg>
