<svg width="286" height="285" viewBox="0 0 286 285" fill="none" xmlns="http://www.w3.org/2000/svg">
<path fill-rule="evenodd" clip-rule="evenodd" d="M63.3204 30.5001C63.0849 30.0759 62.365 31.4718 61.8419 31.8988C54.1675 13.265 31.2541 3.086 2.20287 1.18924C0.85808 18.969 9.17579 41.8999 19.4 53.2559C22.3744 56.5567 22.295 55.9354 25.6748 58.6451C26.0802 58.9708 26.7023 59.4334 27.0721 59.7317L31.3002 63.3172C19.849 73.4634 7.38503 75.8118 2.07983 93.2631C-3.5732 111.848 5.84548 126.318 16.0149 133.21C57.2569 161.172 82.4378 93.025 45.6547 97.4179C42.9898 106.828 45.5868 110.983 37.3236 117.349C11.7863 124.501 18.5943 70.4171 57.2371 80.2595C69.8305 83.4645 78.4314 91.443 82.3288 101.74C88.4667 117.948 80.0636 126.923 74.92 136.421C93.1773 131.894 107.778 127.15 118.693 142.106C109.389 159.696 90.8984 151.551 74.676 149.2C80.1456 159.738 90.5094 168.365 81.274 186.205C76.7192 195.001 65.4519 203.514 54.6224 205.503C20.1071 211.848 7.2088 162.288 39.5275 167.91C42.4526 172.717 44.2501 182.734 47.1643 188.331L59.21 186.93C75.1201 154.143 37.4657 130.843 10.5179 157.176C-14.4031 181.527 9.92054 212.59 32.1903 221.083C12.8402 239.454 4.01014 246.726 1.32878 284.289C43.0391 280.797 43.308 272.662 64.9177 253.341C69.8943 265.951 80.0136 278.681 93.2972 283.115C109.481 288.518 125.994 281.401 132.373 272.005C163.531 226.108 92.7802 204.343 98.1758 238.816C104.522 242.062 112.023 242.314 118.024 246.326C122.754 279.102 72.1861 264.623 80.4876 229.362C83.0676 218.406 91.5857 207.403 101.043 203.516C118.81 196.219 126.484 205.495 136.547 211.06C132.997 193.209 126.654 177.079 143.857 167.114C157.634 177.635 154.801 193.242 149.351 211.027C173.111 194.761 199.966 200.93 205.975 230.744C213.124 266.2 162.296 274.967 168.291 248.007C178.028 236.5 178.578 247.2 188.692 237.119C187.542 202.175 122.387 232.556 154.804 272.476C162.509 281.96 179.008 289.295 195.724 282.105C210.522 275.741 212.712 265.346 222.698 254.149C237.11 269.821 252.13 286.126 284.739 283.301C283.515 264.481 279.254 245.867 266.959 232.318C263.519 228.525 263.806 229.639 260.716 226.995C257.164 223.951 259.115 225.681 256.664 223.22L254.074 220.092C283.411 211.112 300.118 172.613 270.272 152.441C230.329 125.442 203.356 188.186 239.156 188.184C243.804 179.718 240.802 176.866 248.208 167.883C278.917 163.09 264.79 213.986 229.261 204.978C217.245 201.932 207.701 194.079 203.896 184.097C197.868 168.285 206.227 159.467 211.584 149.082C189.126 153.667 183.357 156.803 167.236 144.615C175.275 126.849 192.277 132.113 210.913 135.898C206.919 126.945 198.202 116.999 203.702 102.254C217.801 64.4558 280.333 76.674 260.64 117.067C235.706 122.382 249.802 107.945 236.612 96.8021C205.057 100.141 231.545 160.747 270.938 132.405C282.698 123.943 289.935 107.925 283.343 90.8901C277.252 75.1494 265.428 72.5164 254.938 63.3172C271.322 48.9669 284.619 33.2016 284.361 1.70106C247.852 0.253171 237.209 17.7894 222.698 31.0448C213.405 21.3311 210.943 7.8156 193.45 2.14446C176.288 -3.4172 161.529 3.40076 153.266 14.8033C123.144 56.3651 192.648 82.003 188.09 47.0948C175.264 37.6465 163.971 47.8502 168.655 25.1794C194.2 12.6738 214.879 36.6202 203.456 62.6795C188.049 97.823 158.168 78.5242 149.951 75.0618C154.07 95.9865 158.587 102.027 144.547 118.51C126.761 111.289 133.378 92.4229 136.678 74.3803C123.871 82.5285 112.839 89.7022 95.7461 78.9429C87.3049 73.6304 77.3623 59.2472 79.9505 43.2602C85.6583 7.99625 133.071 22.4779 116.019 39.8362C112.234 43.6899 103.251 43.4354 97.4419 46.4461C98.0006 82.7611 161.454 55.3251 132.428 14.5597C124.586 3.54856 109.243 -4.85688 90.6739 3.20096C74.8295 10.0737 73.405 19.0101 66.0593 27.6974C65.2513 28.6527 63.5861 30.9846 63.3204 30.5001Z" fill="#141414"/>
</svg>
